<?xml version="1.0" encoding="utf-8" standalone="no"?>
<!DOCTYPE svg PUBLIC "-//W3C//DTD SVG 1.1//EN"
  "http://www.w3.org/Graphics/SVG/1.1/DTD/svg11.dtd">
<svg xmlns:xlink="http://www.w3.org/1999/xlink" width="460.8pt" height="345.6pt" viewBox="0 0 460.8 345.6" xmlns="http://www.w3.org/2000/svg" version="1.1">
 <metadata>
  <rdf:RDF xmlns:dc="http://purl.org/dc/elements/1.1/" xmlns:cc="http://creativecommons.org/ns#" xmlns:rdf="http://www.w3.org/1999/02/22-rdf-syntax-ns#">
   <cc:Work>
    <dc:type rdf:resource="http://purl.org/dc/dcmitype/StillImage"/>
    <dc:date>2024-11-25T11:36:03.552730</dc:date>
    <dc:format>image/svg+xml</dc:format>
    <dc:creator>
     <cc:Agent>
      <dc:title>Matplotlib v3.9.2, https://matplotlib.org/</dc:title>
     </cc:Agent>
    </dc:creator>
   </cc:Work>
  </rdf:RDF>
 </metadata>
 <defs>
  <style type="text/css">*{stroke-linejoin: round; stroke-linecap: butt}</style>
 </defs>
 <g id="figure_1">
  <g id="patch_1">
   <path d="M 0 345.6 
L 460.8 345.6 
L 460.8 0 
L 0 0 
z
" style="fill: #ffffff"/>
  </g>
  <g id="axes_1">
   <g id="patch_2">
    <path d="M 303.306674 262.568197 
Q 271.204198 213.852103 240.072082 166.60855 
" clip-path="url(#pce926a7af6)" style="fill: none; stroke: #ff0000; stroke-width: 1.577334; stroke-linecap: round"/>
    <path d="M 240.496854 170.160953 
L 240.072082 166.60855 
L 243.168868 168.400175 
" clip-path="url(#pce926a7af6)" style="fill: none; stroke: #ff0000; stroke-width: 1.577334; stroke-linecap: round"/>
   </g>
   <g id="patch_3">
    <path d="M 297.896264 268.631986 
Q 189.595423 213.849151 82.722775 159.788753 
" clip-path="url(#pce926a7af6)" style="fill: none; stroke: #ff0000; stroke-width: 1.431544; stroke-linecap: round"/>
    <path d="M 84.856037 162.660894 
L 82.722775 159.788753 
L 86.300444 159.805427 
" clip-path="url(#pce926a7af6)" style="fill: none; stroke: #ff0000; stroke-width: 1.431544; stroke-linecap: round"/>
   </g>
   <g id="patch_4">
    <path d="M 307.058473 260.754163 
Q 271.20377 151.93383 235.713709 44.220201 
" clip-path="url(#pce926a7af6)" style="fill: none; stroke: #0000ff; stroke-width: 1.042213; stroke-linecap: round"/>
    <path d="M 235.195468 47.760177 
L 235.713709 44.220201 
L 238.234745 46.75878 
" clip-path="url(#pce926a7af6)" style="fill: none; stroke: #0000ff; stroke-width: 1.042213; stroke-linecap: round"/>
   </g>
   <g id="patch_5">
    <path d="M 162.903736 268.631986 
Q 271.204577 213.849151 377.13763 160.264038 
" clip-path="url(#pce926a7af6)" style="fill: none; stroke: #ff0000; stroke-width: 2.373344; stroke-linecap: round"/>
    <path d="M 373.55996 160.280712 
L 377.13763 160.264038 
L 375.004367 163.136178 
" clip-path="url(#pce926a7af6)" style="fill: none; stroke: #ff0000; stroke-width: 2.373344; stroke-linecap: round"/>
   </g>
   <g id="patch_6">
    <path d="M 140.09534 262.568197 
Q 107.992864 213.852103 77.179448 167.092184 
" clip-path="url(#pce926a7af6)" style="fill: none; stroke: #0000ff; stroke-width: 2.095385; stroke-linecap: round"/>
    <path d="M 77.60422 170.644587 
L 77.179448 167.092184 
L 80.276234 168.883808 
" clip-path="url(#pce926a7af6)" style="fill: none; stroke: #0000ff; stroke-width: 2.095385; stroke-linecap: round"/>
   </g>
   <g id="patch_7">
    <path d="M 79.782656 142.375184 
Q 148.793006 90.012951 217.625222 37.785879 
" clip-path="url(#pce926a7af6)" style="fill: none; stroke: #ff0000; stroke-width: 0.2; stroke-linecap: round"/>
    <path d="M 214.10885 38.445519 
L 217.625222 37.785879 
L 216.04311 40.994761 
" clip-path="url(#pce926a7af6)" style="fill: none; stroke: #ff0000; stroke-width: 0.2; stroke-linecap: round"/>
   </g>
   <g id="patch_8">
    <path d="M 306.327169 303.844621 
Q 272.713965 252.83597 239.983548 203.166965 
" clip-path="url(#pce926a7af6)" style="fill: none; stroke: #0000ff; stroke-width: 1.434982; stroke-linecap: round"/>
    <path d="M 240.40832 206.719368 
L 239.983548 203.166965 
L 243.080334 204.958589 
" clip-path="url(#pce926a7af6)" style="fill: none; stroke: #0000ff; stroke-width: 1.434982; stroke-linecap: round"/>
   </g>
   <g id="patch_9">
    <path d="M 310.081043 302.033946 
Q 272.714141 188.624032 235.858529 76.765905 
" clip-path="url(#pce926a7af6)" style="fill: none; stroke: #ff0000; stroke-width: 1.461359; stroke-linecap: round"/>
    <path d="M 235.340288 80.305881 
L 235.858529 76.765905 
L 238.379564 79.304484 
" clip-path="url(#pce926a7af6)" style="fill: none; stroke: #ff0000; stroke-width: 1.461359; stroke-linecap: round"/>
   </g>
   <g id="patch_10">
    <path d="M 323.729029 303.844621 
Q 357.342233 252.83597 389.904534 203.422084 
" clip-path="url(#pce926a7af6)" style="fill: none; stroke: #ff0000; stroke-width: 1.708256; stroke-linecap: round"/>
    <path d="M 386.807749 205.213708 
L 389.904534 203.422084 
L 389.479763 206.974487 
" clip-path="url(#pce926a7af6)" style="fill: none; stroke: #ff0000; stroke-width: 1.708256; stroke-linecap: round"/>
   </g>
   <g id="patch_11">
    <path d="M 137.070971 303.844621 
Q 103.457767 252.83597 70.220129 202.397249 
" clip-path="url(#pce926a7af6)" style="fill: none; stroke: #0000ff; stroke-width: 0.610489; stroke-linecap: round"/>
    <path d="M 70.644901 205.949652 
L 70.220129 202.397249 
L 73.316915 204.188873 
" clip-path="url(#pce926a7af6)" style="fill: none; stroke: #0000ff; stroke-width: 0.610489; stroke-linecap: round"/>
   </g>
   <g id="patch_12">
    <path d="M 150.718957 302.033946 
Q 188.085859 188.624032 225.189776 76.01229 
" clip-path="url(#pce926a7af6)" style="fill: none; stroke: #0000ff; stroke-width: 0.75166; stroke-linecap: round"/>
    <path d="M 222.668741 78.550868 
L 225.189776 76.01229 
L 225.708018 79.552265 
" clip-path="url(#pce926a7af6)" style="fill: none; stroke: #0000ff; stroke-width: 0.75166; stroke-linecap: round"/>
   </g>
   <g id="patch_13">
    <path d="M 140.824845 302.033946 
Q 103.457942 188.624032 67.052307 78.1316 
" clip-path="url(#pce926a7af6)" style="fill: none; stroke: #0000ff; stroke-width: 2.74747; stroke-linecap: round"/>
    <path d="M 66.534066 81.671576 
L 67.052307 78.1316 
L 69.573343 80.670179 
" clip-path="url(#pce926a7af6)" style="fill: none; stroke: #0000ff; stroke-width: 2.74747; stroke-linecap: round"/>
   </g>
   <g id="patch_14">
    <path d="M 159.884762 309.909599 
Q 272.714828 252.835704 384.496416 196.292171 
" clip-path="url(#pce926a7af6)" style="fill: none; stroke: #ff0000; stroke-width: 1.050939; stroke-linecap: round"/>
    <path d="M 380.918746 196.308846 
L 384.496416 196.292171 
L 382.363153 199.164312 
" clip-path="url(#pce926a7af6)" style="fill: none; stroke: #ff0000; stroke-width: 1.050939; stroke-linecap: round"/>
   </g>
   <g id="patch_15">
    <path d="M 217.804442 179.066761 
Q 145.771767 124.411312 73.964554 69.926934 
" clip-path="url(#pce926a7af6)" style="fill: none; stroke: #0000ff; stroke-width: 0.253138; stroke-linecap: round"/>
    <path d="M 75.546666 73.135815 
L 73.964554 69.926934 
L 77.480926 70.586573 
" clip-path="url(#pce926a7af6)" style="fill: none; stroke: #0000ff; stroke-width: 0.253138; stroke-linecap: round"/>
   </g>
   <g id="patch_16">
    <path d="M 230.4 172.809742 
Q 230.4 124.410316 230.4 76.589115 
" clip-path="url(#pce926a7af6)" style="fill: none; stroke: #ff0000; stroke-width: 0.51718; stroke-linecap: round"/>
    <path d="M 228.8 79.789115 
L 230.4 76.589115 
L 232 79.789115 
" clip-path="url(#pce926a7af6)" style="fill: none; stroke: #ff0000; stroke-width: 0.51718; stroke-linecap: round"/>
   </g>
   <g id="patch_17">
    <path d="M 75.929442 183.014386 
Q 230.401827 124.41072 384.665144 65.886371 
" clip-path="url(#pce926a7af6)" style="fill: none; stroke: #0000ff; stroke-width: 0.2; stroke-linecap: round"/>
    <path d="M 381.105683 65.525483 
L 384.665144 65.886371 
L 382.240758 68.517407 
" clip-path="url(#pce926a7af6)" style="fill: none; stroke: #0000ff; stroke-width: 0.2; stroke-linecap: round"/>
   </g>
   <g id="patch_18">
    <path d="M 306.465341 227.226998 
Q 357.342262 188.62367 405.9368 151.752121 
" clip-path="url(#pce926a7af6)" style="fill: none; stroke: #0000ff; stroke-width: 2.562551; stroke-linecap: round"/>
    <path d="M 402.420427 152.411761 
L 405.9368 151.752121 
L 404.354688 154.961003 
" clip-path="url(#pce926a7af6)" style="fill: none; stroke: #0000ff; stroke-width: 2.562551; stroke-linecap: round"/>
   </g>
   <g id="patch_19">
    <path d="M 293.871074 220.971938 
Q 293.871074 188.62204 293.871074 156.556773 
" clip-path="url(#pce926a7af6)" style="fill: none; stroke: #0000ff; stroke-width: 0.254581; stroke-linecap: round"/>
    <path d="M 292.271074 159.756773 
L 293.871074 156.556773 
L 295.471074 159.756773 
" clip-path="url(#pce926a7af6)" style="fill: none; stroke: #0000ff; stroke-width: 0.254581; stroke-linecap: round"/>
   </g>
   <g id="patch_20">
    <path d="M 281.276808 227.226998 
Q 230.399887 188.62367 179.769341 150.207281 
" clip-path="url(#pce926a7af6)" style="fill: none; stroke: #ff0000; stroke-width: 0.276618; stroke-linecap: round"/>
    <path d="M 181.351453 153.416163 
L 179.769341 150.207281 
L 183.285714 150.866921 
" clip-path="url(#pce926a7af6)" style="fill: none; stroke: #ff0000; stroke-width: 0.276618; stroke-linecap: round"/>
   </g>
   <g id="patch_21">
    <path d="M 279.084143 231.173153 
Q 166.928813 188.623713 55.809019 146.467134 
" clip-path="url(#pce926a7af6)" style="fill: none; stroke: #ff0000; stroke-width: 0.990626; stroke-linecap: round"/>
    <path d="M 58.233406 149.098171 
L 55.809019 146.467134 
L 59.36848 146.106247 
" clip-path="url(#pce926a7af6)" style="fill: none; stroke: #ff0000; stroke-width: 0.990626; stroke-linecap: round"/>
   </g>
   <g id="patch_22">
    <path d="M 181.715857 231.173153 
Q 293.871187 188.623713 405.551585 146.254453 
" clip-path="url(#pce926a7af6)" style="fill: none; stroke: #ff0000; stroke-width: 0.454334; stroke-linecap: round"/>
    <path d="M 401.992125 145.893565 
L 405.551585 146.254453 
L 403.127199 148.885489 
" clip-path="url(#pce926a7af6)" style="fill: none; stroke: #ff0000; stroke-width: 0.454334; stroke-linecap: round"/>
   </g>
   <g id="patch_23">
    <path d="M 166.928926 220.971938 
Q 166.928926 188.62204 166.928926 157.85969 
" clip-path="url(#pce926a7af6)" style="fill: none; stroke: #0000ff; stroke-width: 1.419946; stroke-linecap: round"/>
    <path d="M 165.328926 161.05969 
L 166.928926 157.85969 
L 168.528926 161.05969 
" clip-path="url(#pce926a7af6)" style="fill: none; stroke: #0000ff; stroke-width: 1.419946; stroke-linecap: round"/>
   </g>
   <g id="patch_24">
    <path d="M 154.334659 227.226998 
Q 103.457738 188.62367 54.319623 151.339677 
" clip-path="url(#pce926a7af6)" style="fill: none; stroke: #0000ff; stroke-width: 1.952248; stroke-linecap: round"/>
    <path d="M 55.901735 154.548559 
L 54.319623 151.339677 
L 57.835995 151.999316 
" clip-path="url(#pce926a7af6)" style="fill: none; stroke: #0000ff; stroke-width: 1.952248; stroke-linecap: round"/>
   </g>
   <g id="patch_25">
    <path d="M 320.70466 262.568197 
Q 352.807136 213.852103 383.973428 166.556688 
" clip-path="url(#pce926a7af6)" style="fill: none; stroke: #0000ff; stroke-width: 1.52178; stroke-linecap: round"/>
    <path d="M 380.876642 168.348312 
L 383.973428 166.556688 
L 383.548656 170.109091 
" clip-path="url(#pce926a7af6)" style="fill: none; stroke: #0000ff; stroke-width: 1.52178; stroke-linecap: round"/>
   </g>
   <g id="patch_26">
    <path d="M 307.058473 260.754163 
Q 271.20377 151.93383 235.623081 43.945142 
" clip-path="url(#pce926a7af6)" style="fill: none; stroke: #0000ff; stroke-width: 0.783183; stroke-linecap: round"/>
    <path d="M 235.10484 47.485117 
L 235.623081 43.945142 
L 238.144117 46.48372 
" clip-path="url(#pce926a7af6)" style="fill: none; stroke: #0000ff; stroke-width: 0.783183; stroke-linecap: round"/>
   </g>
   <g id="patch_27">
    <path d="M 297.896264 268.631986 
Q 189.595423 213.849151 81.577997 159.20968 
" clip-path="url(#pce926a7af6)" style="fill: none; stroke: #0000ff; stroke-width: 0.28408; stroke-linecap: round"/>
    <path d="M 83.71126 162.08182 
L 81.577997 159.20968 
L 85.155667 159.226354 
" clip-path="url(#pce926a7af6)" style="fill: none; stroke: #0000ff; stroke-width: 0.28408; stroke-linecap: round"/>
   </g>
   <g id="patch_28">
    <path d="M 162.903736 268.631986 
Q 271.204577 213.849151 376.647075 160.51218 
" clip-path="url(#pce926a7af6)" style="fill: none; stroke: #0000ff; stroke-width: 2.86505; stroke-linecap: round"/>
    <path d="M 373.069405 160.528854 
L 376.647075 160.51218 
L 374.513812 163.38432 
" clip-path="url(#pce926a7af6)" style="fill: none; stroke: #0000ff; stroke-width: 2.86505; stroke-linecap: round"/>
   </g>
   <g id="patch_29">
    <path d="M 153.741527 260.754163 
Q 189.59623 151.93383 225.172629 43.958162 
" clip-path="url(#pce926a7af6)" style="fill: none; stroke: #ff0000; stroke-width: 0.795444; stroke-linecap: round"/>
    <path d="M 222.651593 46.49674 
L 225.172629 43.958162 
L 225.69087 47.498137 
" clip-path="url(#pce926a7af6)" style="fill: none; stroke: #ff0000; stroke-width: 0.795444; stroke-linecap: round"/>
   </g>
   <g id="patch_30">
    <path d="M 157.493326 262.568197 
Q 189.595802 213.852103 221.327896 165.698072 
" clip-path="url(#pce926a7af6)" style="fill: none; stroke: #0000ff; stroke-width: 0.602062; stroke-linecap: round"/>
    <path d="M 218.23111 167.489697 
L 221.327896 165.698072 
L 220.903124 169.250475 
" clip-path="url(#pce926a7af6)" style="fill: none; stroke: #0000ff; stroke-width: 0.602062; stroke-linecap: round"/>
   </g>
   <g id="patch_31">
    <path d="M 230.4 136.122434 
Q 230.4 90.011744 230.4 46.572088 
" clip-path="url(#pce926a7af6)" style="fill: none; stroke: #0000ff; stroke-width: 2.389045; stroke-linecap: round"/>
    <path d="M 228.8 49.772088 
L 230.4 46.572088 
L 232 49.772088 
" clip-path="url(#pce926a7af6)" style="fill: none; stroke: #0000ff; stroke-width: 2.389045; stroke-linecap: round"/>
   </g>
   <g id="patch_32">
    <path d="M 320.70466 262.568197 
Q 352.807136 213.852103 383.973428 166.556688 
" clip-path="url(#pce926a7af6)" style="fill: none; stroke: #0000ff; stroke-width: 1.52178; stroke-linecap: round"/>
    <path d="M 380.876642 168.348312 
L 383.973428 166.556688 
L 383.548656 170.109091 
" clip-path="url(#pce926a7af6)" style="fill: none; stroke: #0000ff; stroke-width: 1.52178; stroke-linecap: round"/>
   </g>
   <g id="patch_33">
    <path d="M 307.058473 260.754163 
Q 271.20377 151.93383 235.623081 43.945142 
" clip-path="url(#pce926a7af6)" style="fill: none; stroke: #0000ff; stroke-width: 0.783183; stroke-linecap: round"/>
    <path d="M 235.10484 47.485117 
L 235.623081 43.945142 
L 238.144117 46.48372 
" clip-path="url(#pce926a7af6)" style="fill: none; stroke: #0000ff; stroke-width: 0.783183; stroke-linecap: round"/>
   </g>
   <g id="patch_34">
    <path d="M 297.896264 268.631986 
Q 189.595423 213.849151 81.577997 159.20968 
" clip-path="url(#pce926a7af6)" style="fill: none; stroke: #0000ff; stroke-width: 0.28408; stroke-linecap: round"/>
    <path d="M 83.71126 162.08182 
L 81.577997 159.20968 
L 85.155667 159.226354 
" clip-path="url(#pce926a7af6)" style="fill: none; stroke: #0000ff; stroke-width: 0.28408; stroke-linecap: round"/>
   </g>
   <g id="patch_35">
    <path d="M 162.903736 268.631986 
Q 271.204577 213.849151 376.647075 160.51218 
" clip-path="url(#pce926a7af6)" style="fill: none; stroke: #0000ff; stroke-width: 2.86505; stroke-linecap: round"/>
    <path d="M 373.069405 160.528854 
L 376.647075 160.51218 
L 374.513812 163.38432 
" clip-path="url(#pce926a7af6)" style="fill: none; stroke: #0000ff; stroke-width: 2.86505; stroke-linecap: round"/>
   </g>
   <g id="patch_36">
    <path d="M 153.741527 260.754163 
Q 189.59623 151.93383 225.172629 43.958162 
" clip-path="url(#pce926a7af6)" style="fill: none; stroke: #ff0000; stroke-width: 0.795444; stroke-linecap: round"/>
    <path d="M 222.651593 46.49674 
L 225.172629 43.958162 
L 225.69087 47.498137 
" clip-path="url(#pce926a7af6)" style="fill: none; stroke: #ff0000; stroke-width: 0.795444; stroke-linecap: round"/>
   </g>
   <g id="patch_37">
    <path d="M 157.493326 262.568197 
Q 189.595802 213.852103 221.327896 165.698072 
" clip-path="url(#pce926a7af6)" style="fill: none; stroke: #0000ff; stroke-width: 0.602062; stroke-linecap: round"/>
    <path d="M 218.23111 167.489697 
L 221.327896 165.698072 
L 220.903124 169.250475 
" clip-path="url(#pce926a7af6)" style="fill: none; stroke: #0000ff; stroke-width: 0.602062; stroke-linecap: round"/>
   </g>
   <g id="patch_38">
    <path d="M 230.4 136.122434 
Q 230.4 90.011744 230.4 46.572088 
" clip-path="url(#pce926a7af6)" style="fill: none; stroke: #0000ff; stroke-width: 2.389045; stroke-linecap: round"/>
    <path d="M 228.8 49.772088 
L 230.4 46.572088 
L 232 49.772088 
" clip-path="url(#pce926a7af6)" style="fill: none; stroke: #0000ff; stroke-width: 2.389045; stroke-linecap: round"/>
   </g>
   <g id="PathCollection_1">
    <path d="M 312.005667 291.580466 
C 316.198896 291.580466 320.220946 289.914478 323.186007 286.949418 
C 326.151068 283.984357 327.817055 279.962307 327.817055 275.769078 
C 327.817055 271.575848 326.151068 267.553799 323.186007 264.588738 
C 320.220946 261.623677 316.198896 259.957689 312.005667 259.957689 
C 307.812438 259.957689 303.790388 261.623677 300.825327 264.588738 
C 297.860266 267.553799 296.194279 271.575848 296.194279 275.769078 
C 296.194279 279.962307 297.860266 283.984357 300.825327 286.949418 
C 303.790388 289.914478 307.812438 291.580466 312.005667 291.580466 
z
" clip-path="url(#pce926a7af6)" style="fill: #ffff00; stroke: #000000"/>
    <path d="M 148.794333 291.580466 
C 152.987562 291.580466 157.009612 289.914478 159.974673 286.949418 
C 162.939734 283.984357 164.605721 279.962307 164.605721 275.769078 
C 164.605721 271.575848 162.939734 267.553799 159.974673 264.588738 
C 157.009612 261.623677 152.987562 259.957689 148.794333 259.957689 
C 144.601104 259.957689 140.579054 261.623677 137.613993 264.588738 
C 134.648932 267.553799 132.982945 271.575848 132.982945 275.769078 
C 132.982945 279.962307 134.648932 283.984357 137.613993 286.949418 
C 140.579054 289.914478 144.601104 291.580466 148.794333 291.580466 
z
" clip-path="url(#pce926a7af6)" style="fill: #ffff00; stroke: #000000"/>
    <path d="M 393.611334 167.742377 
C 397.804563 167.742377 401.826613 166.076389 404.791674 163.111329 
C 407.756735 160.146268 409.422722 156.124218 409.422722 151.930989 
C 409.422722 147.73776 407.756735 143.71571 404.791674 140.750649 
C 401.826613 137.785588 397.804563 136.1196 393.611334 136.1196 
C 389.418105 136.1196 385.396055 137.785588 382.430994 140.750649 
C 379.465933 143.71571 377.799946 147.73776 377.799946 151.930989 
C 377.799946 156.124218 379.465933 160.146268 382.430994 163.111329 
C 385.396055 166.076389 389.418105 167.742377 393.611334 167.742377 
z
" clip-path="url(#pce926a7af6)" style="fill: #0000ff; stroke: #000000"/>
    <path d="M 230.4 167.742377 
C 234.593229 167.742377 238.615279 166.076389 241.58034 163.111329 
C 244.545401 160.146268 246.211388 156.124218 246.211388 151.930989 
C 246.211388 147.73776 244.545401 143.71571 241.58034 140.750649 
C 238.615279 137.785588 234.593229 136.1196 230.4 136.1196 
C 226.206771 136.1196 222.184721 137.785588 219.21966 140.750649 
C 216.254599 143.71571 214.588612 147.73776 214.588612 151.930989 
C 214.588612 156.124218 216.254599 160.146268 219.21966 163.111329 
C 222.184721 166.076389 226.206771 167.742377 230.4 167.742377 
z
" clip-path="url(#pce926a7af6)" style="fill: #0000ff; stroke: #000000"/>
    <path d="M 67.188666 167.742377 
C 71.381895 167.742377 75.403945 166.076389 78.369006 163.111329 
C 81.334067 160.146268 83.000054 156.124218 83.000054 151.930989 
C 83.000054 147.73776 81.334067 143.71571 78.369006 140.750649 
C 75.403945 137.785588 71.381895 136.1196 67.188666 136.1196 
C 62.995437 136.1196 58.973387 137.785588 56.008326 140.750649 
C 53.043265 143.71571 51.377278 147.73776 51.377278 151.930989 
C 51.377278 156.124218 53.043265 160.146268 56.008326 163.111329 
C 58.973387 166.076389 62.995437 167.742377 67.188666 167.742377 
z
" clip-path="url(#pce926a7af6)" style="fill: #0000ff; stroke: #000000"/>
    <path d="M 230.4 43.904288 
C 234.593229 43.904288 238.615279 42.2383 241.58034 39.27324 
C 244.545401 36.308179 246.211388 32.286129 246.211388 28.0929 
C 246.211388 23.899671 244.545401 19.877621 241.58034 16.91256 
C 238.615279 13.947499 234.593229 12.281512 230.4 12.281512 
C 226.206771 12.281512 222.184721 13.947499 219.21966 16.91256 
C 216.254599 19.877621 214.588612 23.899671 214.588612 28.0929 
C 214.588612 32.286129 216.254599 36.308179 219.21966 39.27324 
C 222.184721 42.2383 226.206771 43.904288 230.4 43.904288 
z
" clip-path="url(#pce926a7af6)" style="fill: #0000ff; stroke: #000000"/>
   </g>
   <g id="PathCollection_2">
    <path d="M 315.028099 332.859829 
C 319.221328 332.859829 323.243378 331.193841 326.208439 328.22878 
C 329.1735 325.26372 330.839487 321.24167 330.839487 317.048441 
C 330.839487 312.855211 329.1735 308.833162 326.208439 305.868101 
C 323.243378 302.90304 319.221328 301.237052 315.028099 301.237052 
C 310.83487 301.237052 306.81282 302.90304 303.847759 305.868101 
C 300.882698 308.833162 299.216711 312.855211 299.216711 317.048441 
C 299.216711 321.24167 300.882698 325.26372 303.847759 328.22878 
C 306.81282 331.193841 310.83487 332.859829 315.028099 332.859829 
z
" clip-path="url(#pce926a7af6)" style="fill: #ffff00; stroke: #000000"/>
    <path d="M 145.771901 332.859829 
C 149.96513 332.859829 153.98718 331.193841 156.952241 328.22878 
C 159.917302 325.26372 161.583289 321.24167 161.583289 317.048441 
C 161.583289 312.855211 159.917302 308.833162 156.952241 305.868101 
C 153.98718 302.90304 149.96513 301.237052 145.771901 301.237052 
C 141.578672 301.237052 137.556622 302.90304 134.591561 305.868101 
C 131.6265 308.833162 129.960513 312.855211 129.960513 317.048441 
C 129.960513 321.24167 131.6265 325.26372 134.591561 328.22878 
C 137.556622 331.193841 141.578672 332.859829 145.771901 332.859829 
z
" clip-path="url(#pce926a7af6)" style="fill: #ffff00; stroke: #000000"/>
    <path d="M 399.656198 204.435144 
C 403.849428 204.435144 407.871477 202.769156 410.836538 199.804096 
C 413.801599 196.839035 415.467587 192.816985 415.467587 188.623756 
C 415.467587 184.430527 413.801599 180.408477 410.836538 177.443416 
C 407.871477 174.478355 403.849428 172.812368 399.656198 172.812368 
C 395.462969 172.812368 391.440919 174.478355 388.475858 177.443416 
C 385.510798 180.408477 383.84481 184.430527 383.84481 188.623756 
C 383.84481 192.816985 385.510798 196.839035 388.475858 199.804096 
C 391.440919 202.769156 395.462969 204.435144 399.656198 204.435144 
z
" clip-path="url(#pce926a7af6)" style="fill: #0000ff; stroke: #000000"/>
    <path d="M 230.4 204.435144 
C 234.593229 204.435144 238.615279 202.769156 241.58034 199.804096 
C 244.545401 196.839035 246.211388 192.816985 246.211388 188.623756 
C 246.211388 184.430527 244.545401 180.408477 241.58034 177.443416 
C 238.615279 174.478355 234.593229 172.812368 230.4 172.812368 
C 226.206771 172.812368 222.184721 174.478355 219.21966 177.443416 
C 216.254599 180.408477 214.588612 184.430527 214.588612 188.623756 
C 214.588612 192.816985 216.254599 196.839035 219.21966 199.804096 
C 222.184721 202.769156 226.206771 204.435144 230.4 204.435144 
z
" clip-path="url(#pce926a7af6)" style="fill: #ffffff; stroke: #000000"/>
    <path d="M 61.143802 204.435144 
C 65.337031 204.435144 69.359081 202.769156 72.324142 199.804096 
C 75.289202 196.839035 76.95519 192.816985 76.95519 188.623756 
C 76.95519 184.430527 75.289202 180.408477 72.324142 177.443416 
C 69.359081 174.478355 65.337031 172.812368 61.143802 172.812368 
C 56.950572 172.812368 52.928523 174.478355 49.963462 177.443416 
C 46.998401 180.408477 45.332413 184.430527 45.332413 188.623756 
C 45.332413 192.816985 46.998401 196.839035 49.963462 199.804096 
C 52.928523 202.769156 56.950572 204.435144 61.143802 204.435144 
z
" clip-path="url(#pce926a7af6)" style="fill: #ffffff; stroke: #000000"/>
    <path d="M 399.656198 76.010459 
C 403.849428 76.010459 407.871477 74.344472 410.836538 71.379411 
C 413.801599 68.41435 415.467587 64.3923 415.467587 60.199071 
C 415.467587 56.005842 413.801599 51.983792 410.836538 49.018731 
C 407.871477 46.05367 403.849428 44.387683 399.656198 44.387683 
C 395.462969 44.387683 391.440919 46.05367 388.475858 49.018731 
C 385.510798 51.983792 383.84481 56.005842 383.84481 60.199071 
C 383.84481 64.3923 385.510798 68.41435 388.475858 71.379411 
C 391.440919 74.344472 395.462969 76.010459 399.656198 76.010459 
z
" clip-path="url(#pce926a7af6)" style="fill: #0000ff; stroke: #000000"/>
    <path d="M 230.4 76.010459 
C 234.593229 76.010459 238.615279 74.344472 241.58034 71.379411 
C 244.545401 68.41435 246.211388 64.3923 246.211388 60.199071 
C 246.211388 56.005842 244.545401 51.983792 241.58034 49.018731 
C 238.615279 46.05367 234.593229 44.387683 230.4 44.387683 
C 226.206771 44.387683 222.184721 46.05367 219.21966 49.018731 
C 216.254599 51.983792 214.588612 56.005842 214.588612 60.199071 
C 214.588612 64.3923 216.254599 68.41435 219.21966 71.379411 
C 222.184721 74.344472 226.206771 76.010459 230.4 76.010459 
z
" clip-path="url(#pce926a7af6)" style="fill: #0000ff; stroke: #000000"/>
    <path d="M 61.143802 76.010459 
C 65.337031 76.010459 69.359081 74.344472 72.324142 71.379411 
C 75.289202 68.41435 76.95519 64.3923 76.95519 60.199071 
C 76.95519 56.005842 75.289202 51.983792 72.324142 49.018731 
C 69.359081 46.05367 65.337031 44.387683 61.143802 44.387683 
C 56.950572 44.387683 52.928523 46.05367 49.963462 49.018731 
C 46.998401 51.983792 45.332413 56.005842 45.332413 60.199071 
C 45.332413 64.3923 46.998401 68.41435 49.963462 71.379411 
C 52.928523 74.344472 56.950572 76.010459 61.143802 76.010459 
z
" clip-path="url(#pce926a7af6)" style="fill: #0000ff; stroke: #000000"/>
   </g>
   <g id="PathCollection_3">
    <path d="M 293.871074 252.594401 
C 298.064304 252.594401 302.086353 250.928413 305.051414 247.963352 
C 308.016475 244.998292 309.682463 240.976242 309.682463 236.783013 
C 309.682463 232.589783 308.016475 228.567734 305.051414 225.602673 
C 302.086353 222.637612 298.064304 220.971624 293.871074 220.971624 
C 289.677845 220.971624 285.655795 222.637612 282.690734 225.602673 
C 279.725674 228.567734 278.059686 232.589783 278.059686 236.783013 
C 278.059686 240.976242 279.725674 244.998292 282.690734 247.963352 
C 285.655795 250.928413 289.677845 252.594401 293.871074 252.594401 
z
" clip-path="url(#pce926a7af6)" style="fill: #ffff00; stroke: #000000"/>
    <path d="M 166.928926 252.594401 
C 171.122155 252.594401 175.144205 250.928413 178.109266 247.963352 
C 181.074326 244.998292 182.740314 240.976242 182.740314 236.783013 
C 182.740314 232.589783 181.074326 228.567734 178.109266 225.602673 
C 175.144205 222.637612 171.122155 220.971624 166.928926 220.971624 
C 162.735696 220.971624 158.713647 222.637612 155.748586 225.602673 
C 152.783525 228.567734 151.117537 232.589783 151.117537 236.783013 
C 151.117537 240.976242 152.783525 244.998292 155.748586 247.963352 
C 158.713647 250.928413 162.735696 252.594401 166.928926 252.594401 
z
" clip-path="url(#pce926a7af6)" style="fill: #ffff00; stroke: #000000"/>
    <path d="M 420.813223 156.275887 
C 425.006452 156.275887 429.028502 154.6099 431.993563 151.644839 
C 434.958624 148.679778 436.624611 144.657728 436.624611 140.464499 
C 436.624611 136.27127 434.958624 132.24922 431.993563 129.284159 
C 429.028502 126.319098 425.006452 124.653111 420.813223 124.653111 
C 416.619994 124.653111 412.597944 126.319098 409.632883 129.284159 
C 406.667822 132.24922 405.001835 136.27127 405.001835 140.464499 
C 405.001835 144.657728 406.667822 148.679778 409.632883 151.644839 
C 412.597944 154.6099 416.619994 156.275887 420.813223 156.275887 
z
" clip-path="url(#pce926a7af6)" style="fill: #0000ff; stroke: #000000"/>
    <path d="M 293.871074 156.275887 
C 298.064304 156.275887 302.086353 154.6099 305.051414 151.644839 
C 308.016475 148.679778 309.682463 144.657728 309.682463 140.464499 
C 309.682463 136.27127 308.016475 132.24922 305.051414 129.284159 
C 302.086353 126.319098 298.064304 124.653111 293.871074 124.653111 
C 289.677845 124.653111 285.655795 126.319098 282.690734 129.284159 
C 279.725674 132.24922 278.059686 136.27127 278.059686 140.464499 
C 278.059686 144.657728 279.725674 148.679778 282.690734 151.644839 
C 285.655795 154.6099 289.677845 156.275887 293.871074 156.275887 
z
" clip-path="url(#pce926a7af6)" style="fill: #0000ff; stroke: #000000"/>
    <path d="M 166.928926 156.275887 
C 171.122155 156.275887 175.144205 154.6099 178.109266 151.644839 
C 181.074326 148.679778 182.740314 144.657728 182.740314 140.464499 
C 182.740314 136.27127 181.074326 132.24922 178.109266 129.284159 
C 175.144205 126.319098 171.122155 124.653111 166.928926 124.653111 
C 162.735696 124.653111 158.713647 126.319098 155.748586 129.284159 
C 152.783525 132.24922 151.117537 136.27127 151.117537 140.464499 
C 151.117537 144.657728 152.783525 148.679778 155.748586 151.644839 
C 158.713647 154.6099 162.735696 156.275887 166.928926 156.275887 
z
" clip-path="url(#pce926a7af6)" style="fill: #0000ff; stroke: #000000"/>
    <path d="M 39.986777 156.275887 
C 44.180006 156.275887 48.202056 154.6099 51.167117 151.644839 
C 54.132178 148.679778 55.798165 144.657728 55.798165 140.464499 
C 55.798165 136.27127 54.132178 132.24922 51.167117 129.284159 
C 48.202056 126.319098 44.180006 124.653111 39.986777 124.653111 
C 35.793548 124.653111 31.771498 126.319098 28.806437 129.284159 
C 25.841376 132.24922 24.175389 136.27127 24.175389 140.464499 
C 24.175389 144.657728 25.841376 148.679778 28.806437 151.644839 
C 31.771498 154.6099 35.793548 156.275887 39.986777 156.275887 
z
" clip-path="url(#pce926a7af6)" style="fill: #0000ff; stroke: #000000"/>
   </g>
   <g id="PathCollection_4">
    <path d="M 312.005667 291.580466 
C 316.198896 291.580466 320.220946 289.914478 323.186007 286.949418 
C 326.151068 283.984357 327.817055 279.962307 327.817055 275.769078 
C 327.817055 271.575848 326.151068 267.553799 323.186007 264.588738 
C 320.220946 261.623677 316.198896 259.957689 312.005667 259.957689 
C 307.812438 259.957689 303.790388 261.623677 300.825327 264.588738 
C 297.860266 267.553799 296.194279 271.575848 296.194279 275.769078 
C 296.194279 279.962307 297.860266 283.984357 300.825327 286.949418 
C 303.790388 289.914478 307.812438 291.580466 312.005667 291.580466 
z
" clip-path="url(#pce926a7af6)" style="fill: #ffff00; stroke: #000000"/>
    <path d="M 148.794333 291.580466 
C 152.987562 291.580466 157.009612 289.914478 159.974673 286.949418 
C 162.939734 283.984357 164.605721 279.962307 164.605721 275.769078 
C 164.605721 271.575848 162.939734 267.553799 159.974673 264.588738 
C 157.009612 261.623677 152.987562 259.957689 148.794333 259.957689 
C 144.601104 259.957689 140.579054 261.623677 137.613993 264.588738 
C 134.648932 267.553799 132.982945 271.575848 132.982945 275.769078 
C 132.982945 279.962307 134.648932 283.984357 137.613993 286.949418 
C 140.579054 289.914478 144.601104 291.580466 148.794333 291.580466 
z
" clip-path="url(#pce926a7af6)" style="fill: #ffff00; stroke: #000000"/>
    <path d="M 393.611334 167.742377 
C 397.804563 167.742377 401.826613 166.076389 404.791674 163.111329 
C 407.756735 160.146268 409.422722 156.124218 409.422722 151.930989 
C 409.422722 147.73776 407.756735 143.71571 404.791674 140.750649 
C 401.826613 137.785588 397.804563 136.1196 393.611334 136.1196 
C 389.418105 136.1196 385.396055 137.785588 382.430994 140.750649 
C 379.465933 143.71571 377.799946 147.73776 377.799946 151.930989 
C 377.799946 156.124218 379.465933 160.146268 382.430994 163.111329 
C 385.396055 166.076389 389.418105 167.742377 393.611334 167.742377 
z
" clip-path="url(#pce926a7af6)" style="fill: #0000ff; stroke: #000000"/>
    <path d="M 230.4 167.742377 
C 234.593229 167.742377 238.615279 166.076389 241.58034 163.111329 
C 244.545401 160.146268 246.211388 156.124218 246.211388 151.930989 
C 246.211388 147.73776 244.545401 143.71571 241.58034 140.750649 
C 238.615279 137.785588 234.593229 136.1196 230.4 136.1196 
C 226.206771 136.1196 222.184721 137.785588 219.21966 140.750649 
C 216.254599 143.71571 214.588612 147.73776 214.588612 151.930989 
C 214.588612 156.124218 216.254599 160.146268 219.21966 163.111329 
C 222.184721 166.076389 226.206771 167.742377 230.4 167.742377 
z
" clip-path="url(#pce926a7af6)" style="fill: #0000ff; stroke: #000000"/>
    <path d="M 67.188666 167.742377 
C 71.381895 167.742377 75.403945 166.076389 78.369006 163.111329 
C 81.334067 160.146268 83.000054 156.124218 83.000054 151.930989 
C 83.000054 147.73776 81.334067 143.71571 78.369006 140.750649 
C 75.403945 137.785588 71.381895 136.1196 67.188666 136.1196 
C 62.995437 136.1196 58.973387 137.785588 56.008326 140.750649 
C 53.043265 143.71571 51.377278 147.73776 51.377278 151.930989 
C 51.377278 156.124218 53.043265 160.146268 56.008326 163.111329 
C 58.973387 166.076389 62.995437 167.742377 67.188666 167.742377 
z
" clip-path="url(#pce926a7af6)" style="fill: #0000ff; stroke: #000000"/>
    <path d="M 230.4 43.904288 
C 234.593229 43.904288 238.615279 42.2383 241.58034 39.27324 
C 244.545401 36.308179 246.211388 32.286129 246.211388 28.0929 
C 246.211388 23.899671 244.545401 19.877621 241.58034 16.91256 
C 238.615279 13.947499 234.593229 12.281512 230.4 12.281512 
C 226.206771 12.281512 222.184721 13.947499 219.21966 16.91256 
C 216.254599 19.877621 214.588612 23.899671 214.588612 28.0929 
C 214.588612 32.286129 216.254599 36.308179 219.21966 39.27324 
C 222.184721 42.2383 226.206771 43.904288 230.4 43.904288 
z
" clip-path="url(#pce926a7af6)" style="fill: #0000ff; stroke: #000000"/>
   </g>
   <g id="PathCollection_5">
    <path d="M 312.005667 291.580466 
C 316.198896 291.580466 320.220946 289.914478 323.186007 286.949418 
C 326.151068 283.984357 327.817055 279.962307 327.817055 275.769078 
C 327.817055 271.575848 326.151068 267.553799 323.186007 264.588738 
C 320.220946 261.623677 316.198896 259.957689 312.005667 259.957689 
C 307.812438 259.957689 303.790388 261.623677 300.825327 264.588738 
C 297.860266 267.553799 296.194279 271.575848 296.194279 275.769078 
C 296.194279 279.962307 297.860266 283.984357 300.825327 286.949418 
C 303.790388 289.914478 307.812438 291.580466 312.005667 291.580466 
z
" clip-path="url(#pce926a7af6)" style="fill: #ffff00; stroke: #000000"/>
    <path d="M 148.794333 291.580466 
C 152.987562 291.580466 157.009612 289.914478 159.974673 286.949418 
C 162.939734 283.984357 164.605721 279.962307 164.605721 275.769078 
C 164.605721 271.575848 162.939734 267.553799 159.974673 264.588738 
C 157.009612 261.623677 152.987562 259.957689 148.794333 259.957689 
C 144.601104 259.957689 140.579054 261.623677 137.613993 264.588738 
C 134.648932 267.553799 132.982945 271.575848 132.982945 275.769078 
C 132.982945 279.962307 134.648932 283.984357 137.613993 286.949418 
C 140.579054 289.914478 144.601104 291.580466 148.794333 291.580466 
z
" clip-path="url(#pce926a7af6)" style="fill: #ffff00; stroke: #000000"/>
    <path d="M 393.611334 167.742377 
C 397.804563 167.742377 401.826613 166.076389 404.791674 163.111329 
C 407.756735 160.146268 409.422722 156.124218 409.422722 151.930989 
C 409.422722 147.73776 407.756735 143.71571 404.791674 140.750649 
C 401.826613 137.785588 397.804563 136.1196 393.611334 136.1196 
C 389.418105 136.1196 385.396055 137.785588 382.430994 140.750649 
C 379.465933 143.71571 377.799946 147.73776 377.799946 151.930989 
C 377.799946 156.124218 379.465933 160.146268 382.430994 163.111329 
C 385.396055 166.076389 389.418105 167.742377 393.611334 167.742377 
z
" clip-path="url(#pce926a7af6)" style="fill: #0000ff; stroke: #000000"/>
    <path d="M 230.4 167.742377 
C 234.593229 167.742377 238.615279 166.076389 241.58034 163.111329 
C 244.545401 160.146268 246.211388 156.124218 246.211388 151.930989 
C 246.211388 147.73776 244.545401 143.71571 241.58034 140.750649 
C 238.615279 137.785588 234.593229 136.1196 230.4 136.1196 
C 226.206771 136.1196 222.184721 137.785588 219.21966 140.750649 
C 216.254599 143.71571 214.588612 147.73776 214.588612 151.930989 
C 214.588612 156.124218 216.254599 160.146268 219.21966 163.111329 
C 222.184721 166.076389 226.206771 167.742377 230.4 167.742377 
z
" clip-path="url(#pce926a7af6)" style="fill: #0000ff; stroke: #000000"/>
    <path d="M 67.188666 167.742377 
C 71.381895 167.742377 75.403945 166.076389 78.369006 163.111329 
C 81.334067 160.146268 83.000054 156.124218 83.000054 151.930989 
C 83.000054 147.73776 81.334067 143.71571 78.369006 140.750649 
C 75.403945 137.785588 71.381895 136.1196 67.188666 136.1196 
C 62.995437 136.1196 58.973387 137.785588 56.008326 140.750649 
C 53.043265 143.71571 51.377278 147.73776 51.377278 151.930989 
C 51.377278 156.124218 53.043265 160.146268 56.008326 163.111329 
C 58.973387 166.076389 62.995437 167.742377 67.188666 167.742377 
z
" clip-path="url(#pce926a7af6)" style="fill: #0000ff; stroke: #000000"/>
    <path d="M 230.4 43.904288 
C 234.593229 43.904288 238.615279 42.2383 241.58034 39.27324 
C 244.545401 36.308179 246.211388 32.286129 246.211388 28.0929 
C 246.211388 23.899671 244.545401 19.877621 241.58034 16.91256 
C 238.615279 13.947499 234.593229 12.281512 230.4 12.281512 
C 226.206771 12.281512 222.184721 13.947499 219.21966 16.91256 
C 216.254599 19.877621 214.588612 23.899671 214.588612 28.0929 
C 214.588612 32.286129 216.254599 36.308179 219.21966 39.27324 
C 222.184721 42.2383 226.206771 43.904288 230.4 43.904288 
z
" clip-path="url(#pce926a7af6)" style="fill: #0000ff; stroke: #000000"/>
   </g>
   <g id="text_1">
    <g clip-path="url(#pce926a7af6)">
     <!-- 0 -->
     <g transform="translate(310.096917 277.424703) scale(0.06 -0.06)">
      <defs>
       <path id="DejaVuSans-30" d="M 2034 4250 
Q 1547 4250 1301 3770 
Q 1056 3291 1056 2328 
Q 1056 1369 1301 889 
Q 1547 409 2034 409 
Q 2525 409 2770 889 
Q 3016 1369 3016 2328 
Q 3016 3291 2770 3770 
Q 2525 4250 2034 4250 
z
M 2034 4750 
Q 2819 4750 3233 4129 
Q 3647 3509 3647 2328 
Q 3647 1150 3233 529 
Q 2819 -91 2034 -91 
Q 1250 -91 836 529 
Q 422 1150 422 2328 
Q 422 3509 836 4129 
Q 1250 4750 2034 4750 
z
" transform="scale(0.015625)"/>
      </defs>
      <use xlink:href="#DejaVuSans-30"/>
     </g>
    </g>
   </g>
   <g id="text_2">
    <g clip-path="url(#pce926a7af6)">
     <!-- 1 -->
     <g transform="translate(146.885583 277.424703) scale(0.06 -0.06)">
      <defs>
       <path id="DejaVuSans-31" d="M 794 531 
L 1825 531 
L 1825 4091 
L 703 3866 
L 703 4441 
L 1819 4666 
L 2450 4666 
L 2450 531 
L 3481 531 
L 3481 0 
L 794 0 
L 794 531 
z
" transform="scale(0.015625)"/>
      </defs>
      <use xlink:href="#DejaVuSans-31"/>
     </g>
    </g>
   </g>
   <g id="text_3">
    <g clip-path="url(#pce926a7af6)">
     <!-- 2 -->
     <g transform="translate(391.702584 153.586614) scale(0.06 -0.06)">
      <defs>
       <path id="DejaVuSans-32" d="M 1228 531 
L 3431 531 
L 3431 0 
L 469 0 
L 469 531 
Q 828 903 1448 1529 
Q 2069 2156 2228 2338 
Q 2531 2678 2651 2914 
Q 2772 3150 2772 3378 
Q 2772 3750 2511 3984 
Q 2250 4219 1831 4219 
Q 1534 4219 1204 4116 
Q 875 4013 500 3803 
L 500 4441 
Q 881 4594 1212 4672 
Q 1544 4750 1819 4750 
Q 2544 4750 2975 4387 
Q 3406 4025 3406 3419 
Q 3406 3131 3298 2873 
Q 3191 2616 2906 2266 
Q 2828 2175 2409 1742 
Q 1991 1309 1228 531 
z
" transform="scale(0.015625)"/>
      </defs>
      <use xlink:href="#DejaVuSans-32"/>
     </g>
    </g>
   </g>
   <g id="text_4">
    <g clip-path="url(#pce926a7af6)">
     <!-- 3 -->
     <g transform="translate(228.49125 153.586614) scale(0.06 -0.06)">
      <defs>
       <path id="DejaVuSans-33" d="M 2597 2516 
Q 3050 2419 3304 2112 
Q 3559 1806 3559 1356 
Q 3559 666 3084 287 
Q 2609 -91 1734 -91 
Q 1441 -91 1130 -33 
Q 819 25 488 141 
L 488 750 
Q 750 597 1062 519 
Q 1375 441 1716 441 
Q 2309 441 2620 675 
Q 2931 909 2931 1356 
Q 2931 1769 2642 2001 
Q 2353 2234 1838 2234 
L 1294 2234 
L 1294 2753 
L 1863 2753 
Q 2328 2753 2575 2939 
Q 2822 3125 2822 3475 
Q 2822 3834 2567 4026 
Q 2313 4219 1838 4219 
Q 1578 4219 1281 4162 
Q 984 4106 628 3988 
L 628 4550 
Q 988 4650 1302 4700 
Q 1616 4750 1894 4750 
Q 2613 4750 3031 4423 
Q 3450 4097 3450 3541 
Q 3450 3153 3228 2886 
Q 3006 2619 2597 2516 
z
" transform="scale(0.015625)"/>
      </defs>
      <use xlink:href="#DejaVuSans-33"/>
     </g>
    </g>
   </g>
   <g id="text_5">
    <g clip-path="url(#pce926a7af6)">
     <!-- 4 -->
     <g transform="translate(65.279916 153.586614) scale(0.06 -0.06)">
      <defs>
       <path id="DejaVuSans-34" d="M 2419 4116 
L 825 1625 
L 2419 1625 
L 2419 4116 
z
M 2253 4666 
L 3047 4666 
L 3047 1625 
L 3713 1625 
L 3713 1100 
L 3047 1100 
L 3047 0 
L 2419 0 
L 2419 1100 
L 313 1100 
L 313 1709 
L 2253 4666 
z
" transform="scale(0.015625)"/>
      </defs>
      <use xlink:href="#DejaVuSans-34"/>
     </g>
    </g>
   </g>
   <g id="text_6">
    <g clip-path="url(#pce926a7af6)">
     <!-- 5 -->
     <g transform="translate(228.49125 29.748525) scale(0.06 -0.06)">
      <defs>
       <path id="DejaVuSans-35" d="M 691 4666 
L 3169 4666 
L 3169 4134 
L 1269 4134 
L 1269 2991 
Q 1406 3038 1543 3061 
Q 1681 3084 1819 3084 
Q 2600 3084 3056 2656 
Q 3513 2228 3513 1497 
Q 3513 744 3044 326 
Q 2575 -91 1722 -91 
Q 1428 -91 1123 -41 
Q 819 9 494 109 
L 494 744 
Q 775 591 1075 516 
Q 1375 441 1709 441 
Q 2250 441 2565 725 
Q 2881 1009 2881 1497 
Q 2881 1984 2565 2268 
Q 2250 2553 1709 2553 
Q 1456 2553 1204 2497 
Q 953 2441 691 2322 
L 691 4666 
z
" transform="scale(0.015625)"/>
      </defs>
      <use xlink:href="#DejaVuSans-35"/>
     </g>
    </g>
   </g>
   <g id="text_7">
    <g clip-path="url(#pce926a7af6)">
     <!-- 0 -->
     <g transform="translate(313.119349 318.704066) scale(0.06 -0.06)">
      <use xlink:href="#DejaVuSans-30"/>
     </g>
    </g>
   </g>
   <g id="text_8">
    <g clip-path="url(#pce926a7af6)">
     <!-- 1 -->
     <g transform="translate(143.863151 318.704066) scale(0.06 -0.06)">
      <use xlink:href="#DejaVuSans-31"/>
     </g>
    </g>
   </g>
   <g id="text_9">
    <g clip-path="url(#pce926a7af6)">
     <!-- 5 -->
     <g transform="translate(397.747448 190.279381) scale(0.06 -0.06)">
      <use xlink:href="#DejaVuSans-35"/>
     </g>
    </g>
   </g>
   <g id="text_10">
    <g clip-path="url(#pce926a7af6)">
     <!-- 6 -->
     <g transform="translate(228.49125 186.920037) scale(0.06 -0.06)">
      <defs>
       <path id="DejaVuSans-36" d="M 2113 2584 
Q 1688 2584 1439 2293 
Q 1191 2003 1191 1497 
Q 1191 994 1439 701 
Q 1688 409 2113 409 
Q 2538 409 2786 701 
Q 3034 994 3034 1497 
Q 3034 2003 2786 2293 
Q 2538 2584 2113 2584 
z
M 3366 4563 
L 3366 3988 
Q 3128 4100 2886 4159 
Q 2644 4219 2406 4219 
Q 1781 4219 1451 3797 
Q 1122 3375 1075 2522 
Q 1259 2794 1537 2939 
Q 1816 3084 2150 3084 
Q 2853 3084 3261 2657 
Q 3669 2231 3669 1497 
Q 3669 778 3244 343 
Q 2819 -91 2113 -91 
Q 1303 -91 875 529 
Q 447 1150 447 2328 
Q 447 3434 972 4092 
Q 1497 4750 2381 4750 
Q 2619 4750 2861 4703 
Q 3103 4656 3366 4563 
z
" transform="scale(0.015625)"/>
      </defs>
      <use xlink:href="#DejaVuSans-36"/>
     </g>
    </g>
    <g clip-path="url(#pce926a7af6)">
     <!-- SIGM -->
     <g transform="translate(222.6975 193.638725) scale(0.06 -0.06)">
      <defs>
       <path id="DejaVuSans-53" d="M 3425 4513 
L 3425 3897 
Q 3066 4069 2747 4153 
Q 2428 4238 2131 4238 
Q 1616 4238 1336 4038 
Q 1056 3838 1056 3469 
Q 1056 3159 1242 3001 
Q 1428 2844 1947 2747 
L 2328 2669 
Q 3034 2534 3370 2195 
Q 3706 1856 3706 1288 
Q 3706 609 3251 259 
Q 2797 -91 1919 -91 
Q 1588 -91 1214 -16 
Q 841 59 441 206 
L 441 856 
Q 825 641 1194 531 
Q 1563 422 1919 422 
Q 2459 422 2753 634 
Q 3047 847 3047 1241 
Q 3047 1584 2836 1778 
Q 2625 1972 2144 2069 
L 1759 2144 
Q 1053 2284 737 2584 
Q 422 2884 422 3419 
Q 422 4038 858 4394 
Q 1294 4750 2059 4750 
Q 2388 4750 2728 4690 
Q 3069 4631 3425 4513 
z
" transform="scale(0.015625)"/>
       <path id="DejaVuSans-49" d="M 628 4666 
L 1259 4666 
L 1259 0 
L 628 0 
L 628 4666 
z
" transform="scale(0.015625)"/>
       <path id="DejaVuSans-47" d="M 3809 666 
L 3809 1919 
L 2778 1919 
L 2778 2438 
L 4434 2438 
L 4434 434 
Q 4069 175 3628 42 
Q 3188 -91 2688 -91 
Q 1594 -91 976 548 
Q 359 1188 359 2328 
Q 359 3472 976 4111 
Q 1594 4750 2688 4750 
Q 3144 4750 3555 4637 
Q 3966 4525 4313 4306 
L 4313 3634 
Q 3963 3931 3569 4081 
Q 3175 4231 2741 4231 
Q 1884 4231 1454 3753 
Q 1025 3275 1025 2328 
Q 1025 1384 1454 906 
Q 1884 428 2741 428 
Q 3075 428 3337 486 
Q 3600 544 3809 666 
z
" transform="scale(0.015625)"/>
       <path id="DejaVuSans-4d" d="M 628 4666 
L 1569 4666 
L 2759 1491 
L 3956 4666 
L 4897 4666 
L 4897 0 
L 4281 0 
L 4281 4097 
L 3078 897 
L 2444 897 
L 1241 4097 
L 1241 0 
L 628 0 
L 628 4666 
z
" transform="scale(0.015625)"/>
      </defs>
      <use xlink:href="#DejaVuSans-53"/>
      <use xlink:href="#DejaVuSans-49" x="63.476562"/>
      <use xlink:href="#DejaVuSans-47" x="92.96875"/>
      <use xlink:href="#DejaVuSans-4d" x="170.458984"/>
     </g>
    </g>
   </g>
   <g id="text_11">
    <g clip-path="url(#pce926a7af6)">
     <!-- 7 -->
     <g transform="translate(59.235052 186.920037) scale(0.06 -0.06)">
      <defs>
       <path id="DejaVuSans-37" d="M 525 4666 
L 3525 4666 
L 3525 4397 
L 1831 0 
L 1172 0 
L 2766 4134 
L 525 4134 
L 525 4666 
z
" transform="scale(0.015625)"/>
      </defs>
      <use xlink:href="#DejaVuSans-37"/>
     </g>
    </g>
    <g clip-path="url(#pce926a7af6)">
     <!-- TANH -->
     <g transform="translate(52.991302 193.638725) scale(0.06 -0.06)">
      <defs>
       <path id="DejaVuSans-54" d="M -19 4666 
L 3928 4666 
L 3928 4134 
L 2272 4134 
L 2272 0 
L 1638 0 
L 1638 4134 
L -19 4134 
L -19 4666 
z
" transform="scale(0.015625)"/>
       <path id="DejaVuSans-41" d="M 2188 4044 
L 1331 1722 
L 3047 1722 
L 2188 4044 
z
M 1831 4666 
L 2547 4666 
L 4325 0 
L 3669 0 
L 3244 1197 
L 1141 1197 
L 716 0 
L 50 0 
L 1831 4666 
z
" transform="scale(0.015625)"/>
       <path id="DejaVuSans-4e" d="M 628 4666 
L 1478 4666 
L 3547 763 
L 3547 4666 
L 4159 4666 
L 4159 0 
L 3309 0 
L 1241 3903 
L 1241 0 
L 628 0 
L 628 4666 
z
" transform="scale(0.015625)"/>
       <path id="DejaVuSans-48" d="M 628 4666 
L 1259 4666 
L 1259 2753 
L 3553 2753 
L 3553 4666 
L 4184 4666 
L 4184 0 
L 3553 0 
L 3553 2222 
L 1259 2222 
L 1259 0 
L 628 0 
L 628 4666 
z
" transform="scale(0.015625)"/>
      </defs>
      <use xlink:href="#DejaVuSans-54"/>
      <use xlink:href="#DejaVuSans-41" x="53.333984"/>
      <use xlink:href="#DejaVuSans-4e" x="121.742188"/>
      <use xlink:href="#DejaVuSans-48" x="196.546875"/>
     </g>
    </g>
   </g>
   <g id="text_12">
    <g clip-path="url(#pce926a7af6)">
     <!-- 2 -->
     <g transform="translate(397.747448 61.854696) scale(0.06 -0.06)">
      <use xlink:href="#DejaVuSans-32"/>
     </g>
    </g>
   </g>
   <g id="text_13">
    <g clip-path="url(#pce926a7af6)">
     <!-- 3 -->
     <g transform="translate(228.49125 61.854696) scale(0.06 -0.06)">
      <use xlink:href="#DejaVuSans-33"/>
     </g>
    </g>
   </g>
   <g id="text_14">
    <g clip-path="url(#pce926a7af6)">
     <!-- 4 -->
     <g transform="translate(59.235052 61.854696) scale(0.06 -0.06)">
      <use xlink:href="#DejaVuSans-34"/>
     </g>
    </g>
   </g>
   <g id="text_15">
    <g clip-path="url(#pce926a7af6)">
     <!-- 0 -->
     <g transform="translate(291.962324 238.438638) scale(0.06 -0.06)">
      <use xlink:href="#DejaVuSans-30"/>
     </g>
    </g>
   </g>
   <g id="text_16">
    <g clip-path="url(#pce926a7af6)">
     <!-- 1 -->
     <g transform="translate(165.020176 238.438638) scale(0.06 -0.06)">
      <use xlink:href="#DejaVuSans-31"/>
     </g>
    </g>
   </g>
   <g id="text_17">
    <g clip-path="url(#pce926a7af6)">
     <!-- 2 -->
     <g transform="translate(418.904473 142.120124) scale(0.06 -0.06)">
      <use xlink:href="#DejaVuSans-32"/>
     </g>
    </g>
   </g>
   <g id="text_18">
    <g clip-path="url(#pce926a7af6)">
     <!-- 3 -->
     <g transform="translate(291.962324 142.120124) scale(0.06 -0.06)">
      <use xlink:href="#DejaVuSans-33"/>
     </g>
    </g>
   </g>
   <g id="text_19">
    <g clip-path="url(#pce926a7af6)">
     <!-- 4 -->
     <g transform="translate(165.020176 142.120124) scale(0.06 -0.06)">
      <use xlink:href="#DejaVuSans-34"/>
     </g>
    </g>
   </g>
   <g id="text_20">
    <g clip-path="url(#pce926a7af6)">
     <!-- 5 -->
     <g transform="translate(38.078027 142.120124) scale(0.06 -0.06)">
      <use xlink:href="#DejaVuSans-35"/>
     </g>
    </g>
   </g>
   <g id="text_21">
    <g clip-path="url(#pce926a7af6)">
     <!-- 0 -->
     <g transform="translate(310.096917 277.424703) scale(0.06 -0.06)">
      <use xlink:href="#DejaVuSans-30"/>
     </g>
    </g>
   </g>
   <g id="text_22">
    <g clip-path="url(#pce926a7af6)">
     <!-- 1 -->
     <g transform="translate(146.885583 277.424703) scale(0.06 -0.06)">
      <use xlink:href="#DejaVuSans-31"/>
     </g>
    </g>
   </g>
   <g id="text_23">
    <g clip-path="url(#pce926a7af6)">
     <!-- 2 -->
     <g transform="translate(391.702584 153.586614) scale(0.06 -0.06)">
      <use xlink:href="#DejaVuSans-32"/>
     </g>
    </g>
   </g>
   <g id="text_24">
    <g clip-path="url(#pce926a7af6)">
     <!-- 4 -->
     <g transform="translate(228.49125 153.586614) scale(0.06 -0.06)">
      <use xlink:href="#DejaVuSans-34"/>
     </g>
    </g>
   </g>
   <g id="text_25">
    <g clip-path="url(#pce926a7af6)">
     <!-- 5 -->
     <g transform="translate(65.279916 153.586614) scale(0.06 -0.06)">
      <use xlink:href="#DejaVuSans-35"/>
     </g>
    </g>
   </g>
   <g id="text_26">
    <g clip-path="url(#pce926a7af6)">
     <!-- 3 -->
     <g transform="translate(228.49125 29.748525) scale(0.06 -0.06)">
      <use xlink:href="#DejaVuSans-33"/>
     </g>
    </g>
   </g>
   <g id="text_27">
    <g clip-path="url(#pce926a7af6)">
     <!-- 0 -->
     <g transform="translate(310.096917 277.424703) scale(0.06 -0.06)">
      <use xlink:href="#DejaVuSans-30"/>
     </g>
    </g>
   </g>
   <g id="text_28">
    <g clip-path="url(#pce926a7af6)">
     <!-- 1 -->
     <g transform="translate(146.885583 277.424703) scale(0.06 -0.06)">
      <use xlink:href="#DejaVuSans-31"/>
     </g>
    </g>
   </g>
   <g id="text_29">
    <g clip-path="url(#pce926a7af6)">
     <!-- 2 -->
     <g transform="translate(391.702584 153.586614) scale(0.06 -0.06)">
      <use xlink:href="#DejaVuSans-32"/>
     </g>
    </g>
   </g>
   <g id="text_30">
    <g clip-path="url(#pce926a7af6)">
     <!-- 4 -->
     <g transform="translate(228.49125 153.586614) scale(0.06 -0.06)">
      <use xlink:href="#DejaVuSans-34"/>
     </g>
    </g>
   </g>
   <g id="text_31">
    <g clip-path="url(#pce926a7af6)">
     <!-- 5 -->
     <g transform="translate(65.279916 153.586614) scale(0.06 -0.06)">
      <use xlink:href="#DejaVuSans-35"/>
     </g>
    </g>
   </g>
   <g id="text_32">
    <g clip-path="url(#pce926a7af6)">
     <!-- 3 -->
     <g transform="translate(228.49125 29.748525) scale(0.06 -0.06)">
      <use xlink:href="#DejaVuSans-33"/>
     </g>
    </g>
   </g>
  </g>
 </g>
 <defs>
  <clipPath id="pce926a7af6">
   <rect x="0" y="0" width="460.8" height="345.6"/>
  </clipPath>
 </defs>
</svg>
