<?xml version="1.0" encoding="utf-8" standalone="no"?>
<!DOCTYPE svg PUBLIC "-//W3C//DTD SVG 1.1//EN"
  "http://www.w3.org/Graphics/SVG/1.1/DTD/svg11.dtd">
<svg xmlns:xlink="http://www.w3.org/1999/xlink" width="460.8pt" height="345.6pt" viewBox="0 0 460.8 345.6" xmlns="http://www.w3.org/2000/svg" version="1.1">
 <metadata>
  <rdf:RDF xmlns:dc="http://purl.org/dc/elements/1.1/" xmlns:cc="http://creativecommons.org/ns#" xmlns:rdf="http://www.w3.org/1999/02/22-rdf-syntax-ns#">
   <cc:Work>
    <dc:type rdf:resource="http://purl.org/dc/dcmitype/StillImage"/>
    <dc:date>2024-10-31T18:09:25.290704</dc:date>
    <dc:format>image/svg+xml</dc:format>
    <dc:creator>
     <cc:Agent>
      <dc:title>Matplotlib v3.9.2, https://matplotlib.org/</dc:title>
     </cc:Agent>
    </dc:creator>
   </cc:Work>
  </rdf:RDF>
 </metadata>
 <defs>
  <style type="text/css">*{stroke-linejoin: round; stroke-linecap: butt}</style>
 </defs>
 <g id="figure_1">
  <g id="patch_1">
   <path d="M 0 345.6 
L 460.8 345.6 
L 460.8 0 
L 0 0 
z
" style="fill: #ffffff"/>
  </g>
  <g id="axes_1">
   <g id="patch_2">
    <path d="M 46.088955 310.394226 
Q 133.334562 279.907835 219.524717 249.790252 
" clip-path="url(#p5020240dc7)" style="fill: none; stroke: #4c4c4c; stroke-linecap: round"/>
    <path d="M 218.193963 249.619684 
L 219.524717 249.790252 
L 218.58981 250.752515 
" clip-path="url(#p5020240dc7)" style="fill: none; stroke: #4c4c4c; stroke-linecap: round"/>
   </g>
   <g id="patch_3">
    <path d="M 42.079116 304.16634 
Q 133.338033 208.500032 223.825236 113.642709 
" clip-path="url(#p5020240dc7)" style="fill: none; stroke: #4c4c4c; stroke-linecap: round"/>
    <path d="M 222.562798 114.096857 
L 223.825236 113.642709 
L 223.431092 114.925148 
" clip-path="url(#p5020240dc7)" style="fill: none; stroke: #4c4c4c; stroke-linecap: round"/>
   </g>
   <g id="patch_4">
    <path d="M 235.508647 228.397721 
Q 235.508647 208.503822 235.508647 189.727957 
" clip-path="url(#p5020240dc7)" style="fill: none; stroke: #4c4c4c; stroke-linecap: round"/>
    <path d="M 234.908647 190.927957 
L 235.508647 189.727957 
L 236.108647 190.927957 
" clip-path="url(#p5020240dc7)" style="fill: none; stroke: #4c4c4c; stroke-linecap: round"/>
   </g>
   <g id="patch_5">
    <path d="M 235.508647 156.992762 
Q 235.508647 137.098863 235.508647 118.322998 
" clip-path="url(#p5020240dc7)" style="fill: none; stroke: #4c4c4c; stroke-linecap: round"/>
    <path d="M 234.908647 119.522998 
L 235.508647 118.322998 
L 236.108647 119.522998 
" clip-path="url(#p5020240dc7)" style="fill: none; stroke: #4c4c4c; stroke-linecap: round"/>
   </g>
   <g id="patch_6">
    <path d="M 235.508647 85.587803 
Q 235.508647 65.693905 235.508647 46.91804 
" clip-path="url(#p5020240dc7)" style="fill: none; stroke: #4c4c4c; stroke-linecap: round"/>
    <path d="M 234.908647 48.11804 
L 235.508647 46.91804 
L 236.108647 48.11804 
" clip-path="url(#p5020240dc7)" style="fill: none; stroke: #4c4c4c; stroke-linecap: round"/>
   </g>
   <g id="PathCollection_1">
    <path d="M 439.854545 331.421306 
C 444.047775 331.421306 448.069825 329.755318 451.034885 326.790257 
C 453.999946 323.825196 455.665934 319.803147 455.665934 315.609917 
C 455.665934 311.416688 453.999946 307.394638 451.034885 304.429577 
C 448.069825 301.464517 444.047775 299.798529 439.854545 299.798529 
C 435.661316 299.798529 431.639266 301.464517 428.674206 304.429577 
C 425.709145 307.394638 424.043157 311.416688 424.043157 315.609917 
C 424.043157 319.803147 425.709145 323.825196 428.674206 326.790257 
C 431.639266 329.755318 435.661316 331.421306 439.854545 331.421306 
z
" clip-path="url(#p5020240dc7)" style="fill: #ffff00; stroke: #000000"/>
    <path d="M 235.508647 331.421306 
C 239.701877 331.421306 243.723927 329.755318 246.688987 326.790257 
C 249.654048 323.825196 251.320036 319.803147 251.320036 315.609917 
C 251.320036 311.416688 249.654048 307.394638 246.688987 304.429577 
C 243.723927 301.464517 239.701877 299.798529 235.508647 299.798529 
C 231.315418 299.798529 227.293368 301.464517 224.328308 304.429577 
C 221.363247 307.394638 219.697259 311.416688 219.697259 315.609917 
C 219.697259 319.803147 221.363247 323.825196 224.328308 326.790257 
C 227.293368 329.755318 231.315418 331.421306 235.508647 331.421306 
z
" clip-path="url(#p5020240dc7)" style="fill: #ffff00; stroke: #000000"/>
    <path d="M 31.162749 331.421306 
C 35.355979 331.421306 39.378029 329.755318 42.343089 326.790257 
C 45.30815 323.825196 46.974138 319.803147 46.974138 315.609917 
C 46.974138 311.416688 45.30815 307.394638 42.343089 304.429577 
C 39.378029 301.464517 35.355979 299.798529 31.162749 299.798529 
C 26.96952 299.798529 22.94747 301.464517 19.98241 304.429577 
C 17.017349 307.394638 15.351361 311.416688 15.351361 315.609917 
C 15.351361 319.803147 17.017349 323.825196 19.98241 326.790257 
C 22.94747 329.755318 26.96952 331.421306 31.162749 331.421306 
z
" clip-path="url(#p5020240dc7)" style="fill: #ffff00; stroke: #000000"/>
    <path d="M 235.508647 260.016347 
C 239.701877 260.016347 243.723927 258.350359 246.688987 255.385299 
C 249.654048 252.420238 251.320036 248.398188 251.320036 244.204959 
C 251.320036 240.011729 249.654048 235.98968 246.688987 233.024619 
C 243.723927 230.059558 239.701877 228.39357 235.508647 228.39357 
C 231.315418 228.39357 227.293368 230.059558 224.328308 233.024619 
C 221.363247 235.98968 219.697259 240.011729 219.697259 244.204959 
C 219.697259 248.398188 221.363247 252.420238 224.328308 255.385299 
C 227.293368 258.350359 231.315418 260.016347 235.508647 260.016347 
z
" clip-path="url(#p5020240dc7)" style="fill: #ffffff; stroke: #000000"/>
    <path d="M 235.508647 188.611388 
C 239.701877 188.611388 243.723927 186.945401 246.688987 183.98034 
C 249.654048 181.015279 251.320036 176.993229 251.320036 172.8 
C 251.320036 168.606771 249.654048 164.584721 246.688987 161.61966 
C 243.723927 158.654599 239.701877 156.988612 235.508647 156.988612 
C 231.315418 156.988612 227.293368 158.654599 224.328308 161.61966 
C 221.363247 164.584721 219.697259 168.606771 219.697259 172.8 
C 219.697259 176.993229 221.363247 181.015279 224.328308 183.98034 
C 227.293368 186.945401 231.315418 188.611388 235.508647 188.611388 
z
" clip-path="url(#p5020240dc7)" style="fill: #ffffff; stroke: #000000"/>
    <path d="M 235.508647 117.20643 
C 239.701877 117.20643 243.723927 115.540442 246.688987 112.575381 
C 249.654048 109.61032 251.320036 105.588271 251.320036 101.395041 
C 251.320036 97.201812 249.654048 93.179762 246.688987 90.214701 
C 243.723927 87.249641 239.701877 85.583653 235.508647 85.583653 
C 231.315418 85.583653 227.293368 87.249641 224.328308 90.214701 
C 221.363247 93.179762 219.697259 97.201812 219.697259 101.395041 
C 219.697259 105.588271 221.363247 109.61032 224.328308 112.575381 
C 227.293368 115.540442 231.315418 117.20643 235.508647 117.20643 
z
" clip-path="url(#p5020240dc7)" style="fill: #ffffff; stroke: #000000"/>
    <path d="M 235.508647 45.801471 
C 239.701877 45.801471 243.723927 44.135483 246.688987 41.170423 
C 249.654048 38.205362 251.320036 34.183312 251.320036 29.990083 
C 251.320036 25.796853 249.654048 21.774804 246.688987 18.809743 
C 243.723927 15.844682 239.701877 14.178694 235.508647 14.178694 
C 231.315418 14.178694 227.293368 15.844682 224.328308 18.809743 
C 221.363247 21.774804 219.697259 25.796853 219.697259 29.990083 
C 219.697259 34.183312 221.363247 38.205362 224.328308 41.170423 
C 227.293368 44.135483 231.315418 45.801471 235.508647 45.801471 
z
" clip-path="url(#p5020240dc7)" style="fill: #0000ff; stroke: #000000"/>
   </g>
   <g id="text_1">
    <g clip-path="url(#p5020240dc7)">
     <!-- 0 -->
     <g transform="translate(437.945795 313.906199) scale(0.06 -0.06)">
      <defs>
       <path id="DejaVuSans-30" d="M 2034 4250 
Q 1547 4250 1301 3770 
Q 1056 3291 1056 2328 
Q 1056 1369 1301 889 
Q 1547 409 2034 409 
Q 2525 409 2770 889 
Q 3016 1369 3016 2328 
Q 3016 3291 2770 3770 
Q 2525 4250 2034 4250 
z
M 2034 4750 
Q 2819 4750 3233 4129 
Q 3647 3509 3647 2328 
Q 3647 1150 3233 529 
Q 2819 -91 2034 -91 
Q 1250 -91 836 529 
Q 422 1150 422 2328 
Q 422 3509 836 4129 
Q 1250 4750 2034 4750 
z
" transform="scale(0.015625)"/>
      </defs>
      <use xlink:href="#DejaVuSans-30"/>
     </g>
    </g>
    <g clip-path="url(#p5020240dc7)">
     <!-- RELU -->
     <g transform="translate(432.157202 320.624886) scale(0.06 -0.06)">
      <defs>
       <path id="DejaVuSans-52" d="M 2841 2188 
Q 3044 2119 3236 1894 
Q 3428 1669 3622 1275 
L 4263 0 
L 3584 0 
L 2988 1197 
Q 2756 1666 2539 1819 
Q 2322 1972 1947 1972 
L 1259 1972 
L 1259 0 
L 628 0 
L 628 4666 
L 2053 4666 
Q 2853 4666 3247 4331 
Q 3641 3997 3641 3322 
Q 3641 2881 3436 2590 
Q 3231 2300 2841 2188 
z
M 1259 4147 
L 1259 2491 
L 2053 2491 
Q 2509 2491 2742 2702 
Q 2975 2913 2975 3322 
Q 2975 3731 2742 3939 
Q 2509 4147 2053 4147 
L 1259 4147 
z
" transform="scale(0.015625)"/>
       <path id="DejaVuSans-45" d="M 628 4666 
L 3578 4666 
L 3578 4134 
L 1259 4134 
L 1259 2753 
L 3481 2753 
L 3481 2222 
L 1259 2222 
L 1259 531 
L 3634 531 
L 3634 0 
L 628 0 
L 628 4666 
z
" transform="scale(0.015625)"/>
       <path id="DejaVuSans-4c" d="M 628 4666 
L 1259 4666 
L 1259 531 
L 3531 531 
L 3531 0 
L 628 0 
L 628 4666 
z
" transform="scale(0.015625)"/>
       <path id="DejaVuSans-55" d="M 556 4666 
L 1191 4666 
L 1191 1831 
Q 1191 1081 1462 751 
Q 1734 422 2344 422 
Q 2950 422 3222 751 
Q 3494 1081 3494 1831 
L 3494 4666 
L 4128 4666 
L 4128 1753 
Q 4128 841 3676 375 
Q 3225 -91 2344 -91 
Q 1459 -91 1007 375 
Q 556 841 556 1753 
L 556 4666 
z
" transform="scale(0.015625)"/>
      </defs>
      <use xlink:href="#DejaVuSans-52"/>
      <use xlink:href="#DejaVuSans-45" x="69.482422"/>
      <use xlink:href="#DejaVuSans-4c" x="132.666016"/>
      <use xlink:href="#DejaVuSans-55" x="183.378906"/>
     </g>
    </g>
   </g>
   <g id="text_2">
    <g clip-path="url(#p5020240dc7)">
     <!-- 1 -->
     <g transform="translate(233.599897 313.906199) scale(0.06 -0.06)">
      <defs>
       <path id="DejaVuSans-31" d="M 794 531 
L 1825 531 
L 1825 4091 
L 703 3866 
L 703 4441 
L 1819 4666 
L 2450 4666 
L 2450 531 
L 3481 531 
L 3481 0 
L 794 0 
L 794 531 
z
" transform="scale(0.015625)"/>
      </defs>
      <use xlink:href="#DejaVuSans-31"/>
     </g>
    </g>
    <g clip-path="url(#p5020240dc7)">
     <!-- TANH -->
     <g transform="translate(227.356147 320.624886) scale(0.06 -0.06)">
      <defs>
       <path id="DejaVuSans-54" d="M -19 4666 
L 3928 4666 
L 3928 4134 
L 2272 4134 
L 2272 0 
L 1638 0 
L 1638 4134 
L -19 4134 
L -19 4666 
z
" transform="scale(0.015625)"/>
       <path id="DejaVuSans-41" d="M 2188 4044 
L 1331 1722 
L 3047 1722 
L 2188 4044 
z
M 1831 4666 
L 2547 4666 
L 4325 0 
L 3669 0 
L 3244 1197 
L 1141 1197 
L 716 0 
L 50 0 
L 1831 4666 
z
" transform="scale(0.015625)"/>
       <path id="DejaVuSans-4e" d="M 628 4666 
L 1478 4666 
L 3547 763 
L 3547 4666 
L 4159 4666 
L 4159 0 
L 3309 0 
L 1241 3903 
L 1241 0 
L 628 0 
L 628 4666 
z
" transform="scale(0.015625)"/>
       <path id="DejaVuSans-48" d="M 628 4666 
L 1259 4666 
L 1259 2753 
L 3553 2753 
L 3553 4666 
L 4184 4666 
L 4184 0 
L 3553 0 
L 3553 2222 
L 1259 2222 
L 1259 0 
L 628 0 
L 628 4666 
z
" transform="scale(0.015625)"/>
      </defs>
      <use xlink:href="#DejaVuSans-54"/>
      <use xlink:href="#DejaVuSans-41" x="53.333984"/>
      <use xlink:href="#DejaVuSans-4e" x="121.742188"/>
      <use xlink:href="#DejaVuSans-48" x="196.546875"/>
     </g>
    </g>
   </g>
   <g id="text_3">
    <g clip-path="url(#p5020240dc7)">
     <!-- 2 -->
     <g transform="translate(29.253999 313.906199) scale(0.06 -0.06)">
      <defs>
       <path id="DejaVuSans-32" d="M 1228 531 
L 3431 531 
L 3431 0 
L 469 0 
L 469 531 
Q 828 903 1448 1529 
Q 2069 2156 2228 2338 
Q 2531 2678 2651 2914 
Q 2772 3150 2772 3378 
Q 2772 3750 2511 3984 
Q 2250 4219 1831 4219 
Q 1534 4219 1204 4116 
Q 875 4013 500 3803 
L 500 4441 
Q 881 4594 1212 4672 
Q 1544 4750 1819 4750 
Q 2544 4750 2975 4387 
Q 3406 4025 3406 3419 
Q 3406 3131 3298 2873 
Q 3191 2616 2906 2266 
Q 2828 2175 2409 1742 
Q 1991 1309 1228 531 
z
" transform="scale(0.015625)"/>
      </defs>
      <use xlink:href="#DejaVuSans-32"/>
     </g>
    </g>
    <g clip-path="url(#p5020240dc7)">
     <!-- TANH -->
     <g transform="translate(23.010249 320.624886) scale(0.06 -0.06)">
      <use xlink:href="#DejaVuSans-54"/>
      <use xlink:href="#DejaVuSans-41" x="53.333984"/>
      <use xlink:href="#DejaVuSans-4e" x="121.742188"/>
      <use xlink:href="#DejaVuSans-48" x="196.546875"/>
     </g>
    </g>
   </g>
   <g id="text_4">
    <g clip-path="url(#p5020240dc7)">
     <!-- 6 -->
     <g transform="translate(233.599897 242.50124) scale(0.06 -0.06)">
      <defs>
       <path id="DejaVuSans-36" d="M 2113 2584 
Q 1688 2584 1439 2293 
Q 1191 2003 1191 1497 
Q 1191 994 1439 701 
Q 1688 409 2113 409 
Q 2538 409 2786 701 
Q 3034 994 3034 1497 
Q 3034 2003 2786 2293 
Q 2538 2584 2113 2584 
z
M 3366 4563 
L 3366 3988 
Q 3128 4100 2886 4159 
Q 2644 4219 2406 4219 
Q 1781 4219 1451 3797 
Q 1122 3375 1075 2522 
Q 1259 2794 1537 2939 
Q 1816 3084 2150 3084 
Q 2853 3084 3261 2657 
Q 3669 2231 3669 1497 
Q 3669 778 3244 343 
Q 2819 -91 2113 -91 
Q 1303 -91 875 529 
Q 447 1150 447 2328 
Q 447 3434 972 4092 
Q 1497 4750 2381 4750 
Q 2619 4750 2861 4703 
Q 3103 4656 3366 4563 
z
" transform="scale(0.015625)"/>
      </defs>
      <use xlink:href="#DejaVuSans-36"/>
     </g>
    </g>
    <g clip-path="url(#p5020240dc7)">
     <!-- ID -->
     <g transform="translate(232.313647 249.219927) scale(0.06 -0.06)">
      <defs>
       <path id="DejaVuSans-49" d="M 628 4666 
L 1259 4666 
L 1259 0 
L 628 0 
L 628 4666 
z
" transform="scale(0.015625)"/>
       <path id="DejaVuSans-44" d="M 1259 4147 
L 1259 519 
L 2022 519 
Q 2988 519 3436 956 
Q 3884 1394 3884 2338 
Q 3884 3275 3436 3711 
Q 2988 4147 2022 4147 
L 1259 4147 
z
M 628 4666 
L 1925 4666 
Q 3281 4666 3915 4102 
Q 4550 3538 4550 2338 
Q 4550 1131 3912 565 
Q 3275 0 1925 0 
L 628 0 
L 628 4666 
z
" transform="scale(0.015625)"/>
      </defs>
      <use xlink:href="#DejaVuSans-49"/>
      <use xlink:href="#DejaVuSans-44" x="29.492188"/>
     </g>
    </g>
   </g>
   <g id="text_5">
    <g clip-path="url(#p5020240dc7)">
     <!-- 5 -->
     <g transform="translate(233.599897 171.096281) scale(0.06 -0.06)">
      <defs>
       <path id="DejaVuSans-35" d="M 691 4666 
L 3169 4666 
L 3169 4134 
L 1269 4134 
L 1269 2991 
Q 1406 3038 1543 3061 
Q 1681 3084 1819 3084 
Q 2600 3084 3056 2656 
Q 3513 2228 3513 1497 
Q 3513 744 3044 326 
Q 2575 -91 1722 -91 
Q 1428 -91 1123 -41 
Q 819 9 494 109 
L 494 744 
Q 775 591 1075 516 
Q 1375 441 1709 441 
Q 2250 441 2565 725 
Q 2881 1009 2881 1497 
Q 2881 1984 2565 2268 
Q 2250 2553 1709 2553 
Q 1456 2553 1204 2497 
Q 953 2441 691 2322 
L 691 4666 
z
" transform="scale(0.015625)"/>
      </defs>
      <use xlink:href="#DejaVuSans-35"/>
     </g>
    </g>
    <g clip-path="url(#p5020240dc7)">
     <!-- SGMD -->
     <g transform="translate(226.381147 177.814969) scale(0.06 -0.06)">
      <defs>
       <path id="DejaVuSans-53" d="M 3425 4513 
L 3425 3897 
Q 3066 4069 2747 4153 
Q 2428 4238 2131 4238 
Q 1616 4238 1336 4038 
Q 1056 3838 1056 3469 
Q 1056 3159 1242 3001 
Q 1428 2844 1947 2747 
L 2328 2669 
Q 3034 2534 3370 2195 
Q 3706 1856 3706 1288 
Q 3706 609 3251 259 
Q 2797 -91 1919 -91 
Q 1588 -91 1214 -16 
Q 841 59 441 206 
L 441 856 
Q 825 641 1194 531 
Q 1563 422 1919 422 
Q 2459 422 2753 634 
Q 3047 847 3047 1241 
Q 3047 1584 2836 1778 
Q 2625 1972 2144 2069 
L 1759 2144 
Q 1053 2284 737 2584 
Q 422 2884 422 3419 
Q 422 4038 858 4394 
Q 1294 4750 2059 4750 
Q 2388 4750 2728 4690 
Q 3069 4631 3425 4513 
z
" transform="scale(0.015625)"/>
       <path id="DejaVuSans-47" d="M 3809 666 
L 3809 1919 
L 2778 1919 
L 2778 2438 
L 4434 2438 
L 4434 434 
Q 4069 175 3628 42 
Q 3188 -91 2688 -91 
Q 1594 -91 976 548 
Q 359 1188 359 2328 
Q 359 3472 976 4111 
Q 1594 4750 2688 4750 
Q 3144 4750 3555 4637 
Q 3966 4525 4313 4306 
L 4313 3634 
Q 3963 3931 3569 4081 
Q 3175 4231 2741 4231 
Q 1884 4231 1454 3753 
Q 1025 3275 1025 2328 
Q 1025 1384 1454 906 
Q 1884 428 2741 428 
Q 3075 428 3337 486 
Q 3600 544 3809 666 
z
" transform="scale(0.015625)"/>
       <path id="DejaVuSans-4d" d="M 628 4666 
L 1569 4666 
L 2759 1491 
L 3956 4666 
L 4897 4666 
L 4897 0 
L 4281 0 
L 4281 4097 
L 3078 897 
L 2444 897 
L 1241 4097 
L 1241 0 
L 628 0 
L 628 4666 
z
" transform="scale(0.015625)"/>
      </defs>
      <use xlink:href="#DejaVuSans-53"/>
      <use xlink:href="#DejaVuSans-47" x="63.476562"/>
      <use xlink:href="#DejaVuSans-4d" x="140.966797"/>
      <use xlink:href="#DejaVuSans-44" x="227.246094"/>
     </g>
    </g>
   </g>
   <g id="text_6">
    <g clip-path="url(#p5020240dc7)">
     <!-- 4 -->
     <g transform="translate(233.599897 99.691323) scale(0.06 -0.06)">
      <defs>
       <path id="DejaVuSans-34" d="M 2419 4116 
L 825 1625 
L 2419 1625 
L 2419 4116 
z
M 2253 4666 
L 3047 4666 
L 3047 1625 
L 3713 1625 
L 3713 1100 
L 3047 1100 
L 3047 0 
L 2419 0 
L 2419 1100 
L 313 1100 
L 313 1709 
L 2253 4666 
z
" transform="scale(0.015625)"/>
      </defs>
      <use xlink:href="#DejaVuSans-34"/>
     </g>
    </g>
    <g clip-path="url(#p5020240dc7)">
     <!-- SGMD -->
     <g transform="translate(226.381147 106.41001) scale(0.06 -0.06)">
      <use xlink:href="#DejaVuSans-53"/>
      <use xlink:href="#DejaVuSans-47" x="63.476562"/>
      <use xlink:href="#DejaVuSans-4d" x="140.966797"/>
      <use xlink:href="#DejaVuSans-44" x="227.246094"/>
     </g>
    </g>
   </g>
   <g id="text_7">
    <g clip-path="url(#p5020240dc7)">
     <!-- 3 -->
     <g transform="translate(233.599897 28.286364) scale(0.06 -0.06)">
      <defs>
       <path id="DejaVuSans-33" d="M 2597 2516 
Q 3050 2419 3304 2112 
Q 3559 1806 3559 1356 
Q 3559 666 3084 287 
Q 2609 -91 1734 -91 
Q 1441 -91 1130 -33 
Q 819 25 488 141 
L 488 750 
Q 750 597 1062 519 
Q 1375 441 1716 441 
Q 2309 441 2620 675 
Q 2931 909 2931 1356 
Q 2931 1769 2642 2001 
Q 2353 2234 1838 2234 
L 1294 2234 
L 1294 2753 
L 1863 2753 
Q 2328 2753 2575 2939 
Q 2822 3125 2822 3475 
Q 2822 3834 2567 4026 
Q 2313 4219 1838 4219 
Q 1578 4219 1281 4162 
Q 984 4106 628 3988 
L 628 4550 
Q 988 4650 1302 4700 
Q 1616 4750 1894 4750 
Q 2613 4750 3031 4423 
Q 3450 4097 3450 3541 
Q 3450 3153 3228 2886 
Q 3006 2619 2597 2516 
z
" transform="scale(0.015625)"/>
      </defs>
      <use xlink:href="#DejaVuSans-33"/>
     </g>
    </g>
    <g clip-path="url(#p5020240dc7)">
     <!-- RELU -->
     <g transform="translate(227.811304 35.005051) scale(0.06 -0.06)">
      <use xlink:href="#DejaVuSans-52"/>
      <use xlink:href="#DejaVuSans-45" x="69.482422"/>
      <use xlink:href="#DejaVuSans-4c" x="132.666016"/>
      <use xlink:href="#DejaVuSans-55" x="183.378906"/>
     </g>
    </g>
   </g>
  </g>
 </g>
 <defs>
  <clipPath id="p5020240dc7">
   <rect x="0" y="0" width="460.8" height="345.6"/>
  </clipPath>
 </defs>
</svg>
