<?xml version="1.0" encoding="utf-8" standalone="no"?>
<!DOCTYPE svg PUBLIC "-//W3C//DTD SVG 1.1//EN"
  "http://www.w3.org/Graphics/SVG/1.1/DTD/svg11.dtd">
<svg xmlns:xlink="http://www.w3.org/1999/xlink" width="460.8pt" height="345.6pt" viewBox="0 0 460.8 345.6" xmlns="http://www.w3.org/2000/svg" version="1.1">
 <metadata>
  <rdf:RDF xmlns:dc="http://purl.org/dc/elements/1.1/" xmlns:cc="http://creativecommons.org/ns#" xmlns:rdf="http://www.w3.org/1999/02/22-rdf-syntax-ns#">
   <cc:Work>
    <dc:type rdf:resource="http://purl.org/dc/dcmitype/StillImage"/>
    <dc:date>2024-12-05T09:47:58.798169</dc:date>
    <dc:format>image/svg+xml</dc:format>
    <dc:creator>
     <cc:Agent>
      <dc:title>Matplotlib v3.9.2, https://matplotlib.org/</dc:title>
     </cc:Agent>
    </dc:creator>
   </cc:Work>
  </rdf:RDF>
 </metadata>
 <defs>
  <style type="text/css">*{stroke-linejoin: round; stroke-linecap: butt}</style>
 </defs>
 <g id="figure_1">
  <g id="patch_1">
   <path d="M 0 345.6 
L 460.8 345.6 
L 460.8 0 
L 0 0 
z
" style="fill: #ffffff"/>
  </g>
  <g id="axes_1">
   <g id="patch_2">
    <path d="M 336.789786 304.426743 
Q 373.210284 268.006245 408.415572 232.800957 
" clip-path="url(#pdaf95780d0)" style="fill: none; stroke: #0000ff; stroke-width: 1.537133; stroke-linecap: round"/>
    <path d="M 405.02146 233.932327 
L 408.415572 232.800957 
L 407.284202 236.195069 
" clip-path="url(#pdaf95780d0)" style="fill: none; stroke: #0000ff; stroke-width: 1.537133; stroke-linecap: round"/>
   </g>
   <g id="patch_3">
    <path d="M 310.610001 310.611047 
Q 182.799413 268.007518 55.201555 225.474898 
" clip-path="url(#pdaf95780d0)" style="fill: none; stroke: #ff0000; stroke-width: 0.200564; stroke-linecap: round"/>
    <path d="M 57.731377 228.004721 
L 55.201555 225.474898 
L 58.743306 224.968934 
" clip-path="url(#pdaf95780d0)" style="fill: none; stroke: #ff0000; stroke-width: 0.200564; stroke-linecap: round"/>
   </g>
   <g id="patch_4">
    <path d="M 320.607741 300.613307 
Q 278.004212 172.802719 235.823935 46.261889 
" clip-path="url(#pdaf95780d0)" style="fill: none; stroke: #0000ff; stroke-width: 1.19714; stroke-linecap: round"/>
    <path d="M 235.317971 49.80364 
L 235.823935 46.261889 
L 238.353758 48.791711 
" clip-path="url(#pdaf95780d0)" style="fill: none; stroke: #0000ff; stroke-width: 1.19714; stroke-linecap: round"/>
   </g>
   <g id="patch_5">
    <path d="M 150.189999 310.611047 
Q 278.000587 268.007518 405.168962 225.618059 
" clip-path="url(#pdaf95780d0)" style="fill: none; stroke: #ff0000; stroke-width: 0.605485; stroke-linecap: round"/>
    <path d="M 401.627211 225.112095 
L 405.168962 225.618059 
L 402.63914 228.147882 
" clip-path="url(#pdaf95780d0)" style="fill: none; stroke: #ff0000; stroke-width: 0.605485; stroke-linecap: round"/>
   </g>
   <g id="patch_6">
    <path d="M 146.376562 304.426743 
Q 182.797061 268.006245 218.079108 232.724198 
" clip-path="url(#pdaf95780d0)" style="fill: none; stroke: #ff0000; stroke-width: 1.44004; stroke-linecap: round"/>
    <path d="M 214.684995 233.855569 
L 218.079108 232.724198 
L 216.947737 236.118311 
" clip-path="url(#pdaf95780d0)" style="fill: none; stroke: #ff0000; stroke-width: 1.44004; stroke-linecap: round"/>
   </g>
   <g id="patch_7">
    <path d="M 142.263862 301.46897 
Q 182.796991 220.402712 223.23012 139.536455 
" clip-path="url(#pdaf95780d0)" style="fill: none; stroke: #ff0000; stroke-width: 0.2; stroke-linecap: round"/>
    <path d="M 220.367953 141.68308 
L 223.23012 139.536455 
L 223.23012 143.114164 
" clip-path="url(#pdaf95780d0)" style="fill: none; stroke: #ff0000; stroke-width: 0.2; stroke-linecap: round"/>
   </g>
   <g id="patch_8">
    <path d="M 140.192259 300.613307 
Q 182.795788 172.802719 223.943372 49.359968 
" clip-path="url(#pdaf95780d0)" style="fill: none; stroke: #ff0000; stroke-width: 4.118037; stroke-linecap: round"/>
    <path d="M 221.41355 51.88979 
L 223.943372 49.359968 
L 224.449336 52.901719 
" clip-path="url(#pdaf95780d0)" style="fill: none; stroke: #ff0000; stroke-width: 4.118037; stroke-linecap: round"/>
   </g>
   <g id="patch_9">
    <path d="M 51.169951 209.220132 
Q 135.193608 125.196474 218.297696 42.092387 
" clip-path="url(#pdaf95780d0)" style="fill: none; stroke: #0000ff; stroke-width: 1.163174; stroke-linecap: round"/>
    <path d="M 214.903583 43.223757 
L 218.297696 42.092387 
L 217.166325 45.486499 
" clip-path="url(#pdaf95780d0)" style="fill: none; stroke: #0000ff; stroke-width: 1.163174; stroke-linecap: round"/>
   </g>
   <g id="patch_10">
    <path d="M 54.127725 213.332832 
Q 135.193982 172.799703 215.011435 132.890977 
" clip-path="url(#pdaf95780d0)" style="fill: none; stroke: #ff0000; stroke-width: 1.248805; stroke-linecap: round"/>
    <path d="M 211.433726 132.890977 
L 215.011435 132.890977 
L 212.86481 135.753144 
" clip-path="url(#pdaf95780d0)" style="fill: none; stroke: #ff0000; stroke-width: 1.248805; stroke-linecap: round"/>
   </g>
   <g id="patch_11">
    <path d="M 230.4 109.388004 
Q 230.4 77.595397 230.4 46.026398 
" clip-path="url(#pdaf95780d0)" style="fill: none; stroke: #0000ff; stroke-width: 0.2; stroke-linecap: round"/>
    <path d="M 228.8 49.226398 
L 230.4 46.026398 
L 232 49.226398 
" clip-path="url(#pdaf95780d0)" style="fill: none; stroke: #0000ff; stroke-width: 0.2; stroke-linecap: round"/>
   </g>
   <g id="PathCollection_1">
    <path d="M 325.606612 331.421306 
C 329.799841 331.421306 333.821891 329.755318 336.786951 326.790257 
C 339.752012 323.825196 341.418 319.803147 341.418 315.609917 
C 341.418 311.416688 339.752012 307.394638 336.786951 304.429577 
C 333.821891 301.464517 329.799841 299.798529 325.606612 299.798529 
C 321.413382 299.798529 317.391332 301.464517 314.426272 304.429577 
C 311.461211 307.394638 309.795223 311.416688 309.795223 315.609917 
C 309.795223 319.803147 311.461211 323.825196 314.426272 326.790257 
C 317.391332 329.755318 321.413382 331.421306 325.606612 331.421306 
z
" clip-path="url(#pdaf95780d0)" style="fill: #ffff00; stroke: #000000"/>
    <path d="M 135.193388 331.421306 
C 139.386618 331.421306 143.408668 329.755318 146.373728 326.790257 
C 149.338789 323.825196 151.004777 319.803147 151.004777 315.609917 
C 151.004777 311.416688 149.338789 307.394638 146.373728 304.429577 
C 143.408668 301.464517 139.386618 299.798529 135.193388 299.798529 
C 131.000159 299.798529 126.978109 301.464517 124.013049 304.429577 
C 121.047988 307.394638 119.382 311.416688 119.382 315.609917 
C 119.382 319.803147 121.047988 323.825196 124.013049 326.790257 
C 126.978109 329.755318 131.000159 331.421306 135.193388 331.421306 
z
" clip-path="url(#pdaf95780d0)" style="fill: #ffff00; stroke: #000000"/>
    <path d="M 420.813223 236.214694 
C 425.006452 236.214694 429.028502 234.548706 431.993563 231.583646 
C 434.958624 228.618585 436.624611 224.596535 436.624611 220.403306 
C 436.624611 216.210077 434.958624 212.188027 431.993563 209.222966 
C 429.028502 206.257905 425.006452 204.591917 420.813223 204.591917 
C 416.619994 204.591917 412.597944 206.257905 409.632883 209.222966 
C 406.667822 212.188027 405.001835 216.210077 405.001835 220.403306 
C 405.001835 224.596535 406.667822 228.618585 409.632883 231.583646 
C 412.597944 234.548706 416.619994 236.214694 420.813223 236.214694 
z
" clip-path="url(#pdaf95780d0)" style="fill: #0000ff; stroke: #000000"/>
    <path d="M 230.4 236.214694 
C 234.593229 236.214694 238.615279 234.548706 241.58034 231.583646 
C 244.545401 228.618585 246.211388 224.596535 246.211388 220.403306 
C 246.211388 216.210077 244.545401 212.188027 241.58034 209.222966 
C 238.615279 206.257905 234.593229 204.591917 230.4 204.591917 
C 226.206771 204.591917 222.184721 206.257905 219.21966 209.222966 
C 216.254599 212.188027 214.588612 216.210077 214.588612 220.403306 
C 214.588612 224.596535 216.254599 228.618585 219.21966 231.583646 
C 222.184721 234.548706 226.206771 236.214694 230.4 236.214694 
z
" clip-path="url(#pdaf95780d0)" style="fill: #0000ff; stroke: #000000"/>
    <path d="M 39.986777 236.214694 
C 44.180006 236.214694 48.202056 234.548706 51.167117 231.583646 
C 54.132178 228.618585 55.798165 224.596535 55.798165 220.403306 
C 55.798165 216.210077 54.132178 212.188027 51.167117 209.222966 
C 48.202056 206.257905 44.180006 204.591917 39.986777 204.591917 
C 35.793548 204.591917 31.771498 206.257905 28.806437 209.222966 
C 25.841376 212.188027 24.175389 216.210077 24.175389 220.403306 
C 24.175389 224.596535 25.841376 228.618585 28.806437 231.583646 
C 31.771498 234.548706 35.793548 236.214694 39.986777 236.214694 
z
" clip-path="url(#pdaf95780d0)" style="fill: #ffffff; stroke: #000000"/>
    <path d="M 230.4 141.008083 
C 234.593229 141.008083 238.615279 139.342095 241.58034 136.377034 
C 244.545401 133.411973 246.211388 129.389923 246.211388 125.196694 
C 246.211388 121.003465 244.545401 116.981415 241.58034 114.016354 
C 238.615279 111.051294 234.593229 109.385306 230.4 109.385306 
C 226.206771 109.385306 222.184721 111.051294 219.21966 114.016354 
C 216.254599 116.981415 214.588612 121.003465 214.588612 125.196694 
C 214.588612 129.389923 216.254599 133.411973 219.21966 136.377034 
C 222.184721 139.342095 226.206771 141.008083 230.4 141.008083 
z
" clip-path="url(#pdaf95780d0)" style="fill: #0000ff; stroke: #000000"/>
    <path d="M 230.4 45.801471 
C 234.593229 45.801471 238.615279 44.135483 241.58034 41.170423 
C 244.545401 38.205362 246.211388 34.183312 246.211388 29.990083 
C 246.211388 25.796853 244.545401 21.774804 241.58034 18.809743 
C 238.615279 15.844682 234.593229 14.178694 230.4 14.178694 
C 226.206771 14.178694 222.184721 15.844682 219.21966 18.809743 
C 216.254599 21.774804 214.588612 25.796853 214.588612 29.990083 
C 214.588612 34.183312 216.254599 38.205362 219.21966 41.170423 
C 222.184721 44.135483 226.206771 45.801471 230.4 45.801471 
z
" clip-path="url(#pdaf95780d0)" style="fill: #0000ff; stroke: #000000"/>
   </g>
   <g id="text_1">
    <g clip-path="url(#pdaf95780d0)">
     <!-- 0 -->
     <g transform="translate(323.697862 317.265542) scale(0.06 -0.06)">
      <defs>
       <path id="DejaVuSans-30" d="M 2034 4250 
Q 1547 4250 1301 3770 
Q 1056 3291 1056 2328 
Q 1056 1369 1301 889 
Q 1547 409 2034 409 
Q 2525 409 2770 889 
Q 3016 1369 3016 2328 
Q 3016 3291 2770 3770 
Q 2525 4250 2034 4250 
z
M 2034 4750 
Q 2819 4750 3233 4129 
Q 3647 3509 3647 2328 
Q 3647 1150 3233 529 
Q 2819 -91 2034 -91 
Q 1250 -91 836 529 
Q 422 1150 422 2328 
Q 422 3509 836 4129 
Q 1250 4750 2034 4750 
z
" transform="scale(0.015625)"/>
      </defs>
      <use xlink:href="#DejaVuSans-30"/>
     </g>
    </g>
   </g>
   <g id="text_2">
    <g clip-path="url(#pdaf95780d0)">
     <!-- 1 -->
     <g transform="translate(133.284638 317.265542) scale(0.06 -0.06)">
      <defs>
       <path id="DejaVuSans-31" d="M 794 531 
L 1825 531 
L 1825 4091 
L 703 3866 
L 703 4441 
L 1819 4666 
L 2450 4666 
L 2450 531 
L 3481 531 
L 3481 0 
L 794 0 
L 794 531 
z
" transform="scale(0.015625)"/>
      </defs>
      <use xlink:href="#DejaVuSans-31"/>
     </g>
    </g>
   </g>
   <g id="text_3">
    <g clip-path="url(#pdaf95780d0)">
     <!-- 2 -->
     <g transform="translate(418.904473 222.058931) scale(0.06 -0.06)">
      <defs>
       <path id="DejaVuSans-32" d="M 1228 531 
L 3431 531 
L 3431 0 
L 469 0 
L 469 531 
Q 828 903 1448 1529 
Q 2069 2156 2228 2338 
Q 2531 2678 2651 2914 
Q 2772 3150 2772 3378 
Q 2772 3750 2511 3984 
Q 2250 4219 1831 4219 
Q 1534 4219 1204 4116 
Q 875 4013 500 3803 
L 500 4441 
Q 881 4594 1212 4672 
Q 1544 4750 1819 4750 
Q 2544 4750 2975 4387 
Q 3406 4025 3406 3419 
Q 3406 3131 3298 2873 
Q 3191 2616 2906 2266 
Q 2828 2175 2409 1742 
Q 1991 1309 1228 531 
z
" transform="scale(0.015625)"/>
      </defs>
      <use xlink:href="#DejaVuSans-32"/>
     </g>
    </g>
   </g>
   <g id="text_4">
    <g clip-path="url(#pdaf95780d0)">
     <!-- 3 -->
     <g transform="translate(228.49125 222.058931) scale(0.06 -0.06)">
      <defs>
       <path id="DejaVuSans-33" d="M 2597 2516 
Q 3050 2419 3304 2112 
Q 3559 1806 3559 1356 
Q 3559 666 3084 287 
Q 2609 -91 1734 -91 
Q 1441 -91 1130 -33 
Q 819 25 488 141 
L 488 750 
Q 750 597 1062 519 
Q 1375 441 1716 441 
Q 2309 441 2620 675 
Q 2931 909 2931 1356 
Q 2931 1769 2642 2001 
Q 2353 2234 1838 2234 
L 1294 2234 
L 1294 2753 
L 1863 2753 
Q 2328 2753 2575 2939 
Q 2822 3125 2822 3475 
Q 2822 3834 2567 4026 
Q 2313 4219 1838 4219 
Q 1578 4219 1281 4162 
Q 984 4106 628 3988 
L 628 4550 
Q 988 4650 1302 4700 
Q 1616 4750 1894 4750 
Q 2613 4750 3031 4423 
Q 3450 4097 3450 3541 
Q 3450 3153 3228 2886 
Q 3006 2619 2597 2516 
z
" transform="scale(0.015625)"/>
      </defs>
      <use xlink:href="#DejaVuSans-33"/>
     </g>
    </g>
   </g>
   <g id="text_5">
    <g clip-path="url(#pdaf95780d0)">
     <!-- 6 -->
     <g transform="translate(38.078027 218.699587) scale(0.06 -0.06)">
      <defs>
       <path id="DejaVuSans-36" d="M 2113 2584 
Q 1688 2584 1439 2293 
Q 1191 2003 1191 1497 
Q 1191 994 1439 701 
Q 1688 409 2113 409 
Q 2538 409 2786 701 
Q 3034 994 3034 1497 
Q 3034 2003 2786 2293 
Q 2538 2584 2113 2584 
z
M 3366 4563 
L 3366 3988 
Q 3128 4100 2886 4159 
Q 2644 4219 2406 4219 
Q 1781 4219 1451 3797 
Q 1122 3375 1075 2522 
Q 1259 2794 1537 2939 
Q 1816 3084 2150 3084 
Q 2853 3084 3261 2657 
Q 3669 2231 3669 1497 
Q 3669 778 3244 343 
Q 2819 -91 2113 -91 
Q 1303 -91 875 529 
Q 447 1150 447 2328 
Q 447 3434 972 4092 
Q 1497 4750 2381 4750 
Q 2619 4750 2861 4703 
Q 3103 4656 3366 4563 
z
" transform="scale(0.015625)"/>
      </defs>
      <use xlink:href="#DejaVuSans-36"/>
     </g>
    </g>
    <g clip-path="url(#pdaf95780d0)">
     <!-- SGM -->
     <g transform="translate(33.169277 225.418275) scale(0.06 -0.06)">
      <defs>
       <path id="DejaVuSans-53" d="M 3425 4513 
L 3425 3897 
Q 3066 4069 2747 4153 
Q 2428 4238 2131 4238 
Q 1616 4238 1336 4038 
Q 1056 3838 1056 3469 
Q 1056 3159 1242 3001 
Q 1428 2844 1947 2747 
L 2328 2669 
Q 3034 2534 3370 2195 
Q 3706 1856 3706 1288 
Q 3706 609 3251 259 
Q 2797 -91 1919 -91 
Q 1588 -91 1214 -16 
Q 841 59 441 206 
L 441 856 
Q 825 641 1194 531 
Q 1563 422 1919 422 
Q 2459 422 2753 634 
Q 3047 847 3047 1241 
Q 3047 1584 2836 1778 
Q 2625 1972 2144 2069 
L 1759 2144 
Q 1053 2284 737 2584 
Q 422 2884 422 3419 
Q 422 4038 858 4394 
Q 1294 4750 2059 4750 
Q 2388 4750 2728 4690 
Q 3069 4631 3425 4513 
z
" transform="scale(0.015625)"/>
       <path id="DejaVuSans-47" d="M 3809 666 
L 3809 1919 
L 2778 1919 
L 2778 2438 
L 4434 2438 
L 4434 434 
Q 4069 175 3628 42 
Q 3188 -91 2688 -91 
Q 1594 -91 976 548 
Q 359 1188 359 2328 
Q 359 3472 976 4111 
Q 1594 4750 2688 4750 
Q 3144 4750 3555 4637 
Q 3966 4525 4313 4306 
L 4313 3634 
Q 3963 3931 3569 4081 
Q 3175 4231 2741 4231 
Q 1884 4231 1454 3753 
Q 1025 3275 1025 2328 
Q 1025 1384 1454 906 
Q 1884 428 2741 428 
Q 3075 428 3337 486 
Q 3600 544 3809 666 
z
" transform="scale(0.015625)"/>
       <path id="DejaVuSans-4d" d="M 628 4666 
L 1569 4666 
L 2759 1491 
L 3956 4666 
L 4897 4666 
L 4897 0 
L 4281 0 
L 4281 4097 
L 3078 897 
L 2444 897 
L 1241 4097 
L 1241 0 
L 628 0 
L 628 4666 
z
" transform="scale(0.015625)"/>
      </defs>
      <use xlink:href="#DejaVuSans-53"/>
      <use xlink:href="#DejaVuSans-47" x="63.476562"/>
      <use xlink:href="#DejaVuSans-4d" x="140.966797"/>
     </g>
    </g>
   </g>
   <g id="text_6">
    <g clip-path="url(#pdaf95780d0)">
     <!-- 4 -->
     <g transform="translate(228.49125 126.852319) scale(0.06 -0.06)">
      <defs>
       <path id="DejaVuSans-34" d="M 2419 4116 
L 825 1625 
L 2419 1625 
L 2419 4116 
z
M 2253 4666 
L 3047 4666 
L 3047 1625 
L 3713 1625 
L 3713 1100 
L 3047 1100 
L 3047 0 
L 2419 0 
L 2419 1100 
L 313 1100 
L 313 1709 
L 2253 4666 
z
" transform="scale(0.015625)"/>
      </defs>
      <use xlink:href="#DejaVuSans-34"/>
     </g>
    </g>
   </g>
   <g id="text_7">
    <g clip-path="url(#pdaf95780d0)">
     <!-- 5 -->
     <g transform="translate(228.49125 31.645708) scale(0.06 -0.06)">
      <defs>
       <path id="DejaVuSans-35" d="M 691 4666 
L 3169 4666 
L 3169 4134 
L 1269 4134 
L 1269 2991 
Q 1406 3038 1543 3061 
Q 1681 3084 1819 3084 
Q 2600 3084 3056 2656 
Q 3513 2228 3513 1497 
Q 3513 744 3044 326 
Q 2575 -91 1722 -91 
Q 1428 -91 1123 -41 
Q 819 9 494 109 
L 494 744 
Q 775 591 1075 516 
Q 1375 441 1709 441 
Q 2250 441 2565 725 
Q 2881 1009 2881 1497 
Q 2881 1984 2565 2268 
Q 2250 2553 1709 2553 
Q 1456 2553 1204 2497 
Q 953 2441 691 2322 
L 691 4666 
z
" transform="scale(0.015625)"/>
      </defs>
      <use xlink:href="#DejaVuSans-35"/>
     </g>
    </g>
   </g>
  </g>
 </g>
 <defs>
  <clipPath id="pdaf95780d0">
   <rect x="0" y="0" width="460.8" height="345.6"/>
  </clipPath>
 </defs>
</svg>
