<?xml version="1.0" encoding="utf-8" standalone="no"?>
<!DOCTYPE svg PUBLIC "-//W3C//DTD SVG 1.1//EN"
  "http://www.w3.org/Graphics/SVG/1.1/DTD/svg11.dtd">
<svg xmlns:xlink="http://www.w3.org/1999/xlink" width="460.8pt" height="345.6pt" viewBox="0 0 460.8 345.6" xmlns="http://www.w3.org/2000/svg" version="1.1">
 <metadata>
  <rdf:RDF xmlns:dc="http://purl.org/dc/elements/1.1/" xmlns:cc="http://creativecommons.org/ns#" xmlns:rdf="http://www.w3.org/1999/02/22-rdf-syntax-ns#">
   <cc:Work>
    <dc:type rdf:resource="http://purl.org/dc/dcmitype/StillImage"/>
    <dc:date>2024-11-21T13:59:30.576036</dc:date>
    <dc:format>image/svg+xml</dc:format>
    <dc:creator>
     <cc:Agent>
      <dc:title>Matplotlib v3.9.2, https://matplotlib.org/</dc:title>
     </cc:Agent>
    </dc:creator>
   </cc:Work>
  </rdf:RDF>
 </metadata>
 <defs>
  <style type="text/css">*{stroke-linejoin: round; stroke-linecap: butt}</style>
 </defs>
 <g id="figure_1">
  <g id="patch_1">
   <path d="M 0 345.6 
L 460.8 345.6 
L 460.8 0 
L 0 0 
z
" style="fill: #ffffff"/>
  </g>
  <g id="axes_1">
   <g id="patch_2">
    <path d="M 293.871074 299.802679 
Q 293.871074 172.803105 293.871074 46.499613 
" clip-path="url(#p749b573e52)" style="fill: none; stroke: #ff0000; stroke-width: 0.622594; stroke-linecap: round"/>
    <path d="M 292.271074 49.699613 
L 293.871074 46.499613 
L 295.471074 49.699613 
" clip-path="url(#p749b573e52)" style="fill: none; stroke: #ff0000; stroke-width: 0.622594; stroke-linecap: round"/>
   </g>
   <g id="patch_3">
    <path d="M 287.449974 301.162442 
Q 230.399434 172.798726 173.872389 45.612875 
" clip-path="url(#p749b573e52)" style="fill: none; stroke: #ff0000; stroke-width: 1.15288; stroke-linecap: round"/>
    <path d="M 173.709934 49.186894 
L 173.872389 45.612875 
L 176.63413 47.88725 
" clip-path="url(#p749b573e52)" style="fill: none; stroke: #ff0000; stroke-width: 1.15288; stroke-linecap: round"/>
   </g>
   <g id="patch_4">
    <path d="M 283.366813 303.792623 
Q 166.928873 172.799941 50.99474 42.374041 
" clip-path="url(#p749b573e52)" style="fill: none; stroke: #0000ff; stroke-width: 0.67827; stroke-linecap: round"/>
    <path d="M 51.924849 45.828733 
L 50.99474 42.374041 
L 54.316559 43.702769 
" clip-path="url(#p749b573e52)" style="fill: none; stroke: #0000ff; stroke-width: 0.67827; stroke-linecap: round"/>
   </g>
   <g id="patch_5">
    <path d="M 177.433187 303.792623 
Q 293.871127 172.799941 409.236953 43.013387 
" clip-path="url(#p749b573e52)" style="fill: none; stroke: #ff0000; stroke-width: 1.443377; stroke-linecap: round"/>
    <path d="M 405.915134 44.342114 
L 409.236953 43.013387 
L 408.306844 46.468079 
" clip-path="url(#p749b573e52)" style="fill: none; stroke: #ff0000; stroke-width: 1.443377; stroke-linecap: round"/>
   </g>
   <g id="patch_6">
    <path d="M 173.350026 301.162442 
Q 230.400566 172.798726 286.48394 46.611135 
" clip-path="url(#p749b573e52)" style="fill: none; stroke: #0000ff; stroke-width: 2.129965; stroke-linecap: round"/>
    <path d="M 283.722198 48.885511 
L 286.48394 46.611135 
L 286.646395 50.185154 
" clip-path="url(#p749b573e52)" style="fill: none; stroke: #0000ff; stroke-width: 2.129965; stroke-linecap: round"/>
   </g>
   <g id="patch_7">
    <path d="M 166.928926 299.802679 
Q 166.928926 172.803105 166.928926 48.259097 
" clip-path="url(#p749b573e52)" style="fill: none; stroke: #0000ff; stroke-width: 2.196324; stroke-linecap: round"/>
    <path d="M 165.328926 51.459097 
L 166.928926 48.259097 
L 168.528926 51.459097 
" clip-path="url(#p749b573e52)" style="fill: none; stroke: #0000ff; stroke-width: 2.196324; stroke-linecap: round"/>
   </g>
   <g id="PathCollection_1">
    <path d="M 293.871074 331.421306 
C 298.064304 331.421306 302.086353 329.755318 305.051414 326.790257 
C 308.016475 323.825196 309.682463 319.803147 309.682463 315.609917 
C 309.682463 311.416688 308.016475 307.394638 305.051414 304.429577 
C 302.086353 301.464517 298.064304 299.798529 293.871074 299.798529 
C 289.677845 299.798529 285.655795 301.464517 282.690734 304.429577 
C 279.725674 307.394638 278.059686 311.416688 278.059686 315.609917 
C 278.059686 319.803147 279.725674 323.825196 282.690734 326.790257 
C 285.655795 329.755318 289.677845 331.421306 293.871074 331.421306 
z
" clip-path="url(#p749b573e52)" style="fill: #ffff00; stroke: #000000"/>
    <path d="M 166.928926 331.421306 
C 171.122155 331.421306 175.144205 329.755318 178.109266 326.790257 
C 181.074326 323.825196 182.740314 319.803147 182.740314 315.609917 
C 182.740314 311.416688 181.074326 307.394638 178.109266 304.429577 
C 175.144205 301.464517 171.122155 299.798529 166.928926 299.798529 
C 162.735696 299.798529 158.713647 301.464517 155.748586 304.429577 
C 152.783525 307.394638 151.117537 311.416688 151.117537 315.609917 
C 151.117537 319.803147 152.783525 323.825196 155.748586 326.790257 
C 158.713647 329.755318 162.735696 331.421306 166.928926 331.421306 
z
" clip-path="url(#p749b573e52)" style="fill: #ffff00; stroke: #000000"/>
    <path d="M 420.813223 45.801471 
C 425.006452 45.801471 429.028502 44.135483 431.993563 41.170423 
C 434.958624 38.205362 436.624611 34.183312 436.624611 29.990083 
C 436.624611 25.796853 434.958624 21.774804 431.993563 18.809743 
C 429.028502 15.844682 425.006452 14.178694 420.813223 14.178694 
C 416.619994 14.178694 412.597944 15.844682 409.632883 18.809743 
C 406.667822 21.774804 405.001835 25.796853 405.001835 29.990083 
C 405.001835 34.183312 406.667822 38.205362 409.632883 41.170423 
C 412.597944 44.135483 416.619994 45.801471 420.813223 45.801471 
z
" clip-path="url(#p749b573e52)" style="fill: #0000ff; stroke: #000000"/>
    <path d="M 293.871074 45.801471 
C 298.064304 45.801471 302.086353 44.135483 305.051414 41.170423 
C 308.016475 38.205362 309.682463 34.183312 309.682463 29.990083 
C 309.682463 25.796853 308.016475 21.774804 305.051414 18.809743 
C 302.086353 15.844682 298.064304 14.178694 293.871074 14.178694 
C 289.677845 14.178694 285.655795 15.844682 282.690734 18.809743 
C 279.725674 21.774804 278.059686 25.796853 278.059686 29.990083 
C 278.059686 34.183312 279.725674 38.205362 282.690734 41.170423 
C 285.655795 44.135483 289.677845 45.801471 293.871074 45.801471 
z
" clip-path="url(#p749b573e52)" style="fill: #0000ff; stroke: #000000"/>
    <path d="M 166.928926 45.801471 
C 171.122155 45.801471 175.144205 44.135483 178.109266 41.170423 
C 181.074326 38.205362 182.740314 34.183312 182.740314 29.990083 
C 182.740314 25.796853 181.074326 21.774804 178.109266 18.809743 
C 175.144205 15.844682 171.122155 14.178694 166.928926 14.178694 
C 162.735696 14.178694 158.713647 15.844682 155.748586 18.809743 
C 152.783525 21.774804 151.117537 25.796853 151.117537 29.990083 
C 151.117537 34.183312 152.783525 38.205362 155.748586 41.170423 
C 158.713647 44.135483 162.735696 45.801471 166.928926 45.801471 
z
" clip-path="url(#p749b573e52)" style="fill: #0000ff; stroke: #000000"/>
    <path d="M 39.986777 45.801471 
C 44.180006 45.801471 48.202056 44.135483 51.167117 41.170423 
C 54.132178 38.205362 55.798165 34.183312 55.798165 29.990083 
C 55.798165 25.796853 54.132178 21.774804 51.167117 18.809743 
C 48.202056 15.844682 44.180006 14.178694 39.986777 14.178694 
C 35.793548 14.178694 31.771498 15.844682 28.806437 18.809743 
C 25.841376 21.774804 24.175389 25.796853 24.175389 29.990083 
C 24.175389 34.183312 25.841376 38.205362 28.806437 41.170423 
C 31.771498 44.135483 35.793548 45.801471 39.986777 45.801471 
z
" clip-path="url(#p749b573e52)" style="fill: #0000ff; stroke: #000000"/>
   </g>
   <g id="text_1">
    <g clip-path="url(#p749b573e52)">
     <!-- 0 -->
     <g transform="translate(291.962324 317.265542) scale(0.06 -0.06)">
      <defs>
       <path id="DejaVuSans-30" d="M 2034 4250 
Q 1547 4250 1301 3770 
Q 1056 3291 1056 2328 
Q 1056 1369 1301 889 
Q 1547 409 2034 409 
Q 2525 409 2770 889 
Q 3016 1369 3016 2328 
Q 3016 3291 2770 3770 
Q 2525 4250 2034 4250 
z
M 2034 4750 
Q 2819 4750 3233 4129 
Q 3647 3509 3647 2328 
Q 3647 1150 3233 529 
Q 2819 -91 2034 -91 
Q 1250 -91 836 529 
Q 422 1150 422 2328 
Q 422 3509 836 4129 
Q 1250 4750 2034 4750 
z
" transform="scale(0.015625)"/>
      </defs>
      <use xlink:href="#DejaVuSans-30"/>
     </g>
    </g>
   </g>
   <g id="text_2">
    <g clip-path="url(#p749b573e52)">
     <!-- 1 -->
     <g transform="translate(165.020176 317.265542) scale(0.06 -0.06)">
      <defs>
       <path id="DejaVuSans-31" d="M 794 531 
L 1825 531 
L 1825 4091 
L 703 3866 
L 703 4441 
L 1819 4666 
L 2450 4666 
L 2450 531 
L 3481 531 
L 3481 0 
L 794 0 
L 794 531 
z
" transform="scale(0.015625)"/>
      </defs>
      <use xlink:href="#DejaVuSans-31"/>
     </g>
    </g>
   </g>
   <g id="text_3">
    <g clip-path="url(#p749b573e52)">
     <!-- 2 -->
     <g transform="translate(418.904473 31.645708) scale(0.06 -0.06)">
      <defs>
       <path id="DejaVuSans-32" d="M 1228 531 
L 3431 531 
L 3431 0 
L 469 0 
L 469 531 
Q 828 903 1448 1529 
Q 2069 2156 2228 2338 
Q 2531 2678 2651 2914 
Q 2772 3150 2772 3378 
Q 2772 3750 2511 3984 
Q 2250 4219 1831 4219 
Q 1534 4219 1204 4116 
Q 875 4013 500 3803 
L 500 4441 
Q 881 4594 1212 4672 
Q 1544 4750 1819 4750 
Q 2544 4750 2975 4387 
Q 3406 4025 3406 3419 
Q 3406 3131 3298 2873 
Q 3191 2616 2906 2266 
Q 2828 2175 2409 1742 
Q 1991 1309 1228 531 
z
" transform="scale(0.015625)"/>
      </defs>
      <use xlink:href="#DejaVuSans-32"/>
     </g>
    </g>
   </g>
   <g id="text_4">
    <g clip-path="url(#p749b573e52)">
     <!-- 3 -->
     <g transform="translate(291.962324 31.645708) scale(0.06 -0.06)">
      <defs>
       <path id="DejaVuSans-33" d="M 2597 2516 
Q 3050 2419 3304 2112 
Q 3559 1806 3559 1356 
Q 3559 666 3084 287 
Q 2609 -91 1734 -91 
Q 1441 -91 1130 -33 
Q 819 25 488 141 
L 488 750 
Q 750 597 1062 519 
Q 1375 441 1716 441 
Q 2309 441 2620 675 
Q 2931 909 2931 1356 
Q 2931 1769 2642 2001 
Q 2353 2234 1838 2234 
L 1294 2234 
L 1294 2753 
L 1863 2753 
Q 2328 2753 2575 2939 
Q 2822 3125 2822 3475 
Q 2822 3834 2567 4026 
Q 2313 4219 1838 4219 
Q 1578 4219 1281 4162 
Q 984 4106 628 3988 
L 628 4550 
Q 988 4650 1302 4700 
Q 1616 4750 1894 4750 
Q 2613 4750 3031 4423 
Q 3450 4097 3450 3541 
Q 3450 3153 3228 2886 
Q 3006 2619 2597 2516 
z
" transform="scale(0.015625)"/>
      </defs>
      <use xlink:href="#DejaVuSans-33"/>
     </g>
    </g>
   </g>
   <g id="text_5">
    <g clip-path="url(#p749b573e52)">
     <!-- 4 -->
     <g transform="translate(165.020176 31.645708) scale(0.06 -0.06)">
      <defs>
       <path id="DejaVuSans-34" d="M 2419 4116 
L 825 1625 
L 2419 1625 
L 2419 4116 
z
M 2253 4666 
L 3047 4666 
L 3047 1625 
L 3713 1625 
L 3713 1100 
L 3047 1100 
L 3047 0 
L 2419 0 
L 2419 1100 
L 313 1100 
L 313 1709 
L 2253 4666 
z
" transform="scale(0.015625)"/>
      </defs>
      <use xlink:href="#DejaVuSans-34"/>
     </g>
    </g>
   </g>
   <g id="text_6">
    <g clip-path="url(#p749b573e52)">
     <!-- 5 -->
     <g transform="translate(38.078027 31.645708) scale(0.06 -0.06)">
      <defs>
       <path id="DejaVuSans-35" d="M 691 4666 
L 3169 4666 
L 3169 4134 
L 1269 4134 
L 1269 2991 
Q 1406 3038 1543 3061 
Q 1681 3084 1819 3084 
Q 2600 3084 3056 2656 
Q 3513 2228 3513 1497 
Q 3513 744 3044 326 
Q 2575 -91 1722 -91 
Q 1428 -91 1123 -41 
Q 819 9 494 109 
L 494 744 
Q 775 591 1075 516 
Q 1375 441 1709 441 
Q 2250 441 2565 725 
Q 2881 1009 2881 1497 
Q 2881 1984 2565 2268 
Q 2250 2553 1709 2553 
Q 1456 2553 1204 2497 
Q 953 2441 691 2322 
L 691 4666 
z
" transform="scale(0.015625)"/>
      </defs>
      <use xlink:href="#DejaVuSans-35"/>
     </g>
    </g>
   </g>
  </g>
 </g>
 <defs>
  <clipPath id="p749b573e52">
   <rect x="0" y="0" width="460.8" height="345.6"/>
  </clipPath>
 </defs>
</svg>
