<?xml version="1.0" encoding="utf-8" standalone="no"?>
<!DOCTYPE svg PUBLIC "-//W3C//DTD SVG 1.1//EN"
  "http://www.w3.org/Graphics/SVG/1.1/DTD/svg11.dtd">
<svg xmlns:xlink="http://www.w3.org/1999/xlink" width="460.8pt" height="345.6pt" viewBox="0 0 460.8 345.6" xmlns="http://www.w3.org/2000/svg" version="1.1">
 <metadata>
  <rdf:RDF xmlns:dc="http://purl.org/dc/elements/1.1/" xmlns:cc="http://creativecommons.org/ns#" xmlns:rdf="http://www.w3.org/1999/02/22-rdf-syntax-ns#">
   <cc:Work>
    <dc:type rdf:resource="http://purl.org/dc/dcmitype/StillImage"/>
    <dc:date>2024-12-02T14:49:00.495853</dc:date>
    <dc:format>image/svg+xml</dc:format>
    <dc:creator>
     <cc:Agent>
      <dc:title>Matplotlib v3.9.2, https://matplotlib.org/</dc:title>
     </cc:Agent>
    </dc:creator>
   </cc:Work>
  </rdf:RDF>
 </metadata>
 <defs>
  <style type="text/css">*{stroke-linejoin: round; stroke-linecap: butt}</style>
 </defs>
 <g id="figure_1">
  <g id="patch_1">
   <path d="M 0 345.6 
L 460.8 345.6 
L 460.8 0 
L 0 0 
z
" style="fill: #ffffff"/>
  </g>
  <g id="axes_1">
   <g id="patch_2">
    <path d="M 278.705872 283.595911 
Q 256.031905 164.557586 233.399778 45.738918 
" clip-path="url(#p47924fa4d4)" style="fill: none; stroke: #0000ff; stroke-width: 0.2; stroke-linecap: round"/>
    <path d="M 232.426795 49.181781 
L 233.399778 45.738918 
L 235.570279 48.583022 
" clip-path="url(#p47924fa4d4)" style="fill: none; stroke: #0000ff; stroke-width: 0.2; stroke-linecap: round"/>
   </g>
   <g id="patch_3">
    <path d="M 289.510999 285.401524 
Q 307.297791 254.274638 324.679644 223.856395 
" clip-path="url(#p47924fa4d4)" style="fill: none; stroke: #0000ff; stroke-width: 0.730014; stroke-linecap: round"/>
    <path d="M 321.702811 225.840951 
L 324.679644 223.856395 
L 324.481189 227.428595 
" clip-path="url(#p47924fa4d4)" style="fill: none; stroke: #0000ff; stroke-width: 0.730014; stroke-linecap: round"/>
   </g>
   <g id="patch_4">
    <path d="M 273.819198 285.401524 
Q 256.032406 254.274638 238.728528 223.992852 
" clip-path="url(#p47924fa4d4)" style="fill: none; stroke: #0000ff; stroke-width: 0.870587; stroke-linecap: round"/>
    <path d="M 238.926984 227.565052 
L 238.728528 223.992852 
L 241.705362 225.977408 
" clip-path="url(#p47924fa4d4)" style="fill: none; stroke: #0000ff; stroke-width: 0.870587; stroke-linecap: round"/>
   </g>
   <g id="patch_5">
    <path d="M 171.289001 285.401524 
Q 153.502209 254.274638 136.185831 223.970976 
" clip-path="url(#p47924fa4d4)" style="fill: none; stroke: #ff0000; stroke-width: 0.848051; stroke-linecap: round"/>
    <path d="M 136.384286 227.543176 
L 136.185831 223.970976 
L 139.162664 225.955532 
" clip-path="url(#p47924fa4d4)" style="fill: none; stroke: #ff0000; stroke-width: 0.848051; stroke-linecap: round"/>
   </g>
   <g id="patch_6">
    <path d="M 182.094128 283.595911 
Q 204.768095 164.557586 227.213617 46.718594 
" clip-path="url(#p47924fa4d4)" style="fill: none; stroke: #0000ff; stroke-width: 1.092003; stroke-linecap: round"/>
    <path d="M 225.043116 49.562698 
L 227.213617 46.718594 
L 228.1866 50.161457 
" clip-path="url(#p47924fa4d4)" style="fill: none; stroke: #0000ff; stroke-width: 1.092003; stroke-linecap: round"/>
   </g>
   <g id="patch_7">
    <path d="M 192.790523 291.166071 
Q 256.032571 254.274876 318.92116 217.589866 
" clip-path="url(#p47924fa4d4)" style="fill: none; stroke: #ff0000; stroke-width: 0.366; stroke-linecap: round"/>
    <path d="M 315.350874 217.820207 
L 318.92116 217.589866 
L 316.963262 220.584299 
" clip-path="url(#p47924fa4d4)" style="fill: none; stroke: #ff0000; stroke-width: 0.366; stroke-linecap: round"/>
   </g>
   <g id="patch_8">
    <path d="M 186.980802 285.401524 
Q 204.767594 254.274638 222.062967 224.007735 
" clip-path="url(#p47924fa4d4)" style="fill: none; stroke: #ff0000; stroke-width: 0.885918; stroke-linecap: round"/>
    <path d="M 219.086133 225.992291 
L 222.062967 224.007735 
L 221.864512 227.579935 
" clip-path="url(#p47924fa4d4)" style="fill: none; stroke: #ff0000; stroke-width: 0.885918; stroke-linecap: round"/>
   </g>
   <g id="patch_9">
    <path d="M 139.769288 199.005878 
Q 179.133961 164.561789 217.8878 130.65218 
" clip-path="url(#p47924fa4d4)" style="fill: none; stroke: #0000ff; stroke-width: 0.725968; stroke-linecap: round"/>
    <path d="M 214.425947 131.555272 
L 217.8878 130.65218 
L 216.533162 133.963517 
" clip-path="url(#p47924fa4d4)" style="fill: none; stroke: #0000ff; stroke-width: 0.725968; stroke-linecap: round"/>
   </g>
   <g id="patch_10">
    <path d="M 135.715703 195.687602 
Q 179.13603 119.702031 221.862936 44.929944 
" clip-path="url(#p47924fa4d4)" style="fill: none; stroke: #0000ff; stroke-width: 1.250081; stroke-linecap: round"/>
    <path d="M 218.886103 46.9145 
L 221.862936 44.929944 
L 221.664481 48.502145 
" clip-path="url(#p47924fa4d4)" style="fill: none; stroke: #0000ff; stroke-width: 1.250081; stroke-linecap: round"/>
   </g>
   <g id="patch_11">
    <path d="M 230.4 103.892912 
Q 230.4 74.846448 230.4 46.02359 
" clip-path="url(#p47924fa4d4)" style="fill: none; stroke: #0000ff; stroke-width: 0.2; stroke-linecap: round"/>
    <path d="M 228.8 49.22359 
L 230.4 46.02359 
L 232 49.22359 
" clip-path="url(#p47924fa4d4)" style="fill: none; stroke: #0000ff; stroke-width: 0.2; stroke-linecap: round"/>
   </g>
   <g id="patch_12">
    <path d="M 307.661151 300.404113 
Q 271.20272 172.799604 235.335635 47.264804 
" clip-path="url(#p47924fa4d4)" style="fill: none; stroke: #0000ff; stroke-width: 1.925282; stroke-linecap: round"/>
    <path d="M 234.676304 50.781235 
L 235.335635 47.264804 
L 237.753181 49.902127 
" clip-path="url(#p47924fa4d4)" style="fill: none; stroke: #0000ff; stroke-width: 1.925282; stroke-linecap: round"/>
   </g>
   <g id="patch_13">
    <path d="M 319.849205 301.883726 
Q 352.80783 244.206133 385.08367 187.723412 
" clip-path="url(#p47924fa4d4)" style="fill: none; stroke: #ff0000; stroke-width: 1.230906; stroke-linecap: round"/>
    <path d="M 382.106837 189.707967 
L 385.08367 187.723412 
L 384.885215 191.295612 
" clip-path="url(#p47924fa4d4)" style="fill: none; stroke: #ff0000; stroke-width: 1.230906; stroke-linecap: round"/>
   </g>
   <g id="patch_14">
    <path d="M 304.162129 301.883726 
Q 271.203504 244.206133 239.128782 188.075368 
" clip-path="url(#p47924fa4d4)" style="fill: none; stroke: #0000ff; stroke-width: 1.593477; stroke-linecap: round"/>
    <path d="M 239.327237 191.647569 
L 239.128782 188.075368 
L 242.105616 190.059924 
" clip-path="url(#p47924fa4d4)" style="fill: none; stroke: #0000ff; stroke-width: 1.593477; stroke-linecap: round"/>
   </g>
   <g id="patch_15">
    <path d="M 298.344538 307.640925 
Q 189.596945 244.204829 81.997484 181.438477 
" clip-path="url(#p47924fa4d4)" style="fill: none; stroke: #ff0000; stroke-width: 1.18887; stroke-linecap: round"/>
    <path d="M 83.955383 184.432911 
L 81.997484 181.438477 
L 85.56777 181.668818 
" clip-path="url(#p47924fa4d4)" style="fill: none; stroke: #ff0000; stroke-width: 1.18887; stroke-linecap: round"/>
   </g>
   <g id="patch_16">
    <path d="M 153.138849 300.404113 
Q 189.59728 172.799604 225.617392 46.729212 
" clip-path="url(#p47924fa4d4)" style="fill: none; stroke: #ff0000; stroke-width: 1.427063; stroke-linecap: round"/>
    <path d="M 223.199846 49.366535 
L 225.617392 46.729212 
L 226.276722 50.245642 
" clip-path="url(#p47924fa4d4)" style="fill: none; stroke: #ff0000; stroke-width: 1.427063; stroke-linecap: round"/>
   </g>
   <g id="patch_17">
    <path d="M 162.455462 307.640925 
Q 271.203055 244.204829 378.099651 181.848482 
" clip-path="url(#p47924fa4d4)" style="fill: none; stroke: #ff0000; stroke-width: 1.916674; stroke-linecap: round"/>
    <path d="M 374.529365 182.078823 
L 378.099651 181.848482 
L 376.141752 184.842916 
" clip-path="url(#p47924fa4d4)" style="fill: none; stroke: #ff0000; stroke-width: 1.916674; stroke-linecap: round"/>
   </g>
   <g id="patch_18">
    <path d="M 156.637871 301.883726 
Q 189.596496 244.206133 222.44418 186.722685 
" clip-path="url(#p47924fa4d4)" style="fill: none; stroke: #0000ff; stroke-width: 0.2; stroke-linecap: round"/>
    <path d="M 219.467347 188.70724 
L 222.44418 186.722685 
L 222.245725 190.294885 
" clip-path="url(#p47924fa4d4)" style="fill: none; stroke: #0000ff; stroke-width: 0.2; stroke-linecap: round"/>
   </g>
   <g id="patch_19">
    <path d="M 140.950795 301.883726 
Q 107.99217 244.206133 75.221668 186.857754 
" clip-path="url(#p47924fa4d4)" style="fill: none; stroke: #ff0000; stroke-width: 0.339143; stroke-linecap: round"/>
    <path d="M 75.420124 190.429955 
L 75.221668 186.857754 
L 78.198502 188.84231 
" clip-path="url(#p47924fa4d4)" style="fill: none; stroke: #ff0000; stroke-width: 0.339143; stroke-linecap: round"/>
   </g>
   <g id="patch_20">
    <path d="M 381.709678 162.38605 
Q 312.003468 101.393117 242.46554 40.54743 
" clip-path="url(#p47924fa4d4)" style="fill: none; stroke: #0000ff; stroke-width: 0.2; stroke-linecap: round"/>
    <path d="M 243.820178 43.858768 
L 242.46554 40.54743 
L 245.927393 41.450522 
" clip-path="url(#p47924fa4d4)" style="fill: none; stroke: #0000ff; stroke-width: 0.2; stroke-linecap: round"/>
   </g>
   <g id="patch_21">
    <path d="M 305.769964 260.239711 
Q 357.342472 215.113766 408.111651 170.690735 
" clip-path="url(#p47924fa4d4)" style="fill: none; stroke: #0000ff; stroke-width: 0.954746; stroke-linecap: round"/>
    <path d="M 404.649798 171.593827 
L 408.111651 170.690735 
L 406.757013 174.002073 
" clip-path="url(#p47924fa4d4)" style="fill: none; stroke: #0000ff; stroke-width: 0.954746; stroke-linecap: round"/>
   </g>
   <g id="patch_22">
    <path d="M 293.871074 254.838191 
Q 293.871074 215.113506 293.871074 175.869187 
" clip-path="url(#p47924fa4d4)" style="fill: none; stroke: #ff0000; stroke-width: 0.429652; stroke-linecap: round"/>
    <path d="M 292.271074 179.069187 
L 293.871074 175.869187 
L 295.471074 179.069187 
" clip-path="url(#p47924fa4d4)" style="fill: none; stroke: #ff0000; stroke-width: 0.429652; stroke-linecap: round"/>
   </g>
   <g id="patch_23">
    <path d="M 281.972185 260.239711 
Q 230.399676 215.113766 180.03023 171.040501 
" clip-path="url(#p47924fa4d4)" style="fill: none; stroke: #ff0000; stroke-width: 1.429823; stroke-linecap: round"/>
    <path d="M 181.384868 174.351839 
L 180.03023 171.040501 
L 183.492083 171.943593 
" clip-path="url(#p47924fa4d4)" style="fill: none; stroke: #ff0000; stroke-width: 1.429823; stroke-linecap: round"/>
   </g>
   <g id="patch_24">
    <path d="M 279.386312 264.314156 
Q 166.928512 215.113869 54.675571 166.003207 
" clip-path="url(#p47924fa4d4)" style="fill: none; stroke: #ff0000; stroke-width: 0.2; stroke-linecap: round"/>
    <path d="M 56.965964 168.751679 
L 54.675571 166.003207 
L 58.248584 165.819975 
" clip-path="url(#p47924fa4d4)" style="fill: none; stroke: #ff0000; stroke-width: 0.2; stroke-linecap: round"/>
   </g>
   <g id="patch_25">
    <path d="M 181.413688 264.314156 
Q 293.871488 215.113869 405.725502 166.177738 
" clip-path="url(#p47924fa4d4)" style="fill: none; stroke: #ff0000; stroke-width: 0.589465; stroke-linecap: round"/>
    <path d="M 402.152488 165.994506 
L 405.725502 166.177738 
L 403.435109 168.92621 
" clip-path="url(#p47924fa4d4)" style="fill: none; stroke: #ff0000; stroke-width: 0.589465; stroke-linecap: round"/>
   </g>
   <g id="patch_26">
    <path d="M 178.827815 260.239711 
Q 230.400324 215.113766 280.243747 171.500771 
" clip-path="url(#p47924fa4d4)" style="fill: none; stroke: #ff0000; stroke-width: 2.054994; stroke-linecap: round"/>
    <path d="M 276.781894 172.403863 
L 280.243747 171.500771 
L 278.889109 174.812108 
" clip-path="url(#p47924fa4d4)" style="fill: none; stroke: #ff0000; stroke-width: 2.054994; stroke-linecap: round"/>
   </g>
   <g id="patch_27">
    <path d="M 166.928926 254.838191 
Q 166.928926 215.113506 166.928926 176.861078 
" clip-path="url(#p47924fa4d4)" style="fill: none; stroke: #0000ff; stroke-width: 1.316826; stroke-linecap: round"/>
    <path d="M 165.328926 180.061078 
L 166.928926 176.861078 
L 168.528926 180.061078 
" clip-path="url(#p47924fa4d4)" style="fill: none; stroke: #0000ff; stroke-width: 1.316826; stroke-linecap: round"/>
   </g>
   <g id="patch_28">
    <path d="M 155.030036 260.239711 
Q 103.457528 215.113766 52.0533 170.135068 
" clip-path="url(#p47924fa4d4)" style="fill: none; stroke: #ff0000; stroke-width: 0.2; stroke-linecap: round"/>
    <path d="M 53.407939 173.446405 
L 52.0533 170.135068 
L 55.515153 171.03816 
" clip-path="url(#p47924fa4d4)" style="fill: none; stroke: #ff0000; stroke-width: 0.2; stroke-linecap: round"/>
   </g>
   <g id="patch_29">
    <path d="M 305.769964 260.239711 
Q 357.342472 215.113766 408.111651 170.690735 
" clip-path="url(#p47924fa4d4)" style="fill: none; stroke: #0000ff; stroke-width: 0.954746; stroke-linecap: round"/>
    <path d="M 404.649798 171.593827 
L 408.111651 170.690735 
L 406.757013 174.002073 
" clip-path="url(#p47924fa4d4)" style="fill: none; stroke: #0000ff; stroke-width: 0.954746; stroke-linecap: round"/>
   </g>
   <g id="patch_30">
    <path d="M 293.871074 254.838191 
Q 293.871074 215.113506 293.871074 175.869187 
" clip-path="url(#p47924fa4d4)" style="fill: none; stroke: #ff0000; stroke-width: 0.429652; stroke-linecap: round"/>
    <path d="M 292.271074 179.069187 
L 293.871074 175.869187 
L 295.471074 179.069187 
" clip-path="url(#p47924fa4d4)" style="fill: none; stroke: #ff0000; stroke-width: 0.429652; stroke-linecap: round"/>
   </g>
   <g id="patch_31">
    <path d="M 281.972185 260.239711 
Q 230.399676 215.113766 180.03023 171.040501 
" clip-path="url(#p47924fa4d4)" style="fill: none; stroke: #ff0000; stroke-width: 1.429823; stroke-linecap: round"/>
    <path d="M 181.384868 174.351839 
L 180.03023 171.040501 
L 183.492083 171.943593 
" clip-path="url(#p47924fa4d4)" style="fill: none; stroke: #ff0000; stroke-width: 1.429823; stroke-linecap: round"/>
   </g>
   <g id="patch_32">
    <path d="M 279.386312 264.314156 
Q 166.928512 215.113869 54.675571 166.003207 
" clip-path="url(#p47924fa4d4)" style="fill: none; stroke: #ff0000; stroke-width: 0.2; stroke-linecap: round"/>
    <path d="M 56.965964 168.751679 
L 54.675571 166.003207 
L 58.248584 165.819975 
" clip-path="url(#p47924fa4d4)" style="fill: none; stroke: #ff0000; stroke-width: 0.2; stroke-linecap: round"/>
   </g>
   <g id="patch_33">
    <path d="M 181.413688 264.314156 
Q 293.871488 215.113869 405.725502 166.177738 
" clip-path="url(#p47924fa4d4)" style="fill: none; stroke: #ff0000; stroke-width: 0.589465; stroke-linecap: round"/>
    <path d="M 402.152488 165.994506 
L 405.725502 166.177738 
L 403.435109 168.92621 
" clip-path="url(#p47924fa4d4)" style="fill: none; stroke: #ff0000; stroke-width: 0.589465; stroke-linecap: round"/>
   </g>
   <g id="patch_34">
    <path d="M 178.827815 260.239711 
Q 230.400324 215.113766 280.243747 171.500771 
" clip-path="url(#p47924fa4d4)" style="fill: none; stroke: #ff0000; stroke-width: 2.054994; stroke-linecap: round"/>
    <path d="M 276.781894 172.403863 
L 280.243747 171.500771 
L 278.889109 174.812108 
" clip-path="url(#p47924fa4d4)" style="fill: none; stroke: #ff0000; stroke-width: 2.054994; stroke-linecap: round"/>
   </g>
   <g id="patch_35">
    <path d="M 166.928926 254.838191 
Q 166.928926 215.113506 166.928926 176.861078 
" clip-path="url(#p47924fa4d4)" style="fill: none; stroke: #0000ff; stroke-width: 1.316826; stroke-linecap: round"/>
    <path d="M 165.328926 180.061078 
L 166.928926 176.861078 
L 168.528926 180.061078 
" clip-path="url(#p47924fa4d4)" style="fill: none; stroke: #0000ff; stroke-width: 1.316826; stroke-linecap: round"/>
   </g>
   <g id="patch_36">
    <path d="M 155.030036 260.239711 
Q 103.457528 215.113766 52.0533 170.135068 
" clip-path="url(#p47924fa4d4)" style="fill: none; stroke: #ff0000; stroke-width: 0.2; stroke-linecap: round"/>
    <path d="M 53.407939 173.446405 
L 52.0533 170.135068 
L 55.515153 171.03816 
" clip-path="url(#p47924fa4d4)" style="fill: none; stroke: #ff0000; stroke-width: 0.2; stroke-linecap: round"/>
   </g>
   <g id="patch_37">
    <path d="M 305.769964 260.239711 
Q 357.342472 215.113766 408.111651 170.690735 
" clip-path="url(#p47924fa4d4)" style="fill: none; stroke: #0000ff; stroke-width: 0.954746; stroke-linecap: round"/>
    <path d="M 404.649798 171.593827 
L 408.111651 170.690735 
L 406.757013 174.002073 
" clip-path="url(#p47924fa4d4)" style="fill: none; stroke: #0000ff; stroke-width: 0.954746; stroke-linecap: round"/>
   </g>
   <g id="patch_38">
    <path d="M 293.871074 254.838191 
Q 293.871074 215.113506 293.871074 175.869187 
" clip-path="url(#p47924fa4d4)" style="fill: none; stroke: #ff0000; stroke-width: 0.429652; stroke-linecap: round"/>
    <path d="M 292.271074 179.069187 
L 293.871074 175.869187 
L 295.471074 179.069187 
" clip-path="url(#p47924fa4d4)" style="fill: none; stroke: #ff0000; stroke-width: 0.429652; stroke-linecap: round"/>
   </g>
   <g id="patch_39">
    <path d="M 281.972185 260.239711 
Q 230.399676 215.113766 180.03023 171.040501 
" clip-path="url(#p47924fa4d4)" style="fill: none; stroke: #ff0000; stroke-width: 1.429823; stroke-linecap: round"/>
    <path d="M 181.384868 174.351839 
L 180.03023 171.040501 
L 183.492083 171.943593 
" clip-path="url(#p47924fa4d4)" style="fill: none; stroke: #ff0000; stroke-width: 1.429823; stroke-linecap: round"/>
   </g>
   <g id="patch_40">
    <path d="M 279.386312 264.314156 
Q 166.928512 215.113869 54.675571 166.003207 
" clip-path="url(#p47924fa4d4)" style="fill: none; stroke: #ff0000; stroke-width: 0.2; stroke-linecap: round"/>
    <path d="M 56.965964 168.751679 
L 54.675571 166.003207 
L 58.248584 165.819975 
" clip-path="url(#p47924fa4d4)" style="fill: none; stroke: #ff0000; stroke-width: 0.2; stroke-linecap: round"/>
   </g>
   <g id="patch_41">
    <path d="M 181.413688 264.314156 
Q 293.871488 215.113869 405.725502 166.177738 
" clip-path="url(#p47924fa4d4)" style="fill: none; stroke: #ff0000; stroke-width: 0.589465; stroke-linecap: round"/>
    <path d="M 402.152488 165.994506 
L 405.725502 166.177738 
L 403.435109 168.92621 
" clip-path="url(#p47924fa4d4)" style="fill: none; stroke: #ff0000; stroke-width: 0.589465; stroke-linecap: round"/>
   </g>
   <g id="patch_42">
    <path d="M 178.827815 260.239711 
Q 230.400324 215.113766 280.243747 171.500771 
" clip-path="url(#p47924fa4d4)" style="fill: none; stroke: #ff0000; stroke-width: 2.054994; stroke-linecap: round"/>
    <path d="M 276.781894 172.403863 
L 280.243747 171.500771 
L 278.889109 174.812108 
" clip-path="url(#p47924fa4d4)" style="fill: none; stroke: #ff0000; stroke-width: 2.054994; stroke-linecap: round"/>
   </g>
   <g id="patch_43">
    <path d="M 166.928926 254.838191 
Q 166.928926 215.113506 166.928926 176.861078 
" clip-path="url(#p47924fa4d4)" style="fill: none; stroke: #0000ff; stroke-width: 1.316826; stroke-linecap: round"/>
    <path d="M 165.328926 180.061078 
L 166.928926 176.861078 
L 168.528926 180.061078 
" clip-path="url(#p47924fa4d4)" style="fill: none; stroke: #0000ff; stroke-width: 1.316826; stroke-linecap: round"/>
   </g>
   <g id="patch_44">
    <path d="M 155.030036 260.239711 
Q 103.457528 215.113766 52.0533 170.135068 
" clip-path="url(#p47924fa4d4)" style="fill: none; stroke: #ff0000; stroke-width: 0.2; stroke-linecap: round"/>
    <path d="M 53.407939 173.446405 
L 52.0533 170.135068 
L 55.515153 171.03816 
" clip-path="url(#p47924fa4d4)" style="fill: none; stroke: #ff0000; stroke-width: 0.2; stroke-linecap: round"/>
   </g>
   <g id="PathCollection_1">
    <path d="M 281.665099 314.943238 
C 285.858328 314.943238 289.880378 313.277251 292.845438 310.31219 
C 295.810499 307.347129 297.476487 303.325079 297.476487 299.13185 
C 297.476487 294.938621 295.810499 290.916571 292.845438 287.95151 
C 289.880378 284.986449 285.858328 283.320462 281.665099 283.320462 
C 277.471869 283.320462 273.449819 284.986449 270.484759 287.95151 
C 267.519698 290.916571 265.85371 294.938621 265.85371 299.13185 
C 265.85371 303.325079 267.519698 307.347129 270.484759 310.31219 
C 273.449819 313.277251 277.471869 314.943238 281.665099 314.943238 
z
" clip-path="url(#p47924fa4d4)" style="fill: #ffff00; stroke: #000000"/>
    <path d="M 179.134901 314.943238 
C 183.328131 314.943238 187.350181 313.277251 190.315241 310.31219 
C 193.280302 307.347129 194.94629 303.325079 194.94629 299.13185 
C 194.94629 294.938621 193.280302 290.916571 190.315241 287.95151 
C 187.350181 284.986449 183.328131 283.320462 179.134901 283.320462 
C 174.941672 283.320462 170.919622 284.986449 167.954562 287.95151 
C 164.989501 290.916571 163.323513 294.938621 163.323513 299.13185 
C 163.323513 303.325079 164.989501 307.347129 167.954562 310.31219 
C 170.919622 313.277251 174.941672 314.943238 179.134901 314.943238 
z
" clip-path="url(#p47924fa4d4)" style="fill: #ffff00; stroke: #000000"/>
    <path d="M 332.930197 225.229316 
C 337.123426 225.229316 341.145476 223.563328 344.110537 220.598267 
C 347.075598 217.633207 348.741585 213.611157 348.741585 209.417928 
C 348.741585 205.224698 347.075598 201.202648 344.110537 198.237588 
C 341.145476 195.272527 337.123426 193.606539 332.930197 193.606539 
C 328.736968 193.606539 324.714918 195.272527 321.749857 198.237588 
C 318.784796 201.202648 317.118809 205.224698 317.118809 209.417928 
C 317.118809 213.611157 318.784796 217.633207 321.749857 220.598267 
C 324.714918 223.563328 328.736968 225.229316 332.930197 225.229316 
z
" clip-path="url(#p47924fa4d4)" style="fill: #0000ff; stroke: #000000"/>
    <path d="M 230.4 225.229316 
C 234.593229 225.229316 238.615279 223.563328 241.58034 220.598267 
C 244.545401 217.633207 246.211388 213.611157 246.211388 209.417928 
C 246.211388 205.224698 244.545401 201.202648 241.58034 198.237588 
C 238.615279 195.272527 234.593229 193.606539 230.4 193.606539 
C 226.206771 193.606539 222.184721 195.272527 219.21966 198.237588 
C 216.254599 201.202648 214.588612 205.224698 214.588612 209.417928 
C 214.588612 213.611157 216.254599 217.633207 219.21966 220.598267 
C 222.184721 223.563328 226.206771 225.229316 230.4 225.229316 
z
" clip-path="url(#p47924fa4d4)" style="fill: #0000ff; stroke: #000000"/>
    <path d="M 127.869803 225.229316 
C 132.063032 225.229316 136.085082 223.563328 139.050143 220.598267 
C 142.015204 217.633207 143.681191 213.611157 143.681191 209.417928 
C 143.681191 205.224698 142.015204 201.202648 139.050143 198.237588 
C 136.085082 195.272527 132.063032 193.606539 127.869803 193.606539 
C 123.676574 193.606539 119.654524 195.272527 116.689463 198.237588 
C 113.724402 201.202648 112.058415 205.224698 112.058415 209.417928 
C 112.058415 213.611157 113.724402 217.633207 116.689463 220.598267 
C 119.654524 223.563328 123.676574 225.229316 127.869803 225.229316 
z
" clip-path="url(#p47924fa4d4)" style="fill: #ffffff; stroke: #000000"/>
    <path d="M 230.4 135.515393 
C 234.593229 135.515393 238.615279 133.849406 241.58034 130.884345 
C 244.545401 127.919284 246.211388 123.897234 246.211388 119.704005 
C 246.211388 115.510776 244.545401 111.488726 241.58034 108.523665 
C 238.615279 105.558604 234.593229 103.892617 230.4 103.892617 
C 226.206771 103.892617 222.184721 105.558604 219.21966 108.523665 
C 216.254599 111.488726 214.588612 115.510776 214.588612 119.704005 
C 214.588612 123.897234 216.254599 127.919284 219.21966 130.884345 
C 222.184721 133.849406 226.206771 135.515393 230.4 135.515393 
z
" clip-path="url(#p47924fa4d4)" style="fill: #0000ff; stroke: #000000"/>
    <path d="M 230.4 45.801471 
C 234.593229 45.801471 238.615279 44.135483 241.58034 41.170423 
C 244.545401 38.205362 246.211388 34.183312 246.211388 29.990083 
C 246.211388 25.796853 244.545401 21.774804 241.58034 18.809743 
C 238.615279 15.844682 234.593229 14.178694 230.4 14.178694 
C 226.206771 14.178694 222.184721 15.844682 219.21966 18.809743 
C 216.254599 21.774804 214.588612 25.796853 214.588612 29.990083 
C 214.588612 34.183312 216.254599 38.205362 219.21966 41.170423 
C 222.184721 44.135483 226.206771 45.801471 230.4 45.801471 
z
" clip-path="url(#p47924fa4d4)" style="fill: #0000ff; stroke: #000000"/>
   </g>
   <g id="PathCollection_2">
    <path d="M 312.005667 331.421306 
C 316.198896 331.421306 320.220946 329.755318 323.186007 326.790257 
C 326.151068 323.825196 327.817055 319.803147 327.817055 315.609917 
C 327.817055 311.416688 326.151068 307.394638 323.186007 304.429577 
C 320.220946 301.464517 316.198896 299.798529 312.005667 299.798529 
C 307.812438 299.798529 303.790388 301.464517 300.825327 304.429577 
C 297.860266 307.394638 296.194279 311.416688 296.194279 315.609917 
C 296.194279 319.803147 297.860266 323.825196 300.825327 326.790257 
C 303.790388 329.755318 307.812438 331.421306 312.005667 331.421306 
z
" clip-path="url(#p47924fa4d4)" style="fill: #ffff00; stroke: #000000"/>
    <path d="M 148.794333 331.421306 
C 152.987562 331.421306 157.009612 329.755318 159.974673 326.790257 
C 162.939734 323.825196 164.605721 319.803147 164.605721 315.609917 
C 164.605721 311.416688 162.939734 307.394638 159.974673 304.429577 
C 157.009612 301.464517 152.987562 299.798529 148.794333 299.798529 
C 144.601104 299.798529 140.579054 301.464517 137.613993 304.429577 
C 134.648932 307.394638 132.982945 311.416688 132.982945 315.609917 
C 132.982945 319.803147 134.648932 323.825196 137.613993 326.790257 
C 140.579054 329.755318 144.601104 331.421306 148.794333 331.421306 
z
" clip-path="url(#p47924fa4d4)" style="fill: #ffff00; stroke: #000000"/>
    <path d="M 393.611334 188.611388 
C 397.804563 188.611388 401.826613 186.945401 404.791674 183.98034 
C 407.756735 181.015279 409.422722 176.993229 409.422722 172.8 
C 409.422722 168.606771 407.756735 164.584721 404.791674 161.61966 
C 401.826613 158.654599 397.804563 156.988612 393.611334 156.988612 
C 389.418105 156.988612 385.396055 158.654599 382.430994 161.61966 
C 379.465933 164.584721 377.799946 168.606771 377.799946 172.8 
C 377.799946 176.993229 379.465933 181.015279 382.430994 183.98034 
C 385.396055 186.945401 389.418105 188.611388 393.611334 188.611388 
z
" clip-path="url(#p47924fa4d4)" style="fill: #0000ff; stroke: #000000"/>
    <path d="M 230.4 188.611388 
C 234.593229 188.611388 238.615279 186.945401 241.58034 183.98034 
C 244.545401 181.015279 246.211388 176.993229 246.211388 172.8 
C 246.211388 168.606771 244.545401 164.584721 241.58034 161.61966 
C 238.615279 158.654599 234.593229 156.988612 230.4 156.988612 
C 226.206771 156.988612 222.184721 158.654599 219.21966 161.61966 
C 216.254599 164.584721 214.588612 168.606771 214.588612 172.8 
C 214.588612 176.993229 216.254599 181.015279 219.21966 183.98034 
C 222.184721 186.945401 226.206771 188.611388 230.4 188.611388 
z
" clip-path="url(#p47924fa4d4)" style="fill: #0000ff; stroke: #000000"/>
    <path d="M 67.188666 188.611388 
C 71.381895 188.611388 75.403945 186.945401 78.369006 183.98034 
C 81.334067 181.015279 83.000054 176.993229 83.000054 172.8 
C 83.000054 168.606771 81.334067 164.584721 78.369006 161.61966 
C 75.403945 158.654599 71.381895 156.988612 67.188666 156.988612 
C 62.995437 156.988612 58.973387 158.654599 56.008326 161.61966 
C 53.043265 164.584721 51.377278 168.606771 51.377278 172.8 
C 51.377278 176.993229 53.043265 181.015279 56.008326 183.98034 
C 58.973387 186.945401 62.995437 188.611388 67.188666 188.611388 
z
" clip-path="url(#p47924fa4d4)" style="fill: #0000ff; stroke: #000000"/>
    <path d="M 230.4 45.801471 
C 234.593229 45.801471 238.615279 44.135483 241.58034 41.170423 
C 244.545401 38.205362 246.211388 34.183312 246.211388 29.990083 
C 246.211388 25.796853 244.545401 21.774804 241.58034 18.809743 
C 238.615279 15.844682 234.593229 14.178694 230.4 14.178694 
C 226.206771 14.178694 222.184721 15.844682 219.21966 18.809743 
C 216.254599 21.774804 214.588612 25.796853 214.588612 29.990083 
C 214.588612 34.183312 216.254599 38.205362 219.21966 41.170423 
C 222.184721 44.135483 226.206771 45.801471 230.4 45.801471 
z
" clip-path="url(#p47924fa4d4)" style="fill: #0000ff; stroke: #000000"/>
   </g>
   <g id="PathCollection_3">
    <path d="M 293.871074 286.462628 
C 298.064304 286.462628 302.086353 284.79664 305.051414 281.83158 
C 308.016475 278.866519 309.682463 274.844469 309.682463 270.65124 
C 309.682463 266.45801 308.016475 262.435961 305.051414 259.4709 
C 302.086353 256.505839 298.064304 254.839851 293.871074 254.839851 
C 289.677845 254.839851 285.655795 256.505839 282.690734 259.4709 
C 279.725674 262.435961 278.059686 266.45801 278.059686 270.65124 
C 278.059686 274.844469 279.725674 278.866519 282.690734 281.83158 
C 285.655795 284.79664 289.677845 286.462628 293.871074 286.462628 
z
" clip-path="url(#p47924fa4d4)" style="fill: #ffff00; stroke: #000000"/>
    <path d="M 166.928926 286.462628 
C 171.122155 286.462628 175.144205 284.79664 178.109266 281.83158 
C 181.074326 278.866519 182.740314 274.844469 182.740314 270.65124 
C 182.740314 266.45801 181.074326 262.435961 178.109266 259.4709 
C 175.144205 256.505839 171.122155 254.839851 166.928926 254.839851 
C 162.735696 254.839851 158.713647 256.505839 155.748586 259.4709 
C 152.783525 262.435961 151.117537 266.45801 151.117537 270.65124 
C 151.117537 274.844469 152.783525 278.866519 155.748586 281.83158 
C 158.713647 284.79664 162.735696 286.462628 166.928926 286.462628 
z
" clip-path="url(#p47924fa4d4)" style="fill: #ffff00; stroke: #000000"/>
    <path d="M 420.813223 175.388248 
C 425.006452 175.388248 429.028502 173.72226 431.993563 170.757199 
C 434.958624 167.792139 436.624611 163.770089 436.624611 159.57686 
C 436.624611 155.38363 434.958624 151.36158 431.993563 148.39652 
C 429.028502 145.431459 425.006452 143.765471 420.813223 143.765471 
C 416.619994 143.765471 412.597944 145.431459 409.632883 148.39652 
C 406.667822 151.36158 405.001835 155.38363 405.001835 159.57686 
C 405.001835 163.770089 406.667822 167.792139 409.632883 170.757199 
C 412.597944 173.72226 416.619994 175.388248 420.813223 175.388248 
z
" clip-path="url(#p47924fa4d4)" style="fill: #0000ff; stroke: #000000"/>
    <path d="M 293.871074 175.388248 
C 298.064304 175.388248 302.086353 173.72226 305.051414 170.757199 
C 308.016475 167.792139 309.682463 163.770089 309.682463 159.57686 
C 309.682463 155.38363 308.016475 151.36158 305.051414 148.39652 
C 302.086353 145.431459 298.064304 143.765471 293.871074 143.765471 
C 289.677845 143.765471 285.655795 145.431459 282.690734 148.39652 
C 279.725674 151.36158 278.059686 155.38363 278.059686 159.57686 
C 278.059686 163.770089 279.725674 167.792139 282.690734 170.757199 
C 285.655795 173.72226 289.677845 175.388248 293.871074 175.388248 
z
" clip-path="url(#p47924fa4d4)" style="fill: #0000ff; stroke: #000000"/>
    <path d="M 166.928926 175.388248 
C 171.122155 175.388248 175.144205 173.72226 178.109266 170.757199 
C 181.074326 167.792139 182.740314 163.770089 182.740314 159.57686 
C 182.740314 155.38363 181.074326 151.36158 178.109266 148.39652 
C 175.144205 145.431459 171.122155 143.765471 166.928926 143.765471 
C 162.735696 143.765471 158.713647 145.431459 155.748586 148.39652 
C 152.783525 151.36158 151.117537 155.38363 151.117537 159.57686 
C 151.117537 163.770089 152.783525 167.792139 155.748586 170.757199 
C 158.713647 173.72226 162.735696 175.388248 166.928926 175.388248 
z
" clip-path="url(#p47924fa4d4)" style="fill: #0000ff; stroke: #000000"/>
    <path d="M 39.986777 175.388248 
C 44.180006 175.388248 48.202056 173.72226 51.167117 170.757199 
C 54.132178 167.792139 55.798165 163.770089 55.798165 159.57686 
C 55.798165 155.38363 54.132178 151.36158 51.167117 148.39652 
C 48.202056 145.431459 44.180006 143.765471 39.986777 143.765471 
C 35.793548 143.765471 31.771498 145.431459 28.806437 148.39652 
C 25.841376 151.36158 24.175389 155.38363 24.175389 159.57686 
C 24.175389 163.770089 25.841376 167.792139 28.806437 170.757199 
C 31.771498 173.72226 35.793548 175.388248 39.986777 175.388248 
z
" clip-path="url(#p47924fa4d4)" style="fill: #0000ff; stroke: #000000"/>
   </g>
   <g id="PathCollection_4">
    <path d="M 293.871074 286.462628 
C 298.064304 286.462628 302.086353 284.79664 305.051414 281.83158 
C 308.016475 278.866519 309.682463 274.844469 309.682463 270.65124 
C 309.682463 266.45801 308.016475 262.435961 305.051414 259.4709 
C 302.086353 256.505839 298.064304 254.839851 293.871074 254.839851 
C 289.677845 254.839851 285.655795 256.505839 282.690734 259.4709 
C 279.725674 262.435961 278.059686 266.45801 278.059686 270.65124 
C 278.059686 274.844469 279.725674 278.866519 282.690734 281.83158 
C 285.655795 284.79664 289.677845 286.462628 293.871074 286.462628 
z
" clip-path="url(#p47924fa4d4)" style="fill: #ffff00; stroke: #000000"/>
    <path d="M 166.928926 286.462628 
C 171.122155 286.462628 175.144205 284.79664 178.109266 281.83158 
C 181.074326 278.866519 182.740314 274.844469 182.740314 270.65124 
C 182.740314 266.45801 181.074326 262.435961 178.109266 259.4709 
C 175.144205 256.505839 171.122155 254.839851 166.928926 254.839851 
C 162.735696 254.839851 158.713647 256.505839 155.748586 259.4709 
C 152.783525 262.435961 151.117537 266.45801 151.117537 270.65124 
C 151.117537 274.844469 152.783525 278.866519 155.748586 281.83158 
C 158.713647 284.79664 162.735696 286.462628 166.928926 286.462628 
z
" clip-path="url(#p47924fa4d4)" style="fill: #ffff00; stroke: #000000"/>
    <path d="M 420.813223 175.388248 
C 425.006452 175.388248 429.028502 173.72226 431.993563 170.757199 
C 434.958624 167.792139 436.624611 163.770089 436.624611 159.57686 
C 436.624611 155.38363 434.958624 151.36158 431.993563 148.39652 
C 429.028502 145.431459 425.006452 143.765471 420.813223 143.765471 
C 416.619994 143.765471 412.597944 145.431459 409.632883 148.39652 
C 406.667822 151.36158 405.001835 155.38363 405.001835 159.57686 
C 405.001835 163.770089 406.667822 167.792139 409.632883 170.757199 
C 412.597944 173.72226 416.619994 175.388248 420.813223 175.388248 
z
" clip-path="url(#p47924fa4d4)" style="fill: #0000ff; stroke: #000000"/>
    <path d="M 293.871074 175.388248 
C 298.064304 175.388248 302.086353 173.72226 305.051414 170.757199 
C 308.016475 167.792139 309.682463 163.770089 309.682463 159.57686 
C 309.682463 155.38363 308.016475 151.36158 305.051414 148.39652 
C 302.086353 145.431459 298.064304 143.765471 293.871074 143.765471 
C 289.677845 143.765471 285.655795 145.431459 282.690734 148.39652 
C 279.725674 151.36158 278.059686 155.38363 278.059686 159.57686 
C 278.059686 163.770089 279.725674 167.792139 282.690734 170.757199 
C 285.655795 173.72226 289.677845 175.388248 293.871074 175.388248 
z
" clip-path="url(#p47924fa4d4)" style="fill: #0000ff; stroke: #000000"/>
    <path d="M 166.928926 175.388248 
C 171.122155 175.388248 175.144205 173.72226 178.109266 170.757199 
C 181.074326 167.792139 182.740314 163.770089 182.740314 159.57686 
C 182.740314 155.38363 181.074326 151.36158 178.109266 148.39652 
C 175.144205 145.431459 171.122155 143.765471 166.928926 143.765471 
C 162.735696 143.765471 158.713647 145.431459 155.748586 148.39652 
C 152.783525 151.36158 151.117537 155.38363 151.117537 159.57686 
C 151.117537 163.770089 152.783525 167.792139 155.748586 170.757199 
C 158.713647 173.72226 162.735696 175.388248 166.928926 175.388248 
z
" clip-path="url(#p47924fa4d4)" style="fill: #0000ff; stroke: #000000"/>
    <path d="M 39.986777 175.388248 
C 44.180006 175.388248 48.202056 173.72226 51.167117 170.757199 
C 54.132178 167.792139 55.798165 163.770089 55.798165 159.57686 
C 55.798165 155.38363 54.132178 151.36158 51.167117 148.39652 
C 48.202056 145.431459 44.180006 143.765471 39.986777 143.765471 
C 35.793548 143.765471 31.771498 145.431459 28.806437 148.39652 
C 25.841376 151.36158 24.175389 155.38363 24.175389 159.57686 
C 24.175389 163.770089 25.841376 167.792139 28.806437 170.757199 
C 31.771498 173.72226 35.793548 175.388248 39.986777 175.388248 
z
" clip-path="url(#p47924fa4d4)" style="fill: #0000ff; stroke: #000000"/>
   </g>
   <g id="PathCollection_5">
    <path d="M 293.871074 286.462628 
C 298.064304 286.462628 302.086353 284.79664 305.051414 281.83158 
C 308.016475 278.866519 309.682463 274.844469 309.682463 270.65124 
C 309.682463 266.45801 308.016475 262.435961 305.051414 259.4709 
C 302.086353 256.505839 298.064304 254.839851 293.871074 254.839851 
C 289.677845 254.839851 285.655795 256.505839 282.690734 259.4709 
C 279.725674 262.435961 278.059686 266.45801 278.059686 270.65124 
C 278.059686 274.844469 279.725674 278.866519 282.690734 281.83158 
C 285.655795 284.79664 289.677845 286.462628 293.871074 286.462628 
z
" clip-path="url(#p47924fa4d4)" style="fill: #ffff00; stroke: #000000"/>
    <path d="M 166.928926 286.462628 
C 171.122155 286.462628 175.144205 284.79664 178.109266 281.83158 
C 181.074326 278.866519 182.740314 274.844469 182.740314 270.65124 
C 182.740314 266.45801 181.074326 262.435961 178.109266 259.4709 
C 175.144205 256.505839 171.122155 254.839851 166.928926 254.839851 
C 162.735696 254.839851 158.713647 256.505839 155.748586 259.4709 
C 152.783525 262.435961 151.117537 266.45801 151.117537 270.65124 
C 151.117537 274.844469 152.783525 278.866519 155.748586 281.83158 
C 158.713647 284.79664 162.735696 286.462628 166.928926 286.462628 
z
" clip-path="url(#p47924fa4d4)" style="fill: #ffff00; stroke: #000000"/>
    <path d="M 420.813223 175.388248 
C 425.006452 175.388248 429.028502 173.72226 431.993563 170.757199 
C 434.958624 167.792139 436.624611 163.770089 436.624611 159.57686 
C 436.624611 155.38363 434.958624 151.36158 431.993563 148.39652 
C 429.028502 145.431459 425.006452 143.765471 420.813223 143.765471 
C 416.619994 143.765471 412.597944 145.431459 409.632883 148.39652 
C 406.667822 151.36158 405.001835 155.38363 405.001835 159.57686 
C 405.001835 163.770089 406.667822 167.792139 409.632883 170.757199 
C 412.597944 173.72226 416.619994 175.388248 420.813223 175.388248 
z
" clip-path="url(#p47924fa4d4)" style="fill: #0000ff; stroke: #000000"/>
    <path d="M 293.871074 175.388248 
C 298.064304 175.388248 302.086353 173.72226 305.051414 170.757199 
C 308.016475 167.792139 309.682463 163.770089 309.682463 159.57686 
C 309.682463 155.38363 308.016475 151.36158 305.051414 148.39652 
C 302.086353 145.431459 298.064304 143.765471 293.871074 143.765471 
C 289.677845 143.765471 285.655795 145.431459 282.690734 148.39652 
C 279.725674 151.36158 278.059686 155.38363 278.059686 159.57686 
C 278.059686 163.770089 279.725674 167.792139 282.690734 170.757199 
C 285.655795 173.72226 289.677845 175.388248 293.871074 175.388248 
z
" clip-path="url(#p47924fa4d4)" style="fill: #0000ff; stroke: #000000"/>
    <path d="M 166.928926 175.388248 
C 171.122155 175.388248 175.144205 173.72226 178.109266 170.757199 
C 181.074326 167.792139 182.740314 163.770089 182.740314 159.57686 
C 182.740314 155.38363 181.074326 151.36158 178.109266 148.39652 
C 175.144205 145.431459 171.122155 143.765471 166.928926 143.765471 
C 162.735696 143.765471 158.713647 145.431459 155.748586 148.39652 
C 152.783525 151.36158 151.117537 155.38363 151.117537 159.57686 
C 151.117537 163.770089 152.783525 167.792139 155.748586 170.757199 
C 158.713647 173.72226 162.735696 175.388248 166.928926 175.388248 
z
" clip-path="url(#p47924fa4d4)" style="fill: #0000ff; stroke: #000000"/>
    <path d="M 39.986777 175.388248 
C 44.180006 175.388248 48.202056 173.72226 51.167117 170.757199 
C 54.132178 167.792139 55.798165 163.770089 55.798165 159.57686 
C 55.798165 155.38363 54.132178 151.36158 51.167117 148.39652 
C 48.202056 145.431459 44.180006 143.765471 39.986777 143.765471 
C 35.793548 143.765471 31.771498 145.431459 28.806437 148.39652 
C 25.841376 151.36158 24.175389 155.38363 24.175389 159.57686 
C 24.175389 163.770089 25.841376 167.792139 28.806437 170.757199 
C 31.771498 173.72226 35.793548 175.388248 39.986777 175.388248 
z
" clip-path="url(#p47924fa4d4)" style="fill: #0000ff; stroke: #000000"/>
   </g>
   <g id="text_1">
    <g clip-path="url(#p47924fa4d4)">
     <!-- 0 -->
     <g transform="translate(279.756349 300.787475) scale(0.06 -0.06)">
      <defs>
       <path id="DejaVuSans-30" d="M 2034 4250 
Q 1547 4250 1301 3770 
Q 1056 3291 1056 2328 
Q 1056 1369 1301 889 
Q 1547 409 2034 409 
Q 2525 409 2770 889 
Q 3016 1369 3016 2328 
Q 3016 3291 2770 3770 
Q 2525 4250 2034 4250 
z
M 2034 4750 
Q 2819 4750 3233 4129 
Q 3647 3509 3647 2328 
Q 3647 1150 3233 529 
Q 2819 -91 2034 -91 
Q 1250 -91 836 529 
Q 422 1150 422 2328 
Q 422 3509 836 4129 
Q 1250 4750 2034 4750 
z
" transform="scale(0.015625)"/>
      </defs>
      <use xlink:href="#DejaVuSans-30"/>
     </g>
    </g>
   </g>
   <g id="text_2">
    <g clip-path="url(#p47924fa4d4)">
     <!-- 1 -->
     <g transform="translate(177.226151 300.787475) scale(0.06 -0.06)">
      <defs>
       <path id="DejaVuSans-31" d="M 794 531 
L 1825 531 
L 1825 4091 
L 703 3866 
L 703 4441 
L 1819 4666 
L 2450 4666 
L 2450 531 
L 3481 531 
L 3481 0 
L 794 0 
L 794 531 
z
" transform="scale(0.015625)"/>
      </defs>
      <use xlink:href="#DejaVuSans-31"/>
     </g>
    </g>
   </g>
   <g id="text_3">
    <g clip-path="url(#p47924fa4d4)">
     <!-- 4 -->
     <g transform="translate(331.021447 211.073553) scale(0.06 -0.06)">
      <defs>
       <path id="DejaVuSans-34" d="M 2419 4116 
L 825 1625 
L 2419 1625 
L 2419 4116 
z
M 2253 4666 
L 3047 4666 
L 3047 1625 
L 3713 1625 
L 3713 1100 
L 3047 1100 
L 3047 0 
L 2419 0 
L 2419 1100 
L 313 1100 
L 313 1709 
L 2253 4666 
z
" transform="scale(0.015625)"/>
      </defs>
      <use xlink:href="#DejaVuSans-34"/>
     </g>
    </g>
   </g>
   <g id="text_4">
    <g clip-path="url(#p47924fa4d4)">
     <!-- 5 -->
     <g transform="translate(228.49125 211.073553) scale(0.06 -0.06)">
      <defs>
       <path id="DejaVuSans-35" d="M 691 4666 
L 3169 4666 
L 3169 4134 
L 1269 4134 
L 1269 2991 
Q 1406 3038 1543 3061 
Q 1681 3084 1819 3084 
Q 2600 3084 3056 2656 
Q 3513 2228 3513 1497 
Q 3513 744 3044 326 
Q 2575 -91 1722 -91 
Q 1428 -91 1123 -41 
Q 819 9 494 109 
L 494 744 
Q 775 591 1075 516 
Q 1375 441 1709 441 
Q 2250 441 2565 725 
Q 2881 1009 2881 1497 
Q 2881 1984 2565 2268 
Q 2250 2553 1709 2553 
Q 1456 2553 1204 2497 
Q 953 2441 691 2322 
L 691 4666 
z
" transform="scale(0.015625)"/>
      </defs>
      <use xlink:href="#DejaVuSans-35"/>
     </g>
    </g>
   </g>
   <g id="text_5">
    <g clip-path="url(#p47924fa4d4)">
     <!-- 6 -->
     <g transform="translate(125.961053 207.714209) scale(0.06 -0.06)">
      <defs>
       <path id="DejaVuSans-36" d="M 2113 2584 
Q 1688 2584 1439 2293 
Q 1191 2003 1191 1497 
Q 1191 994 1439 701 
Q 1688 409 2113 409 
Q 2538 409 2786 701 
Q 3034 994 3034 1497 
Q 3034 2003 2786 2293 
Q 2538 2584 2113 2584 
z
M 3366 4563 
L 3366 3988 
Q 3128 4100 2886 4159 
Q 2644 4219 2406 4219 
Q 1781 4219 1451 3797 
Q 1122 3375 1075 2522 
Q 1259 2794 1537 2939 
Q 1816 3084 2150 3084 
Q 2853 3084 3261 2657 
Q 3669 2231 3669 1497 
Q 3669 778 3244 343 
Q 2819 -91 2113 -91 
Q 1303 -91 875 529 
Q 447 1150 447 2328 
Q 447 3434 972 4092 
Q 1497 4750 2381 4750 
Q 2619 4750 2861 4703 
Q 3103 4656 3366 4563 
z
" transform="scale(0.015625)"/>
      </defs>
      <use xlink:href="#DejaVuSans-36"/>
     </g>
    </g>
    <g clip-path="url(#p47924fa4d4)">
     <!-- SGM -->
     <g transform="translate(121.052303 214.432896) scale(0.06 -0.06)">
      <defs>
       <path id="DejaVuSans-53" d="M 3425 4513 
L 3425 3897 
Q 3066 4069 2747 4153 
Q 2428 4238 2131 4238 
Q 1616 4238 1336 4038 
Q 1056 3838 1056 3469 
Q 1056 3159 1242 3001 
Q 1428 2844 1947 2747 
L 2328 2669 
Q 3034 2534 3370 2195 
Q 3706 1856 3706 1288 
Q 3706 609 3251 259 
Q 2797 -91 1919 -91 
Q 1588 -91 1214 -16 
Q 841 59 441 206 
L 441 856 
Q 825 641 1194 531 
Q 1563 422 1919 422 
Q 2459 422 2753 634 
Q 3047 847 3047 1241 
Q 3047 1584 2836 1778 
Q 2625 1972 2144 2069 
L 1759 2144 
Q 1053 2284 737 2584 
Q 422 2884 422 3419 
Q 422 4038 858 4394 
Q 1294 4750 2059 4750 
Q 2388 4750 2728 4690 
Q 3069 4631 3425 4513 
z
" transform="scale(0.015625)"/>
       <path id="DejaVuSans-47" d="M 3809 666 
L 3809 1919 
L 2778 1919 
L 2778 2438 
L 4434 2438 
L 4434 434 
Q 4069 175 3628 42 
Q 3188 -91 2688 -91 
Q 1594 -91 976 548 
Q 359 1188 359 2328 
Q 359 3472 976 4111 
Q 1594 4750 2688 4750 
Q 3144 4750 3555 4637 
Q 3966 4525 4313 4306 
L 4313 3634 
Q 3963 3931 3569 4081 
Q 3175 4231 2741 4231 
Q 1884 4231 1454 3753 
Q 1025 3275 1025 2328 
Q 1025 1384 1454 906 
Q 1884 428 2741 428 
Q 3075 428 3337 486 
Q 3600 544 3809 666 
z
" transform="scale(0.015625)"/>
       <path id="DejaVuSans-4d" d="M 628 4666 
L 1569 4666 
L 2759 1491 
L 3956 4666 
L 4897 4666 
L 4897 0 
L 4281 0 
L 4281 4097 
L 3078 897 
L 2444 897 
L 1241 4097 
L 1241 0 
L 628 0 
L 628 4666 
z
" transform="scale(0.015625)"/>
      </defs>
      <use xlink:href="#DejaVuSans-53"/>
      <use xlink:href="#DejaVuSans-47" x="63.476562"/>
      <use xlink:href="#DejaVuSans-4d" x="140.966797"/>
     </g>
    </g>
   </g>
   <g id="text_6">
    <g clip-path="url(#p47924fa4d4)">
     <!-- 2 -->
     <g transform="translate(228.49125 121.35963) scale(0.06 -0.06)">
      <defs>
       <path id="DejaVuSans-32" d="M 1228 531 
L 3431 531 
L 3431 0 
L 469 0 
L 469 531 
Q 828 903 1448 1529 
Q 2069 2156 2228 2338 
Q 2531 2678 2651 2914 
Q 2772 3150 2772 3378 
Q 2772 3750 2511 3984 
Q 2250 4219 1831 4219 
Q 1534 4219 1204 4116 
Q 875 4013 500 3803 
L 500 4441 
Q 881 4594 1212 4672 
Q 1544 4750 1819 4750 
Q 2544 4750 2975 4387 
Q 3406 4025 3406 3419 
Q 3406 3131 3298 2873 
Q 3191 2616 2906 2266 
Q 2828 2175 2409 1742 
Q 1991 1309 1228 531 
z
" transform="scale(0.015625)"/>
      </defs>
      <use xlink:href="#DejaVuSans-32"/>
     </g>
    </g>
   </g>
   <g id="text_7">
    <g clip-path="url(#p47924fa4d4)">
     <!-- 3 -->
     <g transform="translate(228.49125 31.645708) scale(0.06 -0.06)">
      <defs>
       <path id="DejaVuSans-33" d="M 2597 2516 
Q 3050 2419 3304 2112 
Q 3559 1806 3559 1356 
Q 3559 666 3084 287 
Q 2609 -91 1734 -91 
Q 1441 -91 1130 -33 
Q 819 25 488 141 
L 488 750 
Q 750 597 1062 519 
Q 1375 441 1716 441 
Q 2309 441 2620 675 
Q 2931 909 2931 1356 
Q 2931 1769 2642 2001 
Q 2353 2234 1838 2234 
L 1294 2234 
L 1294 2753 
L 1863 2753 
Q 2328 2753 2575 2939 
Q 2822 3125 2822 3475 
Q 2822 3834 2567 4026 
Q 2313 4219 1838 4219 
Q 1578 4219 1281 4162 
Q 984 4106 628 3988 
L 628 4550 
Q 988 4650 1302 4700 
Q 1616 4750 1894 4750 
Q 2613 4750 3031 4423 
Q 3450 4097 3450 3541 
Q 3450 3153 3228 2886 
Q 3006 2619 2597 2516 
z
" transform="scale(0.015625)"/>
      </defs>
      <use xlink:href="#DejaVuSans-33"/>
     </g>
    </g>
   </g>
   <g id="text_8">
    <g clip-path="url(#p47924fa4d4)">
     <!-- 0 -->
     <g transform="translate(310.096917 317.265542) scale(0.06 -0.06)">
      <use xlink:href="#DejaVuSans-30"/>
     </g>
    </g>
   </g>
   <g id="text_9">
    <g clip-path="url(#p47924fa4d4)">
     <!-- 1 -->
     <g transform="translate(146.885583 317.265542) scale(0.06 -0.06)">
      <use xlink:href="#DejaVuSans-31"/>
     </g>
    </g>
   </g>
   <g id="text_10">
    <g clip-path="url(#p47924fa4d4)">
     <!-- 3 -->
     <g transform="translate(391.702584 174.455625) scale(0.06 -0.06)">
      <use xlink:href="#DejaVuSans-33"/>
     </g>
    </g>
   </g>
   <g id="text_11">
    <g clip-path="url(#p47924fa4d4)">
     <!-- 4 -->
     <g transform="translate(228.49125 174.455625) scale(0.06 -0.06)">
      <use xlink:href="#DejaVuSans-34"/>
     </g>
    </g>
   </g>
   <g id="text_12">
    <g clip-path="url(#p47924fa4d4)">
     <!-- 5 -->
     <g transform="translate(65.279916 174.455625) scale(0.06 -0.06)">
      <use xlink:href="#DejaVuSans-35"/>
     </g>
    </g>
   </g>
   <g id="text_13">
    <g clip-path="url(#p47924fa4d4)">
     <!-- 2 -->
     <g transform="translate(228.49125 31.645708) scale(0.06 -0.06)">
      <use xlink:href="#DejaVuSans-32"/>
     </g>
    </g>
   </g>
   <g id="text_14">
    <g clip-path="url(#p47924fa4d4)">
     <!-- 0 -->
     <g transform="translate(291.962324 272.306865) scale(0.06 -0.06)">
      <use xlink:href="#DejaVuSans-30"/>
     </g>
    </g>
   </g>
   <g id="text_15">
    <g clip-path="url(#p47924fa4d4)">
     <!-- 1 -->
     <g transform="translate(165.020176 272.306865) scale(0.06 -0.06)">
      <use xlink:href="#DejaVuSans-31"/>
     </g>
    </g>
   </g>
   <g id="text_16">
    <g clip-path="url(#p47924fa4d4)">
     <!-- 2 -->
     <g transform="translate(418.904473 161.232485) scale(0.06 -0.06)">
      <use xlink:href="#DejaVuSans-32"/>
     </g>
    </g>
   </g>
   <g id="text_17">
    <g clip-path="url(#p47924fa4d4)">
     <!-- 3 -->
     <g transform="translate(291.962324 161.232485) scale(0.06 -0.06)">
      <use xlink:href="#DejaVuSans-33"/>
     </g>
    </g>
   </g>
   <g id="text_18">
    <g clip-path="url(#p47924fa4d4)">
     <!-- 4 -->
     <g transform="translate(165.020176 161.232485) scale(0.06 -0.06)">
      <use xlink:href="#DejaVuSans-34"/>
     </g>
    </g>
   </g>
   <g id="text_19">
    <g clip-path="url(#p47924fa4d4)">
     <!-- 5 -->
     <g transform="translate(38.078027 161.232485) scale(0.06 -0.06)">
      <use xlink:href="#DejaVuSans-35"/>
     </g>
    </g>
   </g>
   <g id="text_20">
    <g clip-path="url(#p47924fa4d4)">
     <!-- 0 -->
     <g transform="translate(291.962324 272.306865) scale(0.06 -0.06)">
      <use xlink:href="#DejaVuSans-30"/>
     </g>
    </g>
   </g>
   <g id="text_21">
    <g clip-path="url(#p47924fa4d4)">
     <!-- 1 -->
     <g transform="translate(165.020176 272.306865) scale(0.06 -0.06)">
      <use xlink:href="#DejaVuSans-31"/>
     </g>
    </g>
   </g>
   <g id="text_22">
    <g clip-path="url(#p47924fa4d4)">
     <!-- 2 -->
     <g transform="translate(418.904473 161.232485) scale(0.06 -0.06)">
      <use xlink:href="#DejaVuSans-32"/>
     </g>
    </g>
   </g>
   <g id="text_23">
    <g clip-path="url(#p47924fa4d4)">
     <!-- 3 -->
     <g transform="translate(291.962324 161.232485) scale(0.06 -0.06)">
      <use xlink:href="#DejaVuSans-33"/>
     </g>
    </g>
   </g>
   <g id="text_24">
    <g clip-path="url(#p47924fa4d4)">
     <!-- 4 -->
     <g transform="translate(165.020176 161.232485) scale(0.06 -0.06)">
      <use xlink:href="#DejaVuSans-34"/>
     </g>
    </g>
   </g>
   <g id="text_25">
    <g clip-path="url(#p47924fa4d4)">
     <!-- 5 -->
     <g transform="translate(38.078027 161.232485) scale(0.06 -0.06)">
      <use xlink:href="#DejaVuSans-35"/>
     </g>
    </g>
   </g>
   <g id="text_26">
    <g clip-path="url(#p47924fa4d4)">
     <!-- 0 -->
     <g transform="translate(291.962324 272.306865) scale(0.06 -0.06)">
      <use xlink:href="#DejaVuSans-30"/>
     </g>
    </g>
   </g>
   <g id="text_27">
    <g clip-path="url(#p47924fa4d4)">
     <!-- 1 -->
     <g transform="translate(165.020176 272.306865) scale(0.06 -0.06)">
      <use xlink:href="#DejaVuSans-31"/>
     </g>
    </g>
   </g>
   <g id="text_28">
    <g clip-path="url(#p47924fa4d4)">
     <!-- 2 -->
     <g transform="translate(418.904473 161.232485) scale(0.06 -0.06)">
      <use xlink:href="#DejaVuSans-32"/>
     </g>
    </g>
   </g>
   <g id="text_29">
    <g clip-path="url(#p47924fa4d4)">
     <!-- 3 -->
     <g transform="translate(291.962324 161.232485) scale(0.06 -0.06)">
      <use xlink:href="#DejaVuSans-33"/>
     </g>
    </g>
   </g>
   <g id="text_30">
    <g clip-path="url(#p47924fa4d4)">
     <!-- 4 -->
     <g transform="translate(165.020176 161.232485) scale(0.06 -0.06)">
      <use xlink:href="#DejaVuSans-34"/>
     </g>
    </g>
   </g>
   <g id="text_31">
    <g clip-path="url(#p47924fa4d4)">
     <!-- 5 -->
     <g transform="translate(38.078027 161.232485) scale(0.06 -0.06)">
      <use xlink:href="#DejaVuSans-35"/>
     </g>
    </g>
   </g>
  </g>
 </g>
 <defs>
  <clipPath id="p47924fa4d4">
   <rect x="0" y="0" width="460.8" height="345.6"/>
  </clipPath>
 </defs>
</svg>
