<?xml version="1.0" encoding="utf-8" standalone="no"?>
<!DOCTYPE svg PUBLIC "-//W3C//DTD SVG 1.1//EN"
  "http://www.w3.org/Graphics/SVG/1.1/DTD/svg11.dtd">
<svg xmlns:xlink="http://www.w3.org/1999/xlink" width="460.8pt" height="345.6pt" viewBox="0 0 460.8 345.6" xmlns="http://www.w3.org/2000/svg" version="1.1">
 <metadata>
  <rdf:RDF xmlns:dc="http://purl.org/dc/elements/1.1/" xmlns:cc="http://creativecommons.org/ns#" xmlns:rdf="http://www.w3.org/1999/02/22-rdf-syntax-ns#">
   <cc:Work>
    <dc:type rdf:resource="http://purl.org/dc/dcmitype/StillImage"/>
    <dc:date>2024-11-14T07:01:22.660239</dc:date>
    <dc:format>image/svg+xml</dc:format>
    <dc:creator>
     <cc:Agent>
      <dc:title>Matplotlib v3.9.2, https://matplotlib.org/</dc:title>
     </cc:Agent>
    </dc:creator>
   </cc:Work>
  </rdf:RDF>
 </metadata>
 <defs>
  <style type="text/css">*{stroke-linejoin: round; stroke-linecap: butt}</style>
 </defs>
 <g id="figure_1">
  <g id="patch_1">
   <path d="M 0 345.6 
L 460.8 345.6 
L 460.8 0 
L 0 0 
z
" style="fill: #ffffff"/>
  </g>
  <g id="axes_1">
   <g id="patch_2">
    <path d="M 142.882128 309.794414 
Q 185.055716 264.521833 226.46723 220.067325 
" clip-path="url(#p39cff85009)" style="fill: none; stroke: #4c4c4c; stroke-linecap: round"/>
    <path d="M 225.210262 220.536401 
L 226.46723 220.067325 
L 226.08831 221.354345 
" clip-path="url(#p39cff85009)" style="fill: none; stroke: #4c4c4c; stroke-linecap: round"/>
   </g>
   <g id="patch_3">
    <path d="M 141.205191 308.571732 
Q 185.055221 230.118047 228.359772 152.640299 
" clip-path="url(#p39cff85009)" style="fill: none; stroke: #4c4c4c; stroke-linecap: round"/>
    <path d="M 227.25056 153.39505 
L 228.359772 152.640299 
L 228.298045 153.980519 
" clip-path="url(#p39cff85009)" style="fill: none; stroke: #4c4c4c; stroke-linecap: round"/>
   </g>
   <g id="patch_4">
    <path d="M 140.192867 308.084549 
Q 185.05617 195.711355 229.50493 84.376503 
" clip-path="url(#p39cff85009)" style="fill: none; stroke: #4c4c4c; stroke-linecap: round"/>
    <path d="M 228.502764 85.268502 
L 229.50493 84.376503 
L 229.617229 85.713435 
" clip-path="url(#p39cff85009)" style="fill: none; stroke: #4c4c4c; stroke-linecap: round"/>
   </g>
   <g id="patch_5">
    <path d="M 145.135649 313.210992 
Q 185.055782 298.926479 223.923245 285.018641 
" clip-path="url(#p39cff85009)" style="fill: none; stroke: #4c4c4c; stroke-linecap: round"/>
    <path d="M 222.591255 284.858008 
L 223.923245 285.018641 
L 222.995544 285.987853 
" clip-path="url(#p39cff85009)" style="fill: none; stroke: #4c4c4c; stroke-linecap: round"/>
   </g>
   <g id="patch_6">
    <path d="M 145.4012 245.309906 
Q 281.205632 212.913553 415.922545 180.776629 
" clip-path="url(#p39cff85009)" style="fill: none; stroke: #4c4c4c; stroke-linecap: round"/>
    <path d="M 414.616073 180.471454 
L 415.922545 180.776629 
L 414.894522 181.638701 
" clip-path="url(#p39cff85009)" style="fill: none; stroke: #4c4c4c; stroke-linecap: round"/>
   </g>
   <g id="patch_7">
    <path d="M 142.882128 240.98406 
Q 185.055716 195.711479 226.46723 151.256971 
" clip-path="url(#p39cff85009)" style="fill: none; stroke: #4c4c4c; stroke-linecap: round"/>
    <path d="M 225.210262 151.726047 
L 226.46723 151.256971 
L 226.08831 152.543991 
" clip-path="url(#p39cff85009)" style="fill: none; stroke: #4c4c4c; stroke-linecap: round"/>
   </g>
   <g id="patch_8">
    <path d="M 142.882128 172.173707 
Q 185.055716 126.901126 226.46723 82.446618 
" clip-path="url(#p39cff85009)" style="fill: none; stroke: #4c4c4c; stroke-linecap: round"/>
    <path d="M 225.210262 82.915694 
L 226.46723 82.446618 
L 226.08831 83.733638 
" clip-path="url(#p39cff85009)" style="fill: none; stroke: #4c4c4c; stroke-linecap: round"/>
   </g>
   <g id="patch_9">
    <path d="M 145.638876 178.508132 
Q 281.204234 178.508132 415.651558 178.508132 
" clip-path="url(#p39cff85009)" style="fill: none; stroke: #4c4c4c; stroke-linecap: round"/>
    <path d="M 414.451558 177.908132 
L 415.651558 178.508132 
L 414.451558 179.108132 
" clip-path="url(#p39cff85009)" style="fill: none; stroke: #4c4c4c; stroke-linecap: round"/>
   </g>
   <g id="patch_10">
    <path d="M 145.135649 112.615624 
Q 185.055782 126.900137 223.923245 140.807975 
" clip-path="url(#p39cff85009)" style="fill: none; stroke: #4c4c4c; stroke-linecap: round"/>
    <path d="M 222.995544 139.838763 
L 223.923245 140.807975 
L 222.591255 140.968608 
" clip-path="url(#p39cff85009)" style="fill: none; stroke: #4c4c4c; stroke-linecap: round"/>
   </g>
   <g id="patch_11">
    <path d="M 145.135649 106.779932 
Q 185.055782 92.495419 223.923245 78.587581 
" clip-path="url(#p39cff85009)" style="fill: none; stroke: #4c4c4c; stroke-linecap: round"/>
    <path d="M 222.591255 78.426948 
L 223.923245 78.587581 
L 222.995544 79.556793 
" clip-path="url(#p39cff85009)" style="fill: none; stroke: #4c4c4c; stroke-linecap: round"/>
   </g>
   <g id="patch_12">
    <path d="M 141.205191 117.254884 
Q 185.055221 195.708569 228.359772 273.186317 
" clip-path="url(#p39cff85009)" style="fill: none; stroke: #4c4c4c; stroke-linecap: round"/>
    <path d="M 228.298045 271.846097 
L 228.359772 273.186317 
L 227.25056 272.431567 
" clip-path="url(#p39cff85009)" style="fill: none; stroke: #4c4c4c; stroke-linecap: round"/>
   </g>
   <g id="patch_13">
    <path d="M 142.882128 116.032203 
Q 185.055716 161.304784 226.46723 205.759292 
" clip-path="url(#p39cff85009)" style="fill: none; stroke: #4c4c4c; stroke-linecap: round"/>
    <path d="M 226.08831 204.472272 
L 226.46723 205.759292 
L 225.210262 205.290216 
" clip-path="url(#p39cff85009)" style="fill: none; stroke: #4c4c4c; stroke-linecap: round"/>
   </g>
   <g id="patch_14">
    <path d="M 144.026494 45.929346 
Q 233.133391 109.699102 321.331096 172.818191 
" clip-path="url(#p39cff85009)" style="fill: none; stroke: #4c4c4c; stroke-linecap: round"/>
    <path d="M 320.704433 171.631897 
L 321.331096 172.818191 
L 320.006063 172.607745 
" clip-path="url(#p39cff85009)" style="fill: none; stroke: #4c4c4c; stroke-linecap: round"/>
   </g>
   <g id="patch_15">
    <path d="M 142.882128 47.22185 
Q 185.055716 92.49443 226.46723 136.948938 
" clip-path="url(#p39cff85009)" style="fill: none; stroke: #4c4c4c; stroke-linecap: round"/>
    <path d="M 226.08831 135.661919 
L 226.46723 136.948938 
L 225.210262 136.479862 
" clip-path="url(#p39cff85009)" style="fill: none; stroke: #4c4c4c; stroke-linecap: round"/>
   </g>
   <g id="patch_16">
    <path d="M 145.135649 43.805271 
Q 185.055782 58.089784 223.923245 71.997622 
" clip-path="url(#p39cff85009)" style="fill: none; stroke: #4c4c4c; stroke-linecap: round"/>
    <path d="M 222.995544 71.02841 
L 223.923245 71.997622 
L 222.591255 72.158255 
" clip-path="url(#p39cff85009)" style="fill: none; stroke: #4c4c4c; stroke-linecap: round"/>
   </g>
   <g id="patch_17">
    <path d="M 140.192867 48.931714 
Q 185.05617 161.304908 229.50493 272.63976 
" clip-path="url(#p39cff85009)" style="fill: none; stroke: #4c4c4c; stroke-linecap: round"/>
    <path d="M 229.617229 271.302828 
L 229.50493 272.63976 
L 228.502764 271.747761 
" clip-path="url(#p39cff85009)" style="fill: none; stroke: #4c4c4c; stroke-linecap: round"/>
   </g>
   <g id="patch_18">
    <path d="M 241.285883 209.995462 
Q 281.206017 195.710949 320.073479 181.803111 
" clip-path="url(#p39cff85009)" style="fill: none; stroke: #4c4c4c; stroke-linecap: round"/>
    <path d="M 318.741489 181.642478 
L 320.073479 181.803111 
L 319.145779 182.772323 
" clip-path="url(#p39cff85009)" style="fill: none; stroke: #4c4c4c; stroke-linecap: round"/>
   </g>
   <g id="patch_19">
    <path d="M 241.655602 211.388238 
Q 329.280012 195.711036 415.803863 180.230738 
" clip-path="url(#p39cff85009)" style="fill: none; stroke: #4c4c4c; stroke-linecap: round"/>
    <path d="M 414.51695 179.851457 
L 415.803863 180.230738 
L 414.72829 181.0327 
" clip-path="url(#p39cff85009)" style="fill: none; stroke: #4c4c4c; stroke-linecap: round"/>
   </g>
   <g id="patch_20">
    <path d="M 337.940813 178.508132 
Q 377.356975 178.508132 415.655103 178.508132 
" clip-path="url(#p39cff85009)" style="fill: none; stroke: #4c4c4c; stroke-linecap: round"/>
    <path d="M 414.455103 177.908132 
L 415.655103 178.508132 
L 414.455103 179.108132 
" clip-path="url(#p39cff85009)" style="fill: none; stroke: #4c4c4c; stroke-linecap: round"/>
   </g>
   <g id="patch_21">
    <path d="M 259.767398 276.397917 
Q 156.651453 239.500219 54.629052 202.993821 
" clip-path="url(#p39cff85009)" style="fill: none; stroke: #0000ff; stroke-width: 1.038827; stroke-linecap: round"/>
    <path d="M 57.10292 205.578387 
L 54.629052 202.993821 
L 58.181025 202.565466 
" clip-path="url(#p39cff85009)" style="fill: none; stroke: #0000ff; stroke-width: 1.038827; stroke-linecap: round"/>
   </g>
   <g id="patch_22">
    <path d="M 287.510675 272.520548 
Q 333.653458 239.498256 378.416409 207.463446 
" clip-path="url(#p39cff85009)" style="fill: none; stroke: #ff0000; stroke-width: 1.517644; stroke-linecap: round"/>
    <path d="M 374.882988 208.024635 
L 378.416409 207.463446 
L 376.745308 210.626896 
" clip-path="url(#p39cff85009)" style="fill: none; stroke: #ff0000; stroke-width: 1.517644; stroke-linecap: round"/>
   </g>
   <g id="patch_23">
    <path d="M 261.791245 272.520548 
Q 215.648463 239.498256 171.234637 207.713299 
" clip-path="url(#p39cff85009)" style="fill: none; stroke: #0000ff; stroke-width: 1.901639; stroke-linecap: round"/>
    <path d="M 172.905738 210.87675 
L 171.234637 207.713299 
L 174.768058 208.274488 
" clip-path="url(#p39cff85009)" style="fill: none; stroke: #0000ff; stroke-width: 1.901639; stroke-linecap: round"/>
   </g>
   <g id="patch_24">
    <path d="M 171.531962 276.397917 
Q 274.647906 239.500219 374.607374 203.731995 
" clip-path="url(#p39cff85009)" style="fill: none; stroke: #ff0000; stroke-width: 2.99854; stroke-linecap: round"/>
    <path d="M 371.055402 203.30364 
L 374.607374 203.731995 
L 372.133507 206.31656 
" clip-path="url(#p39cff85009)" style="fill: none; stroke: #ff0000; stroke-width: 2.99854; stroke-linecap: round"/>
   </g>
   <g id="patch_25">
    <path d="M 169.508115 272.520548 
Q 215.650897 239.498256 260.884487 207.126631 
" clip-path="url(#p39cff85009)" style="fill: none; stroke: #0000ff; stroke-linecap: round"/>
    <path d="M 257.351065 207.687821 
L 260.884487 207.126631 
L 259.213385 210.290082 
" clip-path="url(#p39cff85009)" style="fill: none; stroke: #0000ff; stroke-linecap: round"/>
   </g>
   <g id="patch_26">
    <path d="M 156.648399 265.912656 
Q 156.648399 197.276192 156.648399 129.34249 
" clip-path="url(#p39cff85009)" style="fill: none; stroke: #0000ff; stroke-width: 0.628569; stroke-linecap: round"/>
    <path d="M 155.048399 132.54249 
L 156.648399 129.34249 
L 158.248399 132.54249 
" clip-path="url(#p39cff85009)" style="fill: none; stroke: #0000ff; stroke-width: 0.628569; stroke-linecap: round"/>
   </g>
   <g id="patch_27">
    <path d="M 377.769958 191.948847 
Q 274.654014 155.051149 173.512279 118.859878 
" clip-path="url(#p39cff85009)" style="fill: none; stroke: #ff0000; stroke-width: 1.875428; stroke-linecap: round"/>
    <path d="M 175.986147 121.444443 
L 173.512279 118.859878 
L 177.064252 118.431522 
" clip-path="url(#p39cff85009)" style="fill: none; stroke: #ff0000; stroke-width: 1.875428; stroke-linecap: round"/>
   </g>
   <g id="patch_28">
    <path d="M 53.529401 191.948847 
Q 156.645346 155.051149 258.619124 118.56215 
" clip-path="url(#p39cff85009)" style="fill: none; stroke: #0000ff; stroke-width: 1.085017; stroke-linecap: round"/>
    <path d="M 255.067151 118.133795 
L 258.619124 118.56215 
L 256.145256 121.146715 
" clip-path="url(#p39cff85009)" style="fill: none; stroke: #0000ff; stroke-width: 1.085017; stroke-linecap: round"/>
   </g>
   <g id="patch_29">
    <path d="M 165.703497 99.864878 
Q 186.148844 70.601267 206.403829 41.610122 
" clip-path="url(#p39cff85009)" style="fill: none; stroke: #ff0000; stroke-width: 0.297289; stroke-linecap: round"/>
    <path d="M 203.259512 43.316953 
L 206.403829 41.610122 
L 205.882703 45.149674 
" clip-path="url(#p39cff85009)" style="fill: none; stroke: #ff0000; stroke-width: 0.297289; stroke-linecap: round"/>
   </g>
   <g id="PathCollection_1">
    <path d="M 136.981306 324.789092 
C 139.278032 324.789092 141.481 323.876593 143.10503 322.252563 
C 144.729061 320.628532 145.64156 318.425565 145.64156 316.128838 
C 145.64156 313.832112 144.729061 311.629145 143.10503 310.005114 
C 141.481 308.381083 139.278032 307.468584 136.981306 307.468584 
C 134.68458 307.468584 132.481612 308.381083 130.857582 310.005114 
C 129.233551 311.629145 128.321052 313.832112 128.321052 316.128838 
C 128.321052 318.425565 129.233551 320.628532 130.857582 322.252563 
C 132.481612 323.876593 134.68458 324.789092 136.981306 324.789092 
z
" clip-path="url(#p39cff85009)" style="fill: #ffff00; stroke: #000000"/>
    <path d="M 136.981306 255.978739 
C 139.278032 255.978739 141.481 255.06624 143.10503 253.442209 
C 144.729061 251.818179 145.64156 249.615211 145.64156 247.318485 
C 145.64156 245.021759 144.729061 242.818791 143.10503 241.194761 
C 141.481 239.57073 139.278032 238.658231 136.981306 238.658231 
C 134.68458 238.658231 132.481612 239.57073 130.857582 241.194761 
C 129.233551 242.818791 128.321052 245.021759 128.321052 247.318485 
C 128.321052 249.615211 129.233551 251.818179 130.857582 253.442209 
C 132.481612 255.06624 134.68458 255.978739 136.981306 255.978739 
z
" clip-path="url(#p39cff85009)" style="fill: #ffff00; stroke: #000000"/>
    <path d="M 136.981306 187.168386 
C 139.278032 187.168386 141.481 186.255887 143.10503 184.631856 
C 144.729061 183.007825 145.64156 180.804858 145.64156 178.508132 
C 145.64156 176.211405 144.729061 174.008438 143.10503 172.384407 
C 141.481 170.760377 139.278032 169.847878 136.981306 169.847878 
C 134.68458 169.847878 132.481612 170.760377 130.857582 172.384407 
C 129.233551 174.008438 128.321052 176.211405 128.321052 178.508132 
C 128.321052 180.804858 129.233551 183.007825 130.857582 184.631856 
C 132.481612 186.255887 134.68458 187.168386 136.981306 187.168386 
z
" clip-path="url(#p39cff85009)" style="fill: #ffff00; stroke: #000000"/>
    <path d="M 136.981306 118.358032 
C 139.278032 118.358032 141.481 117.445533 143.10503 115.821503 
C 144.729061 114.197472 145.64156 111.994504 145.64156 109.697778 
C 145.64156 107.401052 144.729061 105.198085 143.10503 103.574054 
C 141.481 101.950023 139.278032 101.037524 136.981306 101.037524 
C 134.68458 101.037524 132.481612 101.950023 130.857582 103.574054 
C 129.233551 105.198085 128.321052 107.401052 128.321052 109.697778 
C 128.321052 111.994504 129.233551 114.197472 130.857582 115.821503 
C 132.481612 117.445533 134.68458 118.358032 136.981306 118.358032 
z
" clip-path="url(#p39cff85009)" style="fill: #ffff00; stroke: #000000"/>
    <path d="M 136.981306 49.547679 
C 139.278032 49.547679 141.481 48.63518 143.10503 47.011149 
C 144.729061 45.387118 145.64156 43.184151 145.64156 40.887425 
C 145.64156 38.590699 144.729061 36.387731 143.10503 34.7637 
C 141.481 33.13967 139.278032 32.227171 136.981306 32.227171 
C 134.68458 32.227171 132.481612 33.13967 130.857582 34.7637 
C 129.233551 36.387731 128.321052 38.590699 128.321052 40.887425 
C 128.321052 43.184151 129.233551 45.387118 130.857582 47.011149 
C 132.481612 48.63518 134.68458 49.547679 136.981306 49.547679 
z
" clip-path="url(#p39cff85009)" style="fill: #ffff00; stroke: #000000"/>
    <path d="M 233.131541 152.763209 
C 235.428267 152.763209 237.631234 151.85071 239.255265 150.226679 
C 240.879296 148.602649 241.791795 146.399681 241.791795 144.102955 
C 241.791795 141.806229 240.879296 139.603261 239.255265 137.979231 
C 237.631234 136.3552 235.428267 135.442701 233.131541 135.442701 
C 230.834815 135.442701 228.631847 136.3552 227.007816 137.979231 
C 225.383786 139.603261 224.471287 141.806229 224.471287 144.102955 
C 224.471287 146.399681 225.383786 148.602649 227.007816 150.226679 
C 228.631847 151.85071 230.834815 152.763209 233.131541 152.763209 
z
" clip-path="url(#p39cff85009)" style="fill: #0000ff; stroke: #000000"/>
    <path d="M 233.131541 83.952856 
C 235.428267 83.952856 237.631234 83.040357 239.255265 81.416326 
C 240.879296 79.792295 241.791795 77.589328 241.791795 75.292601 
C 241.791795 72.995875 240.879296 70.792908 239.255265 69.168877 
C 237.631234 67.544846 235.428267 66.632347 233.131541 66.632347 
C 230.834815 66.632347 228.631847 67.544846 227.007816 69.168877 
C 225.383786 70.792908 224.471287 72.995875 224.471287 75.292601 
C 224.471287 77.589328 225.383786 79.792295 227.007816 81.416326 
C 228.631847 83.040357 230.834815 83.952856 233.131541 83.952856 
z
" clip-path="url(#p39cff85009)" style="fill: #0000ff; stroke: #000000"/>
    <path d="M 233.131541 290.383916 
C 235.428267 290.383916 237.631234 289.471417 239.255265 287.847386 
C 240.879296 286.223355 241.791795 284.020388 241.791795 281.723662 
C 241.791795 279.426935 240.879296 277.223968 239.255265 275.599937 
C 237.631234 273.975907 235.428267 273.063408 233.131541 273.063408 
C 230.834815 273.063408 228.631847 273.975907 227.007816 275.599937 
C 225.383786 277.223968 224.471287 279.426935 224.471287 281.723662 
C 224.471287 284.020388 225.383786 286.223355 227.007816 287.847386 
C 228.631847 289.471417 230.834815 290.383916 233.131541 290.383916 
z
" clip-path="url(#p39cff85009)" style="fill: #0000ff; stroke: #000000"/>
    <path d="M 233.131541 221.573562 
C 235.428267 221.573562 237.631234 220.661063 239.255265 219.037033 
C 240.879296 217.413002 241.791795 215.210035 241.791795 212.913308 
C 241.791795 210.616582 240.879296 208.413615 239.255265 206.789584 
C 237.631234 205.165553 235.428267 204.253054 233.131541 204.253054 
C 230.834815 204.253054 228.631847 205.165553 227.007816 206.789584 
C 225.383786 208.413615 224.471287 210.616582 224.471287 212.913308 
C 224.471287 215.210035 225.383786 217.413002 227.007816 219.037033 
C 228.631847 220.661063 230.834815 221.573562 233.131541 221.573562 
z
" clip-path="url(#p39cff85009)" style="fill: #ffffff; stroke: #000000"/>
    <path d="M 329.281776 187.168386 
C 331.578502 187.168386 333.781469 186.255887 335.4055 184.631856 
C 337.029531 183.007825 337.94203 180.804858 337.94203 178.508132 
C 337.94203 176.211405 337.029531 174.008438 335.4055 172.384407 
C 333.781469 170.760377 331.578502 169.847878 329.281776 169.847878 
C 326.985049 169.847878 324.782082 170.760377 323.158051 172.384407 
C 321.53402 174.008438 320.621521 176.211405 320.621521 178.508132 
C 320.621521 180.804858 321.53402 183.007825 323.158051 184.631856 
C 324.782082 186.255887 326.985049 187.168386 329.281776 187.168386 
z
" clip-path="url(#p39cff85009)" style="fill: #ffffff; stroke: #000000"/>
    <path d="M 425.43201 187.168386 
C 427.728736 187.168386 429.931704 186.255887 431.555735 184.631856 
C 433.179765 183.007825 434.092264 180.804858 434.092264 178.508132 
C 434.092264 176.211405 433.179765 174.008438 431.555735 172.384407 
C 429.931704 170.760377 427.728736 169.847878 425.43201 169.847878 
C 423.135284 169.847878 420.932317 170.760377 419.308286 172.384407 
C 417.684255 174.008438 416.771756 176.211405 416.771756 178.508132 
C 416.771756 180.804858 417.684255 183.007825 419.308286 184.631856 
C 420.932317 186.255887 423.135284 187.168386 425.43201 187.168386 
z
" clip-path="url(#p39cff85009)" style="fill: #0000ff; stroke: #000000"/>
   </g>
   <g id="PathCollection_2">
    <path d="M 274.65096 297.53505 
C 278.844189 297.53505 282.866239 295.869062 285.8313 292.904002 
C 288.796361 289.938941 290.462349 285.916891 290.462349 281.723662 
C 290.462349 277.530433 288.796361 273.508383 285.8313 270.543322 
C 282.866239 267.578261 278.844189 265.912273 274.65096 265.912273 
C 270.457731 265.912273 266.435681 267.578261 263.47062 270.543322 
C 260.50556 273.508383 258.839572 277.530433 258.839572 281.723662 
C 258.839572 285.916891 260.50556 289.938941 263.47062 292.904002 
C 266.435681 295.869062 270.457731 297.53505 274.65096 297.53505 
z
" clip-path="url(#p39cff85009)" style="fill: #ffff00; stroke: #000000"/>
    <path d="M 156.648399 297.53505 
C 160.841629 297.53505 164.863679 295.869062 167.828739 292.904002 
C 170.7938 289.938941 172.459788 285.916891 172.459788 281.723662 
C 172.459788 277.530433 170.7938 273.508383 167.828739 270.543322 
C 164.863679 267.578261 160.841629 265.912273 156.648399 265.912273 
C 152.45517 265.912273 148.43312 267.578261 145.46806 270.543322 
C 142.502999 273.508383 140.837011 277.530433 140.837011 281.723662 
C 140.837011 285.916891 142.502999 289.938941 145.46806 292.904002 
C 148.43312 295.869062 152.45517 297.53505 156.648399 297.53505 
z
" clip-path="url(#p39cff85009)" style="fill: #ffff00; stroke: #000000"/>
    <path d="M 392.653521 213.08598 
C 396.84675 213.08598 400.8688 211.419992 403.833861 208.454931 
C 406.798922 205.489871 408.464909 201.467821 408.464909 197.274592 
C 408.464909 193.081362 406.798922 189.059313 403.833861 186.094252 
C 400.8688 183.129191 396.84675 181.463203 392.653521 181.463203 
C 388.460292 181.463203 384.438242 183.129191 381.473181 186.094252 
C 378.50812 189.059313 376.842133 193.081362 376.842133 197.274592 
C 376.842133 201.467821 378.50812 205.489871 381.473181 208.454931 
C 384.438242 211.419992 388.460292 213.08598 392.653521 213.08598 
z
" clip-path="url(#p39cff85009)" style="fill: #0000ff; stroke: #000000"/>
    <path d="M 274.65096 213.08598 
C 278.844189 213.08598 282.866239 211.419992 285.8313 208.454931 
C 288.796361 205.489871 290.462349 201.467821 290.462349 197.274592 
C 290.462349 193.081362 288.796361 189.059313 285.8313 186.094252 
C 282.866239 183.129191 278.844189 181.463203 274.65096 181.463203 
C 270.457731 181.463203 266.435681 183.129191 263.47062 186.094252 
C 260.50556 189.059313 258.839572 193.081362 258.839572 197.274592 
C 258.839572 201.467821 260.50556 205.489871 263.47062 208.454931 
C 266.435681 211.419992 270.457731 213.08598 274.65096 213.08598 
z
" clip-path="url(#p39cff85009)" style="fill: #0000ff; stroke: #000000"/>
    <path d="M 156.648399 213.08598 
C 160.841629 213.08598 164.863679 211.419992 167.828739 208.454931 
C 170.7938 205.489871 172.459788 201.467821 172.459788 197.274592 
C 172.459788 193.081362 170.7938 189.059313 167.828739 186.094252 
C 164.863679 183.129191 160.841629 181.463203 156.648399 181.463203 
C 152.45517 181.463203 148.43312 183.129191 145.46806 186.094252 
C 142.502999 189.059313 140.837011 193.081362 140.837011 197.274592 
C 140.837011 201.467821 142.502999 205.489871 145.46806 208.454931 
C 148.43312 211.419992 152.45517 213.08598 156.648399 213.08598 
z
" clip-path="url(#p39cff85009)" style="fill: #0000ff; stroke: #000000"/>
    <path d="M 38.645839 213.08598 
C 42.839068 213.08598 46.861118 211.419992 49.826179 208.454931 
C 52.791239 205.489871 54.457227 201.467821 54.457227 197.274592 
C 54.457227 193.081362 52.791239 189.059313 49.826179 186.094252 
C 46.861118 183.129191 42.839068 181.463203 38.645839 181.463203 
C 34.452609 181.463203 30.43056 183.129191 27.465499 186.094252 
C 24.500438 189.059313 22.83445 193.081362 22.83445 197.274592 
C 22.83445 201.467821 24.500438 205.489871 27.465499 208.454931 
C 30.43056 211.419992 34.452609 213.08598 38.645839 213.08598 
z
" clip-path="url(#p39cff85009)" style="fill: #ffffff; stroke: #000000"/>
    <path d="M 274.65096 128.63691 
C 278.844189 128.63691 282.866239 126.970922 285.8313 124.005861 
C 288.796361 121.040801 290.462349 117.018751 290.462349 112.825522 
C 290.462349 108.632292 288.796361 104.610242 285.8313 101.645182 
C 282.866239 98.680121 278.844189 97.014133 274.65096 97.014133 
C 270.457731 97.014133 266.435681 98.680121 263.47062 101.645182 
C 260.50556 104.610242 258.839572 108.632292 258.839572 112.825522 
C 258.839572 117.018751 260.50556 121.040801 263.47062 124.005861 
C 266.435681 126.970922 270.457731 128.63691 274.65096 128.63691 
z
" clip-path="url(#p39cff85009)" style="fill: #0000ff; stroke: #000000"/>
    <path d="M 156.648399 128.63691 
C 160.841629 128.63691 164.863679 126.970922 167.828739 124.005861 
C 170.7938 121.040801 172.459788 117.018751 172.459788 112.825522 
C 172.459788 108.632292 170.7938 104.610242 167.828739 101.645182 
C 164.863679 98.680121 160.841629 97.014133 156.648399 97.014133 
C 152.45517 97.014133 148.43312 98.680121 145.46806 101.645182 
C 142.502999 104.610242 140.837011 108.632292 140.837011 112.825522 
C 140.837011 117.018751 142.502999 121.040801 145.46806 124.005861 
C 148.43312 126.970922 152.45517 128.63691 156.648399 128.63691 
z
" clip-path="url(#p39cff85009)" style="fill: #ffffff; stroke: #000000"/>
    <path d="M 215.64968 44.18784 
C 219.842909 44.18784 223.864959 42.521852 226.83002 39.556791 
C 229.795081 36.591731 231.461068 32.569681 231.461068 28.376451 
C 231.461068 24.183222 229.795081 20.161172 226.83002 17.196112 
C 223.864959 14.231051 219.842909 12.565063 215.64968 12.565063 
C 211.456451 12.565063 207.434401 14.231051 204.46934 17.196112 
C 201.504279 20.161172 199.838292 24.183222 199.838292 28.376451 
C 199.838292 32.569681 201.504279 36.591731 204.46934 39.556791 
C 207.434401 42.521852 211.456451 44.18784 215.64968 44.18784 
z
" clip-path="url(#p39cff85009)" style="fill: #ffffff; stroke: #000000"/>
   </g>
   <g id="text_1">
    <g clip-path="url(#p39cff85009)">
     <!-- 0 -->
     <g transform="translate(272.74221 283.379287) scale(0.06 -0.06)">
      <defs>
       <path id="DejaVuSans-30" d="M 2034 4250 
Q 1547 4250 1301 3770 
Q 1056 3291 1056 2328 
Q 1056 1369 1301 889 
Q 1547 409 2034 409 
Q 2525 409 2770 889 
Q 3016 1369 3016 2328 
Q 3016 3291 2770 3770 
Q 2525 4250 2034 4250 
z
M 2034 4750 
Q 2819 4750 3233 4129 
Q 3647 3509 3647 2328 
Q 3647 1150 3233 529 
Q 2819 -91 2034 -91 
Q 1250 -91 836 529 
Q 422 1150 422 2328 
Q 422 3509 836 4129 
Q 1250 4750 2034 4750 
z
" transform="scale(0.015625)"/>
      </defs>
      <use xlink:href="#DejaVuSans-30"/>
     </g>
    </g>
   </g>
   <g id="text_2">
    <g clip-path="url(#p39cff85009)">
     <!-- 1 -->
     <g transform="translate(154.739649 283.379287) scale(0.06 -0.06)">
      <defs>
       <path id="DejaVuSans-31" d="M 794 531 
L 1825 531 
L 1825 4091 
L 703 3866 
L 703 4441 
L 1819 4666 
L 2450 4666 
L 2450 531 
L 3481 531 
L 3481 0 
L 794 0 
L 794 531 
z
" transform="scale(0.015625)"/>
      </defs>
      <use xlink:href="#DejaVuSans-31"/>
     </g>
    </g>
   </g>
   <g id="text_3">
    <g clip-path="url(#p39cff85009)">
     <!-- 3 -->
     <g transform="translate(390.744771 198.930217) scale(0.06 -0.06)">
      <defs>
       <path id="DejaVuSans-33" d="M 2597 2516 
Q 3050 2419 3304 2112 
Q 3559 1806 3559 1356 
Q 3559 666 3084 287 
Q 2609 -91 1734 -91 
Q 1441 -91 1130 -33 
Q 819 25 488 141 
L 488 750 
Q 750 597 1062 519 
Q 1375 441 1716 441 
Q 2309 441 2620 675 
Q 2931 909 2931 1356 
Q 2931 1769 2642 2001 
Q 2353 2234 1838 2234 
L 1294 2234 
L 1294 2753 
L 1863 2753 
Q 2328 2753 2575 2939 
Q 2822 3125 2822 3475 
Q 2822 3834 2567 4026 
Q 2313 4219 1838 4219 
Q 1578 4219 1281 4162 
Q 984 4106 628 3988 
L 628 4550 
Q 988 4650 1302 4700 
Q 1616 4750 1894 4750 
Q 2613 4750 3031 4423 
Q 3450 4097 3450 3541 
Q 3450 3153 3228 2886 
Q 3006 2619 2597 2516 
z
" transform="scale(0.015625)"/>
      </defs>
      <use xlink:href="#DejaVuSans-33"/>
     </g>
    </g>
   </g>
   <g id="text_4">
    <g clip-path="url(#p39cff85009)">
     <!-- 4 -->
     <g transform="translate(272.74221 198.930217) scale(0.06 -0.06)">
      <defs>
       <path id="DejaVuSans-34" d="M 2419 4116 
L 825 1625 
L 2419 1625 
L 2419 4116 
z
M 2253 4666 
L 3047 4666 
L 3047 1625 
L 3713 1625 
L 3713 1100 
L 3047 1100 
L 3047 0 
L 2419 0 
L 2419 1100 
L 313 1100 
L 313 1709 
L 2253 4666 
z
" transform="scale(0.015625)"/>
      </defs>
      <use xlink:href="#DejaVuSans-34"/>
     </g>
    </g>
   </g>
   <g id="text_5">
    <g clip-path="url(#p39cff85009)">
     <!-- 5 -->
     <g transform="translate(154.739649 198.930217) scale(0.06 -0.06)">
      <defs>
       <path id="DejaVuSans-35" d="M 691 4666 
L 3169 4666 
L 3169 4134 
L 1269 4134 
L 1269 2991 
Q 1406 3038 1543 3061 
Q 1681 3084 1819 3084 
Q 2600 3084 3056 2656 
Q 3513 2228 3513 1497 
Q 3513 744 3044 326 
Q 2575 -91 1722 -91 
Q 1428 -91 1123 -41 
Q 819 9 494 109 
L 494 744 
Q 775 591 1075 516 
Q 1375 441 1709 441 
Q 2250 441 2565 725 
Q 2881 1009 2881 1497 
Q 2881 1984 2565 2268 
Q 2250 2553 1709 2553 
Q 1456 2553 1204 2497 
Q 953 2441 691 2322 
L 691 4666 
z
" transform="scale(0.015625)"/>
      </defs>
      <use xlink:href="#DejaVuSans-35"/>
     </g>
    </g>
   </g>
   <g id="text_6">
    <g clip-path="url(#p39cff85009)">
     <!-- 7 -->
     <g transform="translate(36.737089 195.570873) scale(0.06 -0.06)">
      <defs>
       <path id="DejaVuSans-37" d="M 525 4666 
L 3525 4666 
L 3525 4397 
L 1831 0 
L 1172 0 
L 2766 4134 
L 525 4134 
L 525 4666 
z
" transform="scale(0.015625)"/>
      </defs>
      <use xlink:href="#DejaVuSans-37"/>
     </g>
    </g>
    <g clip-path="url(#p39cff85009)">
     <!-- SGM -->
     <g transform="translate(31.828339 202.28956) scale(0.06 -0.06)">
      <defs>
       <path id="DejaVuSans-53" d="M 3425 4513 
L 3425 3897 
Q 3066 4069 2747 4153 
Q 2428 4238 2131 4238 
Q 1616 4238 1336 4038 
Q 1056 3838 1056 3469 
Q 1056 3159 1242 3001 
Q 1428 2844 1947 2747 
L 2328 2669 
Q 3034 2534 3370 2195 
Q 3706 1856 3706 1288 
Q 3706 609 3251 259 
Q 2797 -91 1919 -91 
Q 1588 -91 1214 -16 
Q 841 59 441 206 
L 441 856 
Q 825 641 1194 531 
Q 1563 422 1919 422 
Q 2459 422 2753 634 
Q 3047 847 3047 1241 
Q 3047 1584 2836 1778 
Q 2625 1972 2144 2069 
L 1759 2144 
Q 1053 2284 737 2584 
Q 422 2884 422 3419 
Q 422 4038 858 4394 
Q 1294 4750 2059 4750 
Q 2388 4750 2728 4690 
Q 3069 4631 3425 4513 
z
" transform="scale(0.015625)"/>
       <path id="DejaVuSans-47" d="M 3809 666 
L 3809 1919 
L 2778 1919 
L 2778 2438 
L 4434 2438 
L 4434 434 
Q 4069 175 3628 42 
Q 3188 -91 2688 -91 
Q 1594 -91 976 548 
Q 359 1188 359 2328 
Q 359 3472 976 4111 
Q 1594 4750 2688 4750 
Q 3144 4750 3555 4637 
Q 3966 4525 4313 4306 
L 4313 3634 
Q 3963 3931 3569 4081 
Q 3175 4231 2741 4231 
Q 1884 4231 1454 3753 
Q 1025 3275 1025 2328 
Q 1025 1384 1454 906 
Q 1884 428 2741 428 
Q 3075 428 3337 486 
Q 3600 544 3809 666 
z
" transform="scale(0.015625)"/>
       <path id="DejaVuSans-4d" d="M 628 4666 
L 1569 4666 
L 2759 1491 
L 3956 4666 
L 4897 4666 
L 4897 0 
L 4281 0 
L 4281 4097 
L 3078 897 
L 2444 897 
L 1241 4097 
L 1241 0 
L 628 0 
L 628 4666 
z
" transform="scale(0.015625)"/>
      </defs>
      <use xlink:href="#DejaVuSans-53"/>
      <use xlink:href="#DejaVuSans-47" x="63.476562"/>
      <use xlink:href="#DejaVuSans-4d" x="140.966797"/>
     </g>
    </g>
   </g>
   <g id="text_7">
    <g clip-path="url(#p39cff85009)">
     <!-- 2 -->
     <g transform="translate(272.74221 114.481147) scale(0.06 -0.06)">
      <defs>
       <path id="DejaVuSans-32" d="M 1228 531 
L 3431 531 
L 3431 0 
L 469 0 
L 469 531 
Q 828 903 1448 1529 
Q 2069 2156 2228 2338 
Q 2531 2678 2651 2914 
Q 2772 3150 2772 3378 
Q 2772 3750 2511 3984 
Q 2250 4219 1831 4219 
Q 1534 4219 1204 4116 
Q 875 4013 500 3803 
L 500 4441 
Q 881 4594 1212 4672 
Q 1544 4750 1819 4750 
Q 2544 4750 2975 4387 
Q 3406 4025 3406 3419 
Q 3406 3131 3298 2873 
Q 3191 2616 2906 2266 
Q 2828 2175 2409 1742 
Q 1991 1309 1228 531 
z
" transform="scale(0.015625)"/>
      </defs>
      <use xlink:href="#DejaVuSans-32"/>
     </g>
    </g>
   </g>
   <g id="text_8">
    <g clip-path="url(#p39cff85009)">
     <!-- 6 -->
     <g transform="translate(154.739649 111.121803) scale(0.06 -0.06)">
      <defs>
       <path id="DejaVuSans-36" d="M 2113 2584 
Q 1688 2584 1439 2293 
Q 1191 2003 1191 1497 
Q 1191 994 1439 701 
Q 1688 409 2113 409 
Q 2538 409 2786 701 
Q 3034 994 3034 1497 
Q 3034 2003 2786 2293 
Q 2538 2584 2113 2584 
z
M 3366 4563 
L 3366 3988 
Q 3128 4100 2886 4159 
Q 2644 4219 2406 4219 
Q 1781 4219 1451 3797 
Q 1122 3375 1075 2522 
Q 1259 2794 1537 2939 
Q 1816 3084 2150 3084 
Q 2853 3084 3261 2657 
Q 3669 2231 3669 1497 
Q 3669 778 3244 343 
Q 2819 -91 2113 -91 
Q 1303 -91 875 529 
Q 447 1150 447 2328 
Q 447 3434 972 4092 
Q 1497 4750 2381 4750 
Q 2619 4750 2861 4703 
Q 3103 4656 3366 4563 
z
" transform="scale(0.015625)"/>
      </defs>
      <use xlink:href="#DejaVuSans-36"/>
     </g>
    </g>
    <g clip-path="url(#p39cff85009)">
     <!-- SGM -->
     <g transform="translate(149.830899 117.84049) scale(0.06 -0.06)">
      <use xlink:href="#DejaVuSans-53"/>
      <use xlink:href="#DejaVuSans-47" x="63.476562"/>
      <use xlink:href="#DejaVuSans-4d" x="140.966797"/>
     </g>
    </g>
   </g>
   <g id="text_9">
    <g clip-path="url(#p39cff85009)">
     <!-- 8 -->
     <g transform="translate(213.74093 26.672733) scale(0.06 -0.06)">
      <defs>
       <path id="DejaVuSans-38" d="M 2034 2216 
Q 1584 2216 1326 1975 
Q 1069 1734 1069 1313 
Q 1069 891 1326 650 
Q 1584 409 2034 409 
Q 2484 409 2743 651 
Q 3003 894 3003 1313 
Q 3003 1734 2745 1975 
Q 2488 2216 2034 2216 
z
M 1403 2484 
Q 997 2584 770 2862 
Q 544 3141 544 3541 
Q 544 4100 942 4425 
Q 1341 4750 2034 4750 
Q 2731 4750 3128 4425 
Q 3525 4100 3525 3541 
Q 3525 3141 3298 2862 
Q 3072 2584 2669 2484 
Q 3125 2378 3379 2068 
Q 3634 1759 3634 1313 
Q 3634 634 3220 271 
Q 2806 -91 2034 -91 
Q 1263 -91 848 271 
Q 434 634 434 1313 
Q 434 1759 690 2068 
Q 947 2378 1403 2484 
z
M 1172 3481 
Q 1172 3119 1398 2916 
Q 1625 2713 2034 2713 
Q 2441 2713 2670 2916 
Q 2900 3119 2900 3481 
Q 2900 3844 2670 4047 
Q 2441 4250 2034 4250 
Q 1625 4250 1398 4047 
Q 1172 3844 1172 3481 
z
" transform="scale(0.015625)"/>
      </defs>
      <use xlink:href="#DejaVuSans-38"/>
     </g>
    </g>
    <g clip-path="url(#p39cff85009)">
     <!-- SGM -->
     <g transform="translate(208.83218 33.39142) scale(0.06 -0.06)">
      <use xlink:href="#DejaVuSans-53"/>
      <use xlink:href="#DejaVuSans-47" x="63.476562"/>
      <use xlink:href="#DejaVuSans-4d" x="140.966797"/>
     </g>
    </g>
   </g>
  </g>
 </g>
 <defs>
  <clipPath id="p39cff85009">
   <rect x="0" y="0" width="460.8" height="345.6"/>
  </clipPath>
 </defs>
</svg>
