<?xml version="1.0" encoding="utf-8" standalone="no"?>
<!DOCTYPE svg PUBLIC "-//W3C//DTD SVG 1.1//EN"
  "http://www.w3.org/Graphics/SVG/1.1/DTD/svg11.dtd">
<svg xmlns:xlink="http://www.w3.org/1999/xlink" width="460.8pt" height="345.6pt" viewBox="0 0 460.8 345.6" xmlns="http://www.w3.org/2000/svg" version="1.1">
 <metadata>
  <rdf:RDF xmlns:dc="http://purl.org/dc/elements/1.1/" xmlns:cc="http://creativecommons.org/ns#" xmlns:rdf="http://www.w3.org/1999/02/22-rdf-syntax-ns#">
   <cc:Work>
    <dc:type rdf:resource="http://purl.org/dc/dcmitype/StillImage"/>
    <dc:date>2024-11-21T13:51:49.270969</dc:date>
    <dc:format>image/svg+xml</dc:format>
    <dc:creator>
     <cc:Agent>
      <dc:title>Matplotlib v3.9.2, https://matplotlib.org/</dc:title>
     </cc:Agent>
    </dc:creator>
   </cc:Work>
  </rdf:RDF>
 </metadata>
 <defs>
  <style type="text/css">*{stroke-linejoin: round; stroke-linecap: butt}</style>
 </defs>
 <g id="figure_1">
  <g id="patch_1">
   <path d="M 0 345.6 
L 460.8 345.6 
L 460.8 0 
L 0 0 
z
" style="fill: #ffffff"/>
  </g>
  <g id="axes_1">
   <g id="patch_2">
    <path d="M 320.607741 300.613307 
Q 278.004212 172.802719 235.86829 46.394953 
" clip-path="url(#p53bff454f3)" style="fill: none; stroke: #0000ff; stroke-width: 1.322594; stroke-linecap: round"/>
    <path d="M 235.362326 49.936704 
L 235.86829 46.394953 
L 238.398112 48.924775 
" clip-path="url(#p53bff454f3)" style="fill: none; stroke: #0000ff; stroke-width: 1.322594; stroke-linecap: round"/>
   </g>
   <g id="patch_3">
    <path d="M 325.606612 299.795831 
Q 325.606612 295.206528 325.606612 291.892365 
" clip-path="url(#p53bff454f3)" style="fill: none; stroke: #0000ff; stroke-width: 1.14052; stroke-linecap: round"/>
    <path d="M 324.006612 295.092365 
L 325.606612 291.892365 
L 327.206612 295.092365 
" clip-path="url(#p53bff454f3)" style="fill: none; stroke: #0000ff; stroke-width: 1.14052; stroke-linecap: round"/>
   </g>
   <g id="patch_4">
    <path d="M 313.601914 305.320177 
Q 182.797003 193.201682 53.197852 82.116695 
" clip-path="url(#p53bff454f3)" style="fill: none; stroke: #0000ff; stroke-width: 1.420421; stroke-linecap: round"/>
    <path d="M 54.586207 85.414038 
L 53.197852 82.116695 
L 56.668739 82.984416 
" clip-path="url(#p53bff454f3)" style="fill: none; stroke: #0000ff; stroke-width: 1.420421; stroke-linecap: round"/>
   </g>
   <g id="patch_5">
    <path d="M 317.638346 301.950033 
Q 278.002644 234.003116 239.624851 168.212614 
" clip-path="url(#p53bff454f3)" style="fill: none; stroke: #ff0000; stroke-width: 2.232929; stroke-linecap: round"/>
    <path d="M 239.855192 171.7829 
L 239.624851 168.212614 
L 242.619285 170.170513 
" clip-path="url(#p53bff454f3)" style="fill: none; stroke: #ff0000; stroke-width: 2.232929; stroke-linecap: round"/>
   </g>
   <g id="patch_6">
    <path d="M 140.192259 300.613307 
Q 182.795788 172.802719 224.971809 46.274655 
" clip-path="url(#p53bff454f3)" style="fill: none; stroke: #ff0000; stroke-width: 1.209176; stroke-linecap: round"/>
    <path d="M 222.441987 48.804477 
L 224.971809 46.274655 
L 225.477774 49.816406 
" clip-path="url(#p53bff454f3)" style="fill: none; stroke: #ff0000; stroke-width: 1.209176; stroke-linecap: round"/>
   </g>
   <g id="patch_7">
    <path d="M 143.161654 301.950033 
Q 182.797356 234.003116 221.642983 167.410612 
" clip-path="url(#p53bff454f3)" style="fill: none; stroke: #0000ff; stroke-width: 1.402471; stroke-linecap: round"/>
    <path d="M 218.64855 169.368511 
L 221.642983 167.410612 
L 221.412642 170.980898 
" clip-path="url(#p53bff454f3)" style="fill: none; stroke: #0000ff; stroke-width: 1.402471; stroke-linecap: round"/>
   </g>
   <g id="patch_8">
    <path d="M 147.195907 305.322045 
Q 182.796584 274.807178 214.878403 247.308476 
" clip-path="url(#p53bff454f3)" style="fill: none; stroke: #ff0000; stroke-width: 4.145321; stroke-linecap: round"/>
    <path d="M 211.407516 248.176198 
L 214.878403 247.308476 
L 213.490048 250.605819 
" clip-path="url(#p53bff454f3)" style="fill: none; stroke: #ff0000; stroke-width: 4.145321; stroke-linecap: round"/>
   </g>
   <g id="patch_9">
    <path d="M 135.193388 299.795831 
Q 135.193388 295.206528 135.193388 291.730053 
" clip-path="url(#p53bff454f3)" style="fill: none; stroke: #0000ff; stroke-width: 0.995344; stroke-linecap: round"/>
    <path d="M 133.593388 294.930053 
L 135.193388 291.730053 
L 136.793388 294.930053 
" clip-path="url(#p53bff454f3)" style="fill: none; stroke: #0000ff; stroke-width: 0.995344; stroke-linecap: round"/>
   </g>
   <g id="patch_10">
    <path d="M 128.506437 260.477903 
Q 87.590272 172.800406 46.809638 85.413333 
" clip-path="url(#p53bff454f3)" style="fill: none; stroke: #ff0000; stroke-width: 0.286657; stroke-linecap: round"/>
    <path d="M 46.712978 88.989736 
L 46.809638 85.413333 
L 49.612765 87.636502 
" clip-path="url(#p53bff454f3)" style="fill: none; stroke: #ff0000; stroke-width: 0.286657; stroke-linecap: round"/>
   </g>
   <g id="patch_11">
    <path d="M 311.07633 268.57982 
Q 278.004894 254.406348 246.790375 241.028697 
" clip-path="url(#p53bff454f3)" style="fill: none; stroke: #0000ff; stroke-width: 1.80698; stroke-linecap: round"/>
    <path d="M 249.101368 243.759871 
L 246.790375 241.028697 
L 250.36191 240.818606 
" clip-path="url(#p53bff454f3)" style="fill: none; stroke: #0000ff; stroke-width: 1.80698; stroke-linecap: round"/>
   </g>
   <g id="patch_12">
    <path d="M 230.4 218.190164 
Q 230.4 213.600861 230.4 209.592025 
" clip-path="url(#p53bff454f3)" style="fill: none; stroke: #0000ff; stroke-width: 0.519186; stroke-linecap: round"/>
    <path d="M 228.8 212.792025 
L 230.4 209.592025 
L 232 212.792025 
" clip-path="url(#p53bff454f3)" style="fill: none; stroke: #0000ff; stroke-width: 0.519186; stroke-linecap: round"/>
   </g>
   <g id="patch_13">
    <path d="M 217.10164 184.652471 
Q 135.193853 131.997465 53.823294 79.68782 
" clip-path="url(#p53bff454f3)" style="fill: none; stroke: #0000ff; stroke-width: 0.571235; stroke-linecap: round"/>
    <path d="M 55.649853 82.76413 
L 53.823294 79.68782 
L 57.380277 80.072359 
" clip-path="url(#p53bff454f3)" style="fill: none; stroke: #0000ff; stroke-width: 0.571235; stroke-linecap: round"/>
   </g>
   <g id="patch_14">
    <path d="M 230.4 177.38733 
Q 230.4 172.798027 230.4 169.365271 
" clip-path="url(#p53bff454f3)" style="fill: none; stroke: #ff0000; stroke-width: 1.034447; stroke-linecap: round"/>
    <path d="M 228.8 172.565271 
L 230.4 169.365271 
L 232 172.565271 
" clip-path="url(#p53bff454f3)" style="fill: none; stroke: #ff0000; stroke-width: 1.034447; stroke-linecap: round"/>
   </g>
   <g id="patch_15">
    <path d="M 215.869718 146.17132 
Q 182.798283 131.997847 149.932374 117.912458 
" clip-path="url(#p53bff454f3)" style="fill: none; stroke: #ff0000; stroke-width: 0.2; stroke-linecap: round"/>
    <path d="M 152.243367 120.643632 
L 149.932374 117.912458 
L 153.503909 117.702368 
" clip-path="url(#p53bff454f3)" style="fill: none; stroke: #ff0000; stroke-width: 0.2; stroke-linecap: round"/>
   </g>
   <g id="patch_16">
    <path d="M 244.930282 146.17132 
Q 278.001717 131.997847 310.867626 117.912458 
" clip-path="url(#p53bff454f3)" style="fill: none; stroke: #0000ff; stroke-width: 0.2; stroke-linecap: round"/>
    <path d="M 307.296091 117.702368 
L 310.867626 117.912458 
L 308.556633 120.643632 
" clip-path="url(#p53bff454f3)" style="fill: none; stroke: #0000ff; stroke-width: 0.2; stroke-linecap: round"/>
   </g>
   <g id="patch_17">
    <path d="M 150.843731 109.359987 
Q 278.003662 91.194282 404.392232 73.138772 
" clip-path="url(#p53bff454f3)" style="fill: none; stroke: #ff0000; stroke-width: 0.696932; stroke-linecap: round"/>
    <path d="M 400.998119 72.007401 
L 404.392232 73.138772 
L 401.450668 75.17524 
" clip-path="url(#p53bff454f3)" style="fill: none; stroke: #ff0000; stroke-width: 0.696932; stroke-linecap: round"/>
   </g>
   <g id="patch_18">
    <path d="M 309.956269 109.359987 
Q 182.796338 91.194282 56.653655 73.173899 
" clip-path="url(#p53bff454f3)" style="fill: none; stroke: #0000ff; stroke-width: 0.919093; stroke-linecap: round"/>
    <path d="M 59.59522 75.210366 
L 56.653655 73.173899 
L 60.047768 72.042528 
" clip-path="url(#p53bff454f3)" style="fill: none; stroke: #0000ff; stroke-width: 0.919093; stroke-linecap: round"/>
   </g>
   <g id="patch_19">
    <path d="M 311.07633 105.368486 
Q 278.004894 91.195014 245.165019 77.120781 
" clip-path="url(#p53bff454f3)" style="fill: none; stroke: #ff0000; stroke-width: 0.225333; stroke-linecap: round"/>
    <path d="M 247.476012 79.851955 
L 245.165019 77.120781 
L 248.736554 76.910691 
" clip-path="url(#p53bff454f3)" style="fill: none; stroke: #ff0000; stroke-width: 0.225333; stroke-linecap: round"/>
   </g>
   <g id="patch_20">
    <path d="M 230.4 54.97883 
Q 230.4 50.389527 230.4 46.023831 
" clip-path="url(#p53bff454f3)" style="fill: none; stroke: #ff0000; stroke-width: 0.2; stroke-linecap: round"/>
    <path d="M 228.8 49.223831 
L 230.4 46.023831 
L 232 49.223831 
" clip-path="url(#p53bff454f3)" style="fill: none; stroke: #ff0000; stroke-width: 0.2; stroke-linecap: round"/>
   </g>
   <g id="PathCollection_1">
    <path d="M 325.606612 331.421306 
C 329.799841 331.421306 333.821891 329.755318 336.786951 326.790257 
C 339.752012 323.825196 341.418 319.803147 341.418 315.609917 
C 341.418 311.416688 339.752012 307.394638 336.786951 304.429577 
C 333.821891 301.464517 329.799841 299.798529 325.606612 299.798529 
C 321.413382 299.798529 317.391332 301.464517 314.426272 304.429577 
C 311.461211 307.394638 309.795223 311.416688 309.795223 315.609917 
C 309.795223 319.803147 311.461211 323.825196 314.426272 326.790257 
C 317.391332 329.755318 321.413382 331.421306 325.606612 331.421306 
z
" clip-path="url(#p53bff454f3)" style="fill: #ffff00; stroke: #000000"/>
    <path d="M 135.193388 331.421306 
C 139.386618 331.421306 143.408668 329.755318 146.373728 326.790257 
C 149.338789 323.825196 151.004777 319.803147 151.004777 315.609917 
C 151.004777 311.416688 149.338789 307.394638 146.373728 304.429577 
C 143.408668 301.464517 139.386618 299.798529 135.193388 299.798529 
C 131.000159 299.798529 126.978109 301.464517 124.013049 304.429577 
C 121.047988 307.394638 119.382 311.416688 119.382 315.609917 
C 119.382 319.803147 121.047988 323.825196 124.013049 326.790257 
C 126.978109 329.755318 131.000159 331.421306 135.193388 331.421306 
z
" clip-path="url(#p53bff454f3)" style="fill: #ffff00; stroke: #000000"/>
    <path d="M 135.193388 290.618472 
C 139.386618 290.618472 143.408668 288.952485 146.373728 285.987424 
C 149.338789 283.022363 151.004777 279.000313 151.004777 274.807084 
C 151.004777 270.613855 149.338789 266.591805 146.373728 263.626744 
C 143.408668 260.661683 139.386618 258.995696 135.193388 258.995696 
C 131.000159 258.995696 126.978109 260.661683 124.013049 263.626744 
C 121.047988 266.591805 119.382 270.613855 119.382 274.807084 
C 119.382 279.000313 121.047988 283.022363 124.013049 285.987424 
C 126.978109 288.952485 131.000159 290.618472 135.193388 290.618472 
z
" clip-path="url(#p53bff454f3)" style="fill: #ffffff; stroke: #000000"/>
    <path d="M 325.606612 290.618472 
C 329.799841 290.618472 333.821891 288.952485 336.786951 285.987424 
C 339.752012 283.022363 341.418 279.000313 341.418 274.807084 
C 341.418 270.613855 339.752012 266.591805 336.786951 263.626744 
C 333.821891 260.661683 329.799841 258.995696 325.606612 258.995696 
C 321.413382 258.995696 317.391332 260.661683 314.426272 263.626744 
C 311.461211 266.591805 309.795223 270.613855 309.795223 274.807084 
C 309.795223 279.000313 311.461211 283.022363 314.426272 285.987424 
C 317.391332 288.952485 321.413382 290.618472 325.606612 290.618472 
z
" clip-path="url(#p53bff454f3)" style="fill: #ffffff; stroke: #000000"/>
    <path d="M 230.4 249.815639 
C 234.593229 249.815639 238.615279 248.149651 241.58034 245.18459 
C 244.545401 242.219529 246.211388 238.197479 246.211388 234.00425 
C 246.211388 229.811021 244.545401 225.788971 241.58034 222.82391 
C 238.615279 219.85885 234.593229 218.192862 230.4 218.192862 
C 226.206771 218.192862 222.184721 219.85885 219.21966 222.82391 
C 216.254599 225.788971 214.588612 229.811021 214.588612 234.00425 
C 214.588612 238.197479 216.254599 242.219529 219.21966 245.18459 
C 222.184721 248.149651 226.206771 249.815639 230.4 249.815639 
z
" clip-path="url(#p53bff454f3)" style="fill: #0000ff; stroke: #000000"/>
    <path d="M 230.4 209.012805 
C 234.593229 209.012805 238.615279 207.346817 241.58034 204.381757 
C 244.545401 201.416696 246.211388 197.394646 246.211388 193.201417 
C 246.211388 189.008188 244.545401 184.986138 241.58034 182.021077 
C 238.615279 179.056016 234.593229 177.390028 230.4 177.390028 
C 226.206771 177.390028 222.184721 179.056016 219.21966 182.021077 
C 216.254599 184.986138 214.588612 189.008188 214.588612 193.201417 
C 214.588612 197.394646 216.254599 201.416696 219.21966 204.381757 
C 222.184721 207.346817 226.206771 209.012805 230.4 209.012805 
z
" clip-path="url(#p53bff454f3)" style="fill: #ffffff; stroke: #000000"/>
    <path d="M 230.4 168.209972 
C 234.593229 168.209972 238.615279 166.543984 241.58034 163.578923 
C 244.545401 160.613862 246.211388 156.591812 246.211388 152.398583 
C 246.211388 148.205354 244.545401 144.183304 241.58034 141.218243 
C 238.615279 138.253183 234.593229 136.587195 230.4 136.587195 
C 226.206771 136.587195 222.184721 138.253183 219.21966 141.218243 
C 216.254599 144.183304 214.588612 148.205354 214.588612 152.398583 
C 214.588612 156.591812 216.254599 160.613862 219.21966 163.578923 
C 222.184721 166.543984 226.206771 168.209972 230.4 168.209972 
z
" clip-path="url(#p53bff454f3)" style="fill: #ffffff; stroke: #000000"/>
    <path d="M 135.193388 127.407138 
C 139.386618 127.407138 143.408668 125.74115 146.373728 122.77609 
C 149.338789 119.811029 151.004777 115.788979 151.004777 111.59575 
C 151.004777 107.402521 149.338789 103.380471 146.373728 100.41541 
C 143.408668 97.450349 139.386618 95.784361 135.193388 95.784361 
C 131.000159 95.784361 126.978109 97.450349 124.013049 100.41541 
C 121.047988 103.380471 119.382 107.402521 119.382 111.59575 
C 119.382 115.788979 121.047988 119.811029 124.013049 122.77609 
C 126.978109 125.74115 131.000159 127.407138 135.193388 127.407138 
z
" clip-path="url(#p53bff454f3)" style="fill: #ffffff; stroke: #000000"/>
    <path d="M 325.606612 127.407138 
C 329.799841 127.407138 333.821891 125.74115 336.786951 122.77609 
C 339.752012 119.811029 341.418 115.788979 341.418 111.59575 
C 341.418 107.402521 339.752012 103.380471 336.786951 100.41541 
C 333.821891 97.450349 329.799841 95.784361 325.606612 95.784361 
C 321.413382 95.784361 317.391332 97.450349 314.426272 100.41541 
C 311.461211 103.380471 309.795223 107.402521 309.795223 111.59575 
C 309.795223 115.788979 311.461211 119.811029 314.426272 122.77609 
C 317.391332 125.74115 321.413382 127.407138 325.606612 127.407138 
z
" clip-path="url(#p53bff454f3)" style="fill: #ffffff; stroke: #000000"/>
    <path d="M 420.813223 86.604304 
C 425.006452 86.604304 429.028502 84.938317 431.993563 81.973256 
C 434.958624 79.008195 436.624611 74.986145 436.624611 70.792916 
C 436.624611 66.599687 434.958624 62.577637 431.993563 59.612576 
C 429.028502 56.647515 425.006452 54.981528 420.813223 54.981528 
C 416.619994 54.981528 412.597944 56.647515 409.632883 59.612576 
C 406.667822 62.577637 405.001835 66.599687 405.001835 70.792916 
C 405.001835 74.986145 406.667822 79.008195 409.632883 81.973256 
C 412.597944 84.938317 416.619994 86.604304 420.813223 86.604304 
z
" clip-path="url(#p53bff454f3)" style="fill: #0000ff; stroke: #000000"/>
    <path d="M 39.986777 86.604304 
C 44.180006 86.604304 48.202056 84.938317 51.167117 81.973256 
C 54.132178 79.008195 55.798165 74.986145 55.798165 70.792916 
C 55.798165 66.599687 54.132178 62.577637 51.167117 59.612576 
C 48.202056 56.647515 44.180006 54.981528 39.986777 54.981528 
C 35.793548 54.981528 31.771498 56.647515 28.806437 59.612576 
C 25.841376 62.577637 24.175389 66.599687 24.175389 70.792916 
C 24.175389 74.986145 25.841376 79.008195 28.806437 81.973256 
C 31.771498 84.938317 35.793548 86.604304 39.986777 86.604304 
z
" clip-path="url(#p53bff454f3)" style="fill: #0000ff; stroke: #000000"/>
    <path d="M 230.4 86.604304 
C 234.593229 86.604304 238.615279 84.938317 241.58034 81.973256 
C 244.545401 79.008195 246.211388 74.986145 246.211388 70.792916 
C 246.211388 66.599687 244.545401 62.577637 241.58034 59.612576 
C 238.615279 56.647515 234.593229 54.981528 230.4 54.981528 
C 226.206771 54.981528 222.184721 56.647515 219.21966 59.612576 
C 216.254599 62.577637 214.588612 66.599687 214.588612 70.792916 
C 214.588612 74.986145 216.254599 79.008195 219.21966 81.973256 
C 222.184721 84.938317 226.206771 86.604304 230.4 86.604304 
z
" clip-path="url(#p53bff454f3)" style="fill: #ffffff; stroke: #000000"/>
    <path d="M 230.4 45.801471 
C 234.593229 45.801471 238.615279 44.135483 241.58034 41.170423 
C 244.545401 38.205362 246.211388 34.183312 246.211388 29.990083 
C 246.211388 25.796853 244.545401 21.774804 241.58034 18.809743 
C 238.615279 15.844682 234.593229 14.178694 230.4 14.178694 
C 226.206771 14.178694 222.184721 15.844682 219.21966 18.809743 
C 216.254599 21.774804 214.588612 25.796853 214.588612 29.990083 
C 214.588612 34.183312 216.254599 38.205362 219.21966 41.170423 
C 222.184721 44.135483 226.206771 45.801471 230.4 45.801471 
z
" clip-path="url(#p53bff454f3)" style="fill: #0000ff; stroke: #000000"/>
   </g>
   <g id="text_1">
    <g clip-path="url(#p53bff454f3)">
     <!-- 0 -->
     <g transform="translate(323.697862 317.265542) scale(0.06 -0.06)">
      <defs>
       <path id="DejaVuSans-30" d="M 2034 4250 
Q 1547 4250 1301 3770 
Q 1056 3291 1056 2328 
Q 1056 1369 1301 889 
Q 1547 409 2034 409 
Q 2525 409 2770 889 
Q 3016 1369 3016 2328 
Q 3016 3291 2770 3770 
Q 2525 4250 2034 4250 
z
M 2034 4750 
Q 2819 4750 3233 4129 
Q 3647 3509 3647 2328 
Q 3647 1150 3233 529 
Q 2819 -91 2034 -91 
Q 1250 -91 836 529 
Q 422 1150 422 2328 
Q 422 3509 836 4129 
Q 1250 4750 2034 4750 
z
" transform="scale(0.015625)"/>
      </defs>
      <use xlink:href="#DejaVuSans-30"/>
     </g>
    </g>
   </g>
   <g id="text_2">
    <g clip-path="url(#p53bff454f3)">
     <!-- 1 -->
     <g transform="translate(133.284638 317.265542) scale(0.06 -0.06)">
      <defs>
       <path id="DejaVuSans-31" d="M 794 531 
L 1825 531 
L 1825 4091 
L 703 3866 
L 703 4441 
L 1819 4666 
L 2450 4666 
L 2450 531 
L 3481 531 
L 3481 0 
L 794 0 
L 794 531 
z
" transform="scale(0.015625)"/>
      </defs>
      <use xlink:href="#DejaVuSans-31"/>
     </g>
    </g>
   </g>
   <g id="text_3">
    <g clip-path="url(#p53bff454f3)">
     <!-- 7 -->
     <g transform="translate(133.284638 273.103365) scale(0.06 -0.06)">
      <defs>
       <path id="DejaVuSans-37" d="M 525 4666 
L 3525 4666 
L 3525 4397 
L 1831 0 
L 1172 0 
L 2766 4134 
L 525 4134 
L 525 4666 
z
" transform="scale(0.015625)"/>
      </defs>
      <use xlink:href="#DejaVuSans-37"/>
     </g>
    </g>
    <g clip-path="url(#p53bff454f3)">
     <!-- TANH -->
     <g transform="translate(127.040888 279.822053) scale(0.06 -0.06)">
      <defs>
       <path id="DejaVuSans-54" d="M -19 4666 
L 3928 4666 
L 3928 4134 
L 2272 4134 
L 2272 0 
L 1638 0 
L 1638 4134 
L -19 4134 
L -19 4666 
z
" transform="scale(0.015625)"/>
       <path id="DejaVuSans-41" d="M 2188 4044 
L 1331 1722 
L 3047 1722 
L 2188 4044 
z
M 1831 4666 
L 2547 4666 
L 4325 0 
L 3669 0 
L 3244 1197 
L 1141 1197 
L 716 0 
L 50 0 
L 1831 4666 
z
" transform="scale(0.015625)"/>
       <path id="DejaVuSans-4e" d="M 628 4666 
L 1478 4666 
L 3547 763 
L 3547 4666 
L 4159 4666 
L 4159 0 
L 3309 0 
L 1241 3903 
L 1241 0 
L 628 0 
L 628 4666 
z
" transform="scale(0.015625)"/>
       <path id="DejaVuSans-48" d="M 628 4666 
L 1259 4666 
L 1259 2753 
L 3553 2753 
L 3553 4666 
L 4184 4666 
L 4184 0 
L 3553 0 
L 3553 2222 
L 1259 2222 
L 1259 0 
L 628 0 
L 628 4666 
z
" transform="scale(0.015625)"/>
      </defs>
      <use xlink:href="#DejaVuSans-54"/>
      <use xlink:href="#DejaVuSans-41" x="53.333984"/>
      <use xlink:href="#DejaVuSans-4e" x="121.742188"/>
      <use xlink:href="#DejaVuSans-48" x="196.546875"/>
     </g>
    </g>
   </g>
   <g id="text_4">
    <g clip-path="url(#p53bff454f3)">
     <!-- 9 -->
     <g transform="translate(323.697862 273.103365) scale(0.06 -0.06)">
      <defs>
       <path id="DejaVuSans-39" d="M 703 97 
L 703 672 
Q 941 559 1184 500 
Q 1428 441 1663 441 
Q 2288 441 2617 861 
Q 2947 1281 2994 2138 
Q 2813 1869 2534 1725 
Q 2256 1581 1919 1581 
Q 1219 1581 811 2004 
Q 403 2428 403 3163 
Q 403 3881 828 4315 
Q 1253 4750 1959 4750 
Q 2769 4750 3195 4129 
Q 3622 3509 3622 2328 
Q 3622 1225 3098 567 
Q 2575 -91 1691 -91 
Q 1453 -91 1209 -44 
Q 966 3 703 97 
z
M 1959 2075 
Q 2384 2075 2632 2365 
Q 2881 2656 2881 3163 
Q 2881 3666 2632 3958 
Q 2384 4250 1959 4250 
Q 1534 4250 1286 3958 
Q 1038 3666 1038 3163 
Q 1038 2656 1286 2365 
Q 1534 2075 1959 2075 
z
" transform="scale(0.015625)"/>
      </defs>
      <use xlink:href="#DejaVuSans-39"/>
     </g>
    </g>
    <g clip-path="url(#p53bff454f3)">
     <!-- TANH -->
     <g transform="translate(317.454112 279.822053) scale(0.06 -0.06)">
      <use xlink:href="#DejaVuSans-54"/>
      <use xlink:href="#DejaVuSans-41" x="53.333984"/>
      <use xlink:href="#DejaVuSans-4e" x="121.742188"/>
      <use xlink:href="#DejaVuSans-48" x="196.546875"/>
     </g>
    </g>
   </g>
   <g id="text_5">
    <g clip-path="url(#p53bff454f3)">
     <!-- 4 -->
     <g transform="translate(228.49125 235.659875) scale(0.06 -0.06)">
      <defs>
       <path id="DejaVuSans-34" d="M 2419 4116 
L 825 1625 
L 2419 1625 
L 2419 4116 
z
M 2253 4666 
L 3047 4666 
L 3047 1625 
L 3713 1625 
L 3713 1100 
L 3047 1100 
L 3047 0 
L 2419 0 
L 2419 1100 
L 313 1100 
L 313 1709 
L 2253 4666 
z
" transform="scale(0.015625)"/>
      </defs>
      <use xlink:href="#DejaVuSans-34"/>
     </g>
    </g>
   </g>
   <g id="text_6">
    <g clip-path="url(#p53bff454f3)">
     <!-- 10 -->
     <g transform="translate(226.5825 191.497698) scale(0.06 -0.06)">
      <use xlink:href="#DejaVuSans-31"/>
      <use xlink:href="#DejaVuSans-30" x="63.623047"/>
     </g>
    </g>
    <g clip-path="url(#p53bff454f3)">
     <!-- TANH -->
     <g transform="translate(222.2475 198.216386) scale(0.06 -0.06)">
      <use xlink:href="#DejaVuSans-54"/>
      <use xlink:href="#DejaVuSans-41" x="53.333984"/>
      <use xlink:href="#DejaVuSans-4e" x="121.742188"/>
      <use xlink:href="#DejaVuSans-48" x="196.546875"/>
     </g>
    </g>
   </g>
   <g id="text_7">
    <g clip-path="url(#p53bff454f3)">
     <!-- 8 -->
     <g transform="translate(228.49125 150.694864) scale(0.06 -0.06)">
      <defs>
       <path id="DejaVuSans-38" d="M 2034 2216 
Q 1584 2216 1326 1975 
Q 1069 1734 1069 1313 
Q 1069 891 1326 650 
Q 1584 409 2034 409 
Q 2484 409 2743 651 
Q 3003 894 3003 1313 
Q 3003 1734 2745 1975 
Q 2488 2216 2034 2216 
z
M 1403 2484 
Q 997 2584 770 2862 
Q 544 3141 544 3541 
Q 544 4100 942 4425 
Q 1341 4750 2034 4750 
Q 2731 4750 3128 4425 
Q 3525 4100 3525 3541 
Q 3525 3141 3298 2862 
Q 3072 2584 2669 2484 
Q 3125 2378 3379 2068 
Q 3634 1759 3634 1313 
Q 3634 634 3220 271 
Q 2806 -91 2034 -91 
Q 1263 -91 848 271 
Q 434 634 434 1313 
Q 434 1759 690 2068 
Q 947 2378 1403 2484 
z
M 1172 3481 
Q 1172 3119 1398 2916 
Q 1625 2713 2034 2713 
Q 2441 2713 2670 2916 
Q 2900 3119 2900 3481 
Q 2900 3844 2670 4047 
Q 2441 4250 2034 4250 
Q 1625 4250 1398 4047 
Q 1172 3844 1172 3481 
z
" transform="scale(0.015625)"/>
      </defs>
      <use xlink:href="#DejaVuSans-38"/>
     </g>
    </g>
    <g clip-path="url(#p53bff454f3)">
     <!-- SGM -->
     <g transform="translate(223.5825 157.413552) scale(0.06 -0.06)">
      <defs>
       <path id="DejaVuSans-53" d="M 3425 4513 
L 3425 3897 
Q 3066 4069 2747 4153 
Q 2428 4238 2131 4238 
Q 1616 4238 1336 4038 
Q 1056 3838 1056 3469 
Q 1056 3159 1242 3001 
Q 1428 2844 1947 2747 
L 2328 2669 
Q 3034 2534 3370 2195 
Q 3706 1856 3706 1288 
Q 3706 609 3251 259 
Q 2797 -91 1919 -91 
Q 1588 -91 1214 -16 
Q 841 59 441 206 
L 441 856 
Q 825 641 1194 531 
Q 1563 422 1919 422 
Q 2459 422 2753 634 
Q 3047 847 3047 1241 
Q 3047 1584 2836 1778 
Q 2625 1972 2144 2069 
L 1759 2144 
Q 1053 2284 737 2584 
Q 422 2884 422 3419 
Q 422 4038 858 4394 
Q 1294 4750 2059 4750 
Q 2388 4750 2728 4690 
Q 3069 4631 3425 4513 
z
" transform="scale(0.015625)"/>
       <path id="DejaVuSans-47" d="M 3809 666 
L 3809 1919 
L 2778 1919 
L 2778 2438 
L 4434 2438 
L 4434 434 
Q 4069 175 3628 42 
Q 3188 -91 2688 -91 
Q 1594 -91 976 548 
Q 359 1188 359 2328 
Q 359 3472 976 4111 
Q 1594 4750 2688 4750 
Q 3144 4750 3555 4637 
Q 3966 4525 4313 4306 
L 4313 3634 
Q 3963 3931 3569 4081 
Q 3175 4231 2741 4231 
Q 1884 4231 1454 3753 
Q 1025 3275 1025 2328 
Q 1025 1384 1454 906 
Q 1884 428 2741 428 
Q 3075 428 3337 486 
Q 3600 544 3809 666 
z
" transform="scale(0.015625)"/>
       <path id="DejaVuSans-4d" d="M 628 4666 
L 1569 4666 
L 2759 1491 
L 3956 4666 
L 4897 4666 
L 4897 0 
L 4281 0 
L 4281 4097 
L 3078 897 
L 2444 897 
L 1241 4097 
L 1241 0 
L 628 0 
L 628 4666 
z
" transform="scale(0.015625)"/>
      </defs>
      <use xlink:href="#DejaVuSans-53"/>
      <use xlink:href="#DejaVuSans-47" x="63.476562"/>
      <use xlink:href="#DejaVuSans-4d" x="140.966797"/>
     </g>
    </g>
   </g>
   <g id="text_8">
    <g clip-path="url(#p53bff454f3)">
     <!-- 6 -->
     <g transform="translate(133.284638 109.892031) scale(0.06 -0.06)">
      <defs>
       <path id="DejaVuSans-36" d="M 2113 2584 
Q 1688 2584 1439 2293 
Q 1191 2003 1191 1497 
Q 1191 994 1439 701 
Q 1688 409 2113 409 
Q 2538 409 2786 701 
Q 3034 994 3034 1497 
Q 3034 2003 2786 2293 
Q 2538 2584 2113 2584 
z
M 3366 4563 
L 3366 3988 
Q 3128 4100 2886 4159 
Q 2644 4219 2406 4219 
Q 1781 4219 1451 3797 
Q 1122 3375 1075 2522 
Q 1259 2794 1537 2939 
Q 1816 3084 2150 3084 
Q 2853 3084 3261 2657 
Q 3669 2231 3669 1497 
Q 3669 778 3244 343 
Q 2819 -91 2113 -91 
Q 1303 -91 875 529 
Q 447 1150 447 2328 
Q 447 3434 972 4092 
Q 1497 4750 2381 4750 
Q 2619 4750 2861 4703 
Q 3103 4656 3366 4563 
z
" transform="scale(0.015625)"/>
      </defs>
      <use xlink:href="#DejaVuSans-36"/>
     </g>
    </g>
    <g clip-path="url(#p53bff454f3)">
     <!-- TANH -->
     <g transform="translate(127.040888 116.610718) scale(0.06 -0.06)">
      <use xlink:href="#DejaVuSans-54"/>
      <use xlink:href="#DejaVuSans-41" x="53.333984"/>
      <use xlink:href="#DejaVuSans-4e" x="121.742188"/>
      <use xlink:href="#DejaVuSans-48" x="196.546875"/>
     </g>
    </g>
   </g>
   <g id="text_9">
    <g clip-path="url(#p53bff454f3)">
     <!-- 11 -->
     <g transform="translate(321.789112 109.892031) scale(0.06 -0.06)">
      <use xlink:href="#DejaVuSans-31"/>
      <use xlink:href="#DejaVuSans-31" x="63.623047"/>
     </g>
    </g>
    <g clip-path="url(#p53bff454f3)">
     <!-- SGM -->
     <g transform="translate(318.789112 116.610718) scale(0.06 -0.06)">
      <use xlink:href="#DejaVuSans-53"/>
      <use xlink:href="#DejaVuSans-47" x="63.476562"/>
      <use xlink:href="#DejaVuSans-4d" x="140.966797"/>
     </g>
    </g>
   </g>
   <g id="text_10">
    <g clip-path="url(#p53bff454f3)">
     <!-- 3 -->
     <g transform="translate(418.904473 72.448541) scale(0.06 -0.06)">
      <defs>
       <path id="DejaVuSans-33" d="M 2597 2516 
Q 3050 2419 3304 2112 
Q 3559 1806 3559 1356 
Q 3559 666 3084 287 
Q 2609 -91 1734 -91 
Q 1441 -91 1130 -33 
Q 819 25 488 141 
L 488 750 
Q 750 597 1062 519 
Q 1375 441 1716 441 
Q 2309 441 2620 675 
Q 2931 909 2931 1356 
Q 2931 1769 2642 2001 
Q 2353 2234 1838 2234 
L 1294 2234 
L 1294 2753 
L 1863 2753 
Q 2328 2753 2575 2939 
Q 2822 3125 2822 3475 
Q 2822 3834 2567 4026 
Q 2313 4219 1838 4219 
Q 1578 4219 1281 4162 
Q 984 4106 628 3988 
L 628 4550 
Q 988 4650 1302 4700 
Q 1616 4750 1894 4750 
Q 2613 4750 3031 4423 
Q 3450 4097 3450 3541 
Q 3450 3153 3228 2886 
Q 3006 2619 2597 2516 
z
" transform="scale(0.015625)"/>
      </defs>
      <use xlink:href="#DejaVuSans-33"/>
     </g>
    </g>
   </g>
   <g id="text_11">
    <g clip-path="url(#p53bff454f3)">
     <!-- 5 -->
     <g transform="translate(38.078027 72.448541) scale(0.06 -0.06)">
      <defs>
       <path id="DejaVuSans-35" d="M 691 4666 
L 3169 4666 
L 3169 4134 
L 1269 4134 
L 1269 2991 
Q 1406 3038 1543 3061 
Q 1681 3084 1819 3084 
Q 2600 3084 3056 2656 
Q 3513 2228 3513 1497 
Q 3513 744 3044 326 
Q 2575 -91 1722 -91 
Q 1428 -91 1123 -41 
Q 819 9 494 109 
L 494 744 
Q 775 591 1075 516 
Q 1375 441 1709 441 
Q 2250 441 2565 725 
Q 2881 1009 2881 1497 
Q 2881 1984 2565 2268 
Q 2250 2553 1709 2553 
Q 1456 2553 1204 2497 
Q 953 2441 691 2322 
L 691 4666 
z
" transform="scale(0.015625)"/>
      </defs>
      <use xlink:href="#DejaVuSans-35"/>
     </g>
    </g>
   </g>
   <g id="text_12">
    <g clip-path="url(#p53bff454f3)">
     <!-- 12 -->
     <g transform="translate(226.5825 69.089197) scale(0.06 -0.06)">
      <defs>
       <path id="DejaVuSans-32" d="M 1228 531 
L 3431 531 
L 3431 0 
L 469 0 
L 469 531 
Q 828 903 1448 1529 
Q 2069 2156 2228 2338 
Q 2531 2678 2651 2914 
Q 2772 3150 2772 3378 
Q 2772 3750 2511 3984 
Q 2250 4219 1831 4219 
Q 1534 4219 1204 4116 
Q 875 4013 500 3803 
L 500 4441 
Q 881 4594 1212 4672 
Q 1544 4750 1819 4750 
Q 2544 4750 2975 4387 
Q 3406 4025 3406 3419 
Q 3406 3131 3298 2873 
Q 3191 2616 2906 2266 
Q 2828 2175 2409 1742 
Q 1991 1309 1228 531 
z
" transform="scale(0.015625)"/>
      </defs>
      <use xlink:href="#DejaVuSans-31"/>
      <use xlink:href="#DejaVuSans-32" x="63.623047"/>
     </g>
    </g>
    <g clip-path="url(#p53bff454f3)">
     <!-- SGM -->
     <g transform="translate(223.5825 75.807885) scale(0.06 -0.06)">
      <use xlink:href="#DejaVuSans-53"/>
      <use xlink:href="#DejaVuSans-47" x="63.476562"/>
      <use xlink:href="#DejaVuSans-4d" x="140.966797"/>
     </g>
    </g>
   </g>
   <g id="text_13">
    <g clip-path="url(#p53bff454f3)">
     <!-- 2 -->
     <g transform="translate(228.49125 31.645708) scale(0.06 -0.06)">
      <use xlink:href="#DejaVuSans-32"/>
     </g>
    </g>
   </g>
  </g>
 </g>
 <defs>
  <clipPath id="p53bff454f3">
   <rect x="0" y="0" width="460.8" height="345.6"/>
  </clipPath>
 </defs>
</svg>
