<?xml version="1.0" encoding="utf-8" standalone="no"?>
<!DOCTYPE svg PUBLIC "-//W3C//DTD SVG 1.1//EN"
  "http://www.w3.org/Graphics/SVG/1.1/DTD/svg11.dtd">
<svg xmlns:xlink="http://www.w3.org/1999/xlink" width="460.8pt" height="345.6pt" viewBox="0 0 460.8 345.6" xmlns="http://www.w3.org/2000/svg" version="1.1">
 <metadata>
  <rdf:RDF xmlns:dc="http://purl.org/dc/elements/1.1/" xmlns:cc="http://creativecommons.org/ns#" xmlns:rdf="http://www.w3.org/1999/02/22-rdf-syntax-ns#">
   <cc:Work>
    <dc:type rdf:resource="http://purl.org/dc/dcmitype/StillImage"/>
    <dc:date>2024-11-29T19:19:18.572218</dc:date>
    <dc:format>image/svg+xml</dc:format>
    <dc:creator>
     <cc:Agent>
      <dc:title>Matplotlib v3.9.2, https://matplotlib.org/</dc:title>
     </cc:Agent>
    </dc:creator>
   </cc:Work>
  </rdf:RDF>
 </metadata>
 <defs>
  <style type="text/css">*{stroke-linejoin: round; stroke-linecap: butt}</style>
 </defs>
 <g id="figure_1">
  <g id="patch_1">
   <path d="M 0 345.6 
L 460.8 345.6 
L 460.8 0 
L 0 0 
z
" style="fill: #ffffff"/>
  </g>
  <g id="axes_1">
   <g id="patch_2">
    <path d="M 406.009827 310.058644 
Q 325.60729 279.907692 246.141221 250.107916 
" clip-path="url(#p056b978783)" style="fill: none; stroke: #0000ff; stroke-width: 0.894559; stroke-linecap: round"/>
    <path d="M 248.575676 252.729638 
L 246.141221 250.107916 
L 249.699271 249.733385 
" clip-path="url(#p056b978783)" style="fill: none; stroke: #0000ff; stroke-width: 0.894559; stroke-linecap: round"/>
   </g>
   <g id="patch_3">
    <path d="M 420.813223 299.799411 
Q 420.813223 208.503308 420.813223 118.931742 
" clip-path="url(#p056b978783)" style="fill: none; stroke: #ff0000; stroke-width: 1.542472; stroke-linecap: round"/>
    <path d="M 419.213223 122.131742 
L 420.813223 118.931742 
L 422.413223 122.131742 
" clip-path="url(#p056b978783)" style="fill: none; stroke: #ff0000; stroke-width: 1.542472; stroke-linecap: round"/>
   </g>
   <g id="patch_4">
    <path d="M 408.16569 306.124267 
Q 325.607013 244.20526 243.227222 182.420417 
" clip-path="url(#p056b978783)" style="fill: none; stroke: #ff0000; stroke-width: 0.2; stroke-linecap: round"/>
    <path d="M 244.827222 185.620417 
L 243.227222 182.420417 
L 246.747222 183.060417 
" clip-path="url(#p056b978783)" style="fill: none; stroke: #ff0000; stroke-width: 0.2; stroke-linecap: round"/>
   </g>
   <g id="patch_5">
    <path d="M 412.043046 302.454652 
Q 325.607664 172.801578 240.611182 45.306856 
" clip-path="url(#p056b978783)" style="fill: none; stroke: #ff0000; stroke-width: 2.320158; stroke-linecap: round"/>
    <path d="M 241.054942 48.856937 
L 240.611182 45.306856 
L 243.717503 47.081897 
" clip-path="url(#p056b978783)" style="fill: none; stroke: #ff0000; stroke-width: 2.320158; stroke-linecap: round"/>
   </g>
   <g id="patch_6">
    <path d="M 53.767446 307.858291 
Q 230.400105 208.50242 406.058313 109.694678 
" clip-path="url(#p056b978783)" style="fill: none; stroke: #0000ff; stroke-linecap: round"/>
    <path d="M 402.484854 109.868993 
L 406.058313 109.694678 
L 404.05369 112.658035 
" clip-path="url(#p056b978783)" style="fill: none; stroke: #0000ff; stroke-linecap: round"/>
   </g>
   <g id="patch_7">
    <path d="M 52.63431 306.124267 
Q 135.192987 244.20526 217.484644 182.486517 
" clip-path="url(#p056b978783)" style="fill: none; stroke: #0000ff; stroke-width: 0.298536; stroke-linecap: round"/>
    <path d="M 213.964644 183.126517 
L 217.484644 182.486517 
L 215.884644 185.686517 
" clip-path="url(#p056b978783)" style="fill: none; stroke: #0000ff; stroke-width: 0.298536; stroke-linecap: round"/>
   </g>
   <g id="patch_8">
    <path d="M 48.756954 302.454652 
Q 135.192336 172.801578 221.291751 43.652456 
" clip-path="url(#p056b978783)" style="fill: none; stroke: #0000ff; stroke-width: 0.541731; stroke-linecap: round"/>
    <path d="M 218.18543 45.427497 
L 221.291751 43.652456 
L 220.847991 47.202538 
" clip-path="url(#p056b978783)" style="fill: none; stroke: #0000ff; stroke-width: 0.541731; stroke-linecap: round"/>
   </g>
   <g id="patch_9">
    <path d="M 230.4 228.397721 
Q 230.4 208.503822 230.4 189.707868 
" clip-path="url(#p056b978783)" style="fill: none; stroke: #0000ff; stroke-width: 0.982032; stroke-linecap: round"/>
    <path d="M 228.8 192.907868 
L 230.4 189.707868 
L 232 192.907868 
" clip-path="url(#p056b978783)" style="fill: none; stroke: #0000ff; stroke-width: 0.982032; stroke-linecap: round"/>
   </g>
   <g id="patch_10">
    <path d="M 230.4 228.394452 
Q 230.4 137.09835 230.4 46.025854 
" clip-path="url(#p056b978783)" style="fill: none; stroke: #0000ff; stroke-width: 0.2; stroke-linecap: round"/>
    <path d="M 228.8 49.225854 
L 230.4 46.025854 
L 232 49.225854 
" clip-path="url(#p056b978783)" style="fill: none; stroke: #0000ff; stroke-width: 0.2; stroke-linecap: round"/>
   </g>
   <g id="patch_11">
    <path d="M 215.596604 167.248726 
Q 135.194067 137.097775 55.192015 107.097006 
" clip-path="url(#p056b978783)" style="fill: none; stroke: #ff0000; stroke-width: 0.382563; stroke-linecap: round"/>
    <path d="M 57.626471 109.718727 
L 55.192015 107.097006 
L 58.750066 106.722474 
" clip-path="url(#p056b978783)" style="fill: none; stroke: #ff0000; stroke-width: 0.382563; stroke-linecap: round"/>
   </g>
   <g id="patch_12">
    <path d="M 245.203396 167.248726 
Q 325.605933 137.097775 405.342049 107.196732 
" clip-path="url(#p056b978783)" style="fill: none; stroke: #ff0000; stroke-width: 0.636598; stroke-linecap: round"/>
    <path d="M 401.783998 106.8222 
L 405.342049 107.196732 
L 402.907593 109.818453 
" clip-path="url(#p056b978783)" style="fill: none; stroke: #ff0000; stroke-width: 0.636598; stroke-linecap: round"/>
   </g>
   <g id="patch_13">
    <path d="M 406.009827 95.843768 
Q 325.60729 65.692816 245.609902 35.693796 
" clip-path="url(#p056b978783)" style="fill: none; stroke: #ff0000; stroke-width: 0.387018; stroke-linecap: round"/>
    <path d="M 248.044358 38.315518 
L 245.609902 35.693796 
L 249.167953 35.319264 
" clip-path="url(#p056b978783)" style="fill: none; stroke: #ff0000; stroke-width: 0.387018; stroke-linecap: round"/>
   </g>
   <g id="patch_14">
    <path d="M 54.790173 95.843768 
Q 135.19271 65.692816 215.385877 35.620379 
" clip-path="url(#p056b978783)" style="fill: none; stroke: #0000ff; stroke-width: 0.2; stroke-linecap: round"/>
    <path d="M 211.827827 35.245847 
L 215.385877 35.620379 
L 212.951422 38.2421 
" clip-path="url(#p056b978783)" style="fill: none; stroke: #0000ff; stroke-width: 0.2; stroke-linecap: round"/>
   </g>
   <g id="PathCollection_1">
    <path d="M 420.813223 331.421306 
C 425.006452 331.421306 429.028502 329.755318 431.993563 326.790257 
C 434.958624 323.825196 436.624611 319.803147 436.624611 315.609917 
C 436.624611 311.416688 434.958624 307.394638 431.993563 304.429577 
C 429.028502 301.464517 425.006452 299.798529 420.813223 299.798529 
C 416.619994 299.798529 412.597944 301.464517 409.632883 304.429577 
C 406.667822 307.394638 405.001835 311.416688 405.001835 315.609917 
C 405.001835 319.803147 406.667822 323.825196 409.632883 326.790257 
C 412.597944 329.755318 416.619994 331.421306 420.813223 331.421306 
z
" clip-path="url(#p056b978783)" style="fill: #ffff00; stroke: #000000"/>
    <path d="M 39.986777 331.421306 
C 44.180006 331.421306 48.202056 329.755318 51.167117 326.790257 
C 54.132178 323.825196 55.798165 319.803147 55.798165 315.609917 
C 55.798165 311.416688 54.132178 307.394638 51.167117 304.429577 
C 48.202056 301.464517 44.180006 299.798529 39.986777 299.798529 
C 35.793548 299.798529 31.771498 301.464517 28.806437 304.429577 
C 25.841376 307.394638 24.175389 311.416688 24.175389 315.609917 
C 24.175389 319.803147 25.841376 323.825196 28.806437 326.790257 
C 31.771498 329.755318 35.793548 331.421306 39.986777 331.421306 
z
" clip-path="url(#p056b978783)" style="fill: #ffff00; stroke: #000000"/>
    <path d="M 230.4 260.016347 
C 234.593229 260.016347 238.615279 258.350359 241.58034 255.385299 
C 244.545401 252.420238 246.211388 248.398188 246.211388 244.204959 
C 246.211388 240.011729 244.545401 235.98968 241.58034 233.024619 
C 238.615279 230.059558 234.593229 228.39357 230.4 228.39357 
C 226.206771 228.39357 222.184721 230.059558 219.21966 233.024619 
C 216.254599 235.98968 214.588612 240.011729 214.588612 244.204959 
C 214.588612 248.398188 216.254599 252.420238 219.21966 255.385299 
C 222.184721 258.350359 226.206771 260.016347 230.4 260.016347 
z
" clip-path="url(#p056b978783)" style="fill: #0000ff; stroke: #000000"/>
    <path d="M 230.4 188.611388 
C 234.593229 188.611388 238.615279 186.945401 241.58034 183.98034 
C 244.545401 181.015279 246.211388 176.993229 246.211388 172.8 
C 246.211388 168.606771 244.545401 164.584721 241.58034 161.61966 
C 238.615279 158.654599 234.593229 156.988612 230.4 156.988612 
C 226.206771 156.988612 222.184721 158.654599 219.21966 161.61966 
C 216.254599 164.584721 214.588612 168.606771 214.588612 172.8 
C 214.588612 176.993229 216.254599 181.015279 219.21966 183.98034 
C 222.184721 186.945401 226.206771 188.611388 230.4 188.611388 
z
" clip-path="url(#p056b978783)" style="fill: #0000ff; stroke: #000000"/>
    <path d="M 420.813223 117.20643 
C 425.006452 117.20643 429.028502 115.540442 431.993563 112.575381 
C 434.958624 109.61032 436.624611 105.588271 436.624611 101.395041 
C 436.624611 97.201812 434.958624 93.179762 431.993563 90.214701 
C 429.028502 87.249641 425.006452 85.583653 420.813223 85.583653 
C 416.619994 85.583653 412.597944 87.249641 409.632883 90.214701 
C 406.667822 93.179762 405.001835 97.201812 405.001835 101.395041 
C 405.001835 105.588271 406.667822 109.61032 409.632883 112.575381 
C 412.597944 115.540442 416.619994 117.20643 420.813223 117.20643 
z
" clip-path="url(#p056b978783)" style="fill: #0000ff; stroke: #000000"/>
    <path d="M 39.986777 117.20643 
C 44.180006 117.20643 48.202056 115.540442 51.167117 112.575381 
C 54.132178 109.61032 55.798165 105.588271 55.798165 101.395041 
C 55.798165 97.201812 54.132178 93.179762 51.167117 90.214701 
C 48.202056 87.249641 44.180006 85.583653 39.986777 85.583653 
C 35.793548 85.583653 31.771498 87.249641 28.806437 90.214701 
C 25.841376 93.179762 24.175389 97.201812 24.175389 101.395041 
C 24.175389 105.588271 25.841376 109.61032 28.806437 112.575381 
C 31.771498 115.540442 35.793548 117.20643 39.986777 117.20643 
z
" clip-path="url(#p056b978783)" style="fill: #ffffff; stroke: #000000"/>
    <path d="M 230.4 45.801471 
C 234.593229 45.801471 238.615279 44.135483 241.58034 41.170423 
C 244.545401 38.205362 246.211388 34.183312 246.211388 29.990083 
C 246.211388 25.796853 244.545401 21.774804 241.58034 18.809743 
C 238.615279 15.844682 234.593229 14.178694 230.4 14.178694 
C 226.206771 14.178694 222.184721 15.844682 219.21966 18.809743 
C 216.254599 21.774804 214.588612 25.796853 214.588612 29.990083 
C 214.588612 34.183312 216.254599 38.205362 219.21966 41.170423 
C 222.184721 44.135483 226.206771 45.801471 230.4 45.801471 
z
" clip-path="url(#p056b978783)" style="fill: #0000ff; stroke: #000000"/>
   </g>
   <g id="text_1">
    <g clip-path="url(#p056b978783)">
     <!-- 0 -->
     <g transform="translate(418.904473 317.265542) scale(0.06 -0.06)">
      <defs>
       <path id="DejaVuSans-30" d="M 2034 4250 
Q 1547 4250 1301 3770 
Q 1056 3291 1056 2328 
Q 1056 1369 1301 889 
Q 1547 409 2034 409 
Q 2525 409 2770 889 
Q 3016 1369 3016 2328 
Q 3016 3291 2770 3770 
Q 2525 4250 2034 4250 
z
M 2034 4750 
Q 2819 4750 3233 4129 
Q 3647 3509 3647 2328 
Q 3647 1150 3233 529 
Q 2819 -91 2034 -91 
Q 1250 -91 836 529 
Q 422 1150 422 2328 
Q 422 3509 836 4129 
Q 1250 4750 2034 4750 
z
" transform="scale(0.015625)"/>
      </defs>
      <use xlink:href="#DejaVuSans-30"/>
     </g>
    </g>
   </g>
   <g id="text_2">
    <g clip-path="url(#p056b978783)">
     <!-- 1 -->
     <g transform="translate(38.078027 317.265542) scale(0.06 -0.06)">
      <defs>
       <path id="DejaVuSans-31" d="M 794 531 
L 1825 531 
L 1825 4091 
L 703 3866 
L 703 4441 
L 1819 4666 
L 2450 4666 
L 2450 531 
L 3481 531 
L 3481 0 
L 794 0 
L 794 531 
z
" transform="scale(0.015625)"/>
      </defs>
      <use xlink:href="#DejaVuSans-31"/>
     </g>
    </g>
   </g>
   <g id="text_3">
    <g clip-path="url(#p056b978783)">
     <!-- 2 -->
     <g transform="translate(228.49125 245.860584) scale(0.06 -0.06)">
      <defs>
       <path id="DejaVuSans-32" d="M 1228 531 
L 3431 531 
L 3431 0 
L 469 0 
L 469 531 
Q 828 903 1448 1529 
Q 2069 2156 2228 2338 
Q 2531 2678 2651 2914 
Q 2772 3150 2772 3378 
Q 2772 3750 2511 3984 
Q 2250 4219 1831 4219 
Q 1534 4219 1204 4116 
Q 875 4013 500 3803 
L 500 4441 
Q 881 4594 1212 4672 
Q 1544 4750 1819 4750 
Q 2544 4750 2975 4387 
Q 3406 4025 3406 3419 
Q 3406 3131 3298 2873 
Q 3191 2616 2906 2266 
Q 2828 2175 2409 1742 
Q 1991 1309 1228 531 
z
" transform="scale(0.015625)"/>
      </defs>
      <use xlink:href="#DejaVuSans-32"/>
     </g>
    </g>
   </g>
   <g id="text_4">
    <g clip-path="url(#p056b978783)">
     <!-- 4 -->
     <g transform="translate(228.49125 174.455625) scale(0.06 -0.06)">
      <defs>
       <path id="DejaVuSans-34" d="M 2419 4116 
L 825 1625 
L 2419 1625 
L 2419 4116 
z
M 2253 4666 
L 3047 4666 
L 3047 1625 
L 3713 1625 
L 3713 1100 
L 3047 1100 
L 3047 0 
L 2419 0 
L 2419 1100 
L 313 1100 
L 313 1709 
L 2253 4666 
z
" transform="scale(0.015625)"/>
      </defs>
      <use xlink:href="#DejaVuSans-34"/>
     </g>
    </g>
   </g>
   <g id="text_5">
    <g clip-path="url(#p056b978783)">
     <!-- 3 -->
     <g transform="translate(418.904473 103.050666) scale(0.06 -0.06)">
      <defs>
       <path id="DejaVuSans-33" d="M 2597 2516 
Q 3050 2419 3304 2112 
Q 3559 1806 3559 1356 
Q 3559 666 3084 287 
Q 2609 -91 1734 -91 
Q 1441 -91 1130 -33 
Q 819 25 488 141 
L 488 750 
Q 750 597 1062 519 
Q 1375 441 1716 441 
Q 2309 441 2620 675 
Q 2931 909 2931 1356 
Q 2931 1769 2642 2001 
Q 2353 2234 1838 2234 
L 1294 2234 
L 1294 2753 
L 1863 2753 
Q 2328 2753 2575 2939 
Q 2822 3125 2822 3475 
Q 2822 3834 2567 4026 
Q 2313 4219 1838 4219 
Q 1578 4219 1281 4162 
Q 984 4106 628 3988 
L 628 4550 
Q 988 4650 1302 4700 
Q 1616 4750 1894 4750 
Q 2613 4750 3031 4423 
Q 3450 4097 3450 3541 
Q 3450 3153 3228 2886 
Q 3006 2619 2597 2516 
z
" transform="scale(0.015625)"/>
      </defs>
      <use xlink:href="#DejaVuSans-33"/>
     </g>
    </g>
   </g>
   <g id="text_6">
    <g clip-path="url(#p056b978783)">
     <!-- 6 -->
     <g transform="translate(38.078027 99.691323) scale(0.06 -0.06)">
      <defs>
       <path id="DejaVuSans-36" d="M 2113 2584 
Q 1688 2584 1439 2293 
Q 1191 2003 1191 1497 
Q 1191 994 1439 701 
Q 1688 409 2113 409 
Q 2538 409 2786 701 
Q 3034 994 3034 1497 
Q 3034 2003 2786 2293 
Q 2538 2584 2113 2584 
z
M 3366 4563 
L 3366 3988 
Q 3128 4100 2886 4159 
Q 2644 4219 2406 4219 
Q 1781 4219 1451 3797 
Q 1122 3375 1075 2522 
Q 1259 2794 1537 2939 
Q 1816 3084 2150 3084 
Q 2853 3084 3261 2657 
Q 3669 2231 3669 1497 
Q 3669 778 3244 343 
Q 2819 -91 2113 -91 
Q 1303 -91 875 529 
Q 447 1150 447 2328 
Q 447 3434 972 4092 
Q 1497 4750 2381 4750 
Q 2619 4750 2861 4703 
Q 3103 4656 3366 4563 
z
" transform="scale(0.015625)"/>
      </defs>
      <use xlink:href="#DejaVuSans-36"/>
     </g>
    </g>
    <g clip-path="url(#p056b978783)">
     <!-- SGM -->
     <g transform="translate(33.169277 106.41001) scale(0.06 -0.06)">
      <defs>
       <path id="DejaVuSans-53" d="M 3425 4513 
L 3425 3897 
Q 3066 4069 2747 4153 
Q 2428 4238 2131 4238 
Q 1616 4238 1336 4038 
Q 1056 3838 1056 3469 
Q 1056 3159 1242 3001 
Q 1428 2844 1947 2747 
L 2328 2669 
Q 3034 2534 3370 2195 
Q 3706 1856 3706 1288 
Q 3706 609 3251 259 
Q 2797 -91 1919 -91 
Q 1588 -91 1214 -16 
Q 841 59 441 206 
L 441 856 
Q 825 641 1194 531 
Q 1563 422 1919 422 
Q 2459 422 2753 634 
Q 3047 847 3047 1241 
Q 3047 1584 2836 1778 
Q 2625 1972 2144 2069 
L 1759 2144 
Q 1053 2284 737 2584 
Q 422 2884 422 3419 
Q 422 4038 858 4394 
Q 1294 4750 2059 4750 
Q 2388 4750 2728 4690 
Q 3069 4631 3425 4513 
z
" transform="scale(0.015625)"/>
       <path id="DejaVuSans-47" d="M 3809 666 
L 3809 1919 
L 2778 1919 
L 2778 2438 
L 4434 2438 
L 4434 434 
Q 4069 175 3628 42 
Q 3188 -91 2688 -91 
Q 1594 -91 976 548 
Q 359 1188 359 2328 
Q 359 3472 976 4111 
Q 1594 4750 2688 4750 
Q 3144 4750 3555 4637 
Q 3966 4525 4313 4306 
L 4313 3634 
Q 3963 3931 3569 4081 
Q 3175 4231 2741 4231 
Q 1884 4231 1454 3753 
Q 1025 3275 1025 2328 
Q 1025 1384 1454 906 
Q 1884 428 2741 428 
Q 3075 428 3337 486 
Q 3600 544 3809 666 
z
" transform="scale(0.015625)"/>
       <path id="DejaVuSans-4d" d="M 628 4666 
L 1569 4666 
L 2759 1491 
L 3956 4666 
L 4897 4666 
L 4897 0 
L 4281 0 
L 4281 4097 
L 3078 897 
L 2444 897 
L 1241 4097 
L 1241 0 
L 628 0 
L 628 4666 
z
" transform="scale(0.015625)"/>
      </defs>
      <use xlink:href="#DejaVuSans-53"/>
      <use xlink:href="#DejaVuSans-47" x="63.476562"/>
      <use xlink:href="#DejaVuSans-4d" x="140.966797"/>
     </g>
    </g>
   </g>
   <g id="text_7">
    <g clip-path="url(#p056b978783)">
     <!-- 5 -->
     <g transform="translate(228.49125 31.645708) scale(0.06 -0.06)">
      <defs>
       <path id="DejaVuSans-35" d="M 691 4666 
L 3169 4666 
L 3169 4134 
L 1269 4134 
L 1269 2991 
Q 1406 3038 1543 3061 
Q 1681 3084 1819 3084 
Q 2600 3084 3056 2656 
Q 3513 2228 3513 1497 
Q 3513 744 3044 326 
Q 2575 -91 1722 -91 
Q 1428 -91 1123 -41 
Q 819 9 494 109 
L 494 744 
Q 775 591 1075 516 
Q 1375 441 1709 441 
Q 2250 441 2565 725 
Q 2881 1009 2881 1497 
Q 2881 1984 2565 2268 
Q 2250 2553 1709 2553 
Q 1456 2553 1204 2497 
Q 953 2441 691 2322 
L 691 4666 
z
" transform="scale(0.015625)"/>
      </defs>
      <use xlink:href="#DejaVuSans-35"/>
     </g>
    </g>
   </g>
  </g>
 </g>
 <defs>
  <clipPath id="p056b978783">
   <rect x="0" y="0" width="460.8" height="345.6"/>
  </clipPath>
 </defs>
</svg>
