<?xml version="1.0" encoding="utf-8" standalone="no"?>
<!DOCTYPE svg PUBLIC "-//W3C//DTD SVG 1.1//EN"
  "http://www.w3.org/Graphics/SVG/1.1/DTD/svg11.dtd">
<svg xmlns:xlink="http://www.w3.org/1999/xlink" width="460.8pt" height="345.6pt" viewBox="0 0 460.8 345.6" xmlns="http://www.w3.org/2000/svg" version="1.1">
 <metadata>
  <rdf:RDF xmlns:dc="http://purl.org/dc/elements/1.1/" xmlns:cc="http://creativecommons.org/ns#" xmlns:rdf="http://www.w3.org/1999/02/22-rdf-syntax-ns#">
   <cc:Work>
    <dc:type rdf:resource="http://purl.org/dc/dcmitype/StillImage"/>
    <dc:date>2024-10-31T11:27:12.918195</dc:date>
    <dc:format>image/svg+xml</dc:format>
    <dc:creator>
     <cc:Agent>
      <dc:title>Matplotlib v3.9.2, https://matplotlib.org/</dc:title>
     </cc:Agent>
    </dc:creator>
   </cc:Work>
  </rdf:RDF>
 </metadata>
 <defs>
  <style type="text/css">*{stroke-linejoin: round; stroke-linecap: butt}</style>
 </defs>
 <g id="figure_1">
  <g id="patch_1">
   <path d="M 0 345.6 
L 460.8 345.6 
L 460.8 0 
L 0 0 
z
" style="fill: #ffffff"/>
  </g>
  <g id="axes_1">
   <g id="patch_2">
    <path d="M 44.79098 308.403612 
Q 87.590594 244.204191 129.770035 180.93503 
" clip-path="url(#p55d8f240da)" style="fill: none; stroke: #4c4c4c; stroke-linecap: round"/>
    <path d="M 128.605165 181.60067 
L 129.770035 180.93503 
L 129.603625 182.266311 
" clip-path="url(#p55d8f240da)" style="fill: none; stroke: #4c4c4c; stroke-linecap: round"/>
   </g>
   <g id="patch_3">
    <path d="M 46.916335 310.412749 
Q 135.193491 244.204882 222.57622 178.667835 
" clip-path="url(#p55d8f240da)" style="fill: none; stroke: #4c4c4c; stroke-linecap: round"/>
    <path d="M 221.25622 178.907835 
L 222.57622 178.667835 
L 221.97622 179.867835 
" clip-path="url(#p55d8f240da)" style="fill: none; stroke: #4c4c4c; stroke-linecap: round"/>
   </g>
   <g id="patch_4">
    <path d="M 44.79098 213.197001 
Q 87.590594 148.997579 129.770035 85.728419 
" clip-path="url(#p55d8f240da)" style="fill: none; stroke: #4c4c4c; stroke-linecap: round"/>
    <path d="M 128.605165 86.394059 
L 129.770035 85.728419 
L 129.603625 87.059699 
" clip-path="url(#p55d8f240da)" style="fill: none; stroke: #4c4c4c; stroke-linecap: round"/>
   </g>
   <g id="patch_5">
    <path d="M 47.729868 121.325149 
Q 87.587321 101.396422 126.444774 81.967696 
" clip-path="url(#p55d8f240da)" style="fill: none; stroke: #4c4c4c; stroke-linecap: round"/>
    <path d="M 125.103133 81.967696 
L 126.444774 81.967696 
L 125.639789 83.041008 
" clip-path="url(#p55d8f240da)" style="fill: none; stroke: #4c4c4c; stroke-linecap: round"/>
   </g>
   <g id="patch_6">
    <path d="M 48.533232 126.621103 
Q 182.797726 148.998519 315.959397 171.192131 
" clip-path="url(#p55d8f240da)" style="fill: none; stroke: #4c4c4c; stroke-linecap: round"/>
    <path d="M 314.874364 170.403016 
L 315.959397 171.192131 
L 314.677085 171.586689 
" clip-path="url(#p55d8f240da)" style="fill: none; stroke: #4c4c4c; stroke-linecap: round"/>
   </g>
   <g id="patch_7">
    <path d="M 48.578267 126.27063 
Q 230.400355 148.998391 411.113043 171.587477 
" clip-path="url(#p55d8f240da)" style="fill: none; stroke: #4c4c4c; stroke-linecap: round"/>
    <path d="M 409.99673 170.843269 
L 411.113043 171.587477 
L 409.847888 172.034002 
" clip-path="url(#p55d8f240da)" style="fill: none; stroke: #4c4c4c; stroke-linecap: round"/>
   </g>
   <g id="patch_8">
    <path d="M 43.201685 38.027353 
Q 87.589619 148.997188 131.562326 258.928954 
" clip-path="url(#p55d8f240da)" style="fill: none; stroke: #4c4c4c; stroke-linecap: round"/>
    <path d="M 131.673743 257.591948 
L 131.562326 258.928954 
L 130.559571 258.037617 
" clip-path="url(#p55d8f240da)" style="fill: none; stroke: #4c4c4c; stroke-linecap: round"/>
   </g>
   <g id="patch_9">
    <path d="M 45.399677 36.756208 
Q 135.194107 148.999246 224.290107 260.369245 
" clip-path="url(#p55d8f240da)" style="fill: none; stroke: #4c4c4c; stroke-linecap: round"/>
    <path d="M 224.008994 259.057386 
L 224.290107 260.369245 
L 223.071952 259.80702 
" clip-path="url(#p55d8f240da)" style="fill: none; stroke: #4c4c4c; stroke-linecap: round"/>
   </g>
   <g id="patch_10">
    <path d="M 141.315225 83.715225 
Q 182.795051 125.195051 223.484309 165.884309 
" clip-path="url(#p55d8f240da)" style="fill: none; stroke: #4c4c4c; stroke-linecap: round"/>
    <path d="M 223.060044 164.611516 
L 223.484309 165.884309 
L 222.211516 165.460044 
" clip-path="url(#p55d8f240da)" style="fill: none; stroke: #4c4c4c; stroke-linecap: round"/>
   </g>
   <g id="patch_11">
    <path d="M 141.315225 166.678164 
Q 182.795051 125.198337 223.484309 84.50908 
" clip-path="url(#p55d8f240da)" style="fill: none; stroke: #4c4c4c; stroke-linecap: round"/>
    <path d="M 222.211516 84.933344 
L 223.484309 84.50908 
L 223.060044 85.781872 
" clip-path="url(#p55d8f240da)" style="fill: none; stroke: #4c4c4c; stroke-linecap: round"/>
   </g>
   <g id="patch_12">
    <path d="M 141.315225 178.921836 
Q 182.795051 220.401663 223.484309 261.09092 
" clip-path="url(#p55d8f240da)" style="fill: none; stroke: #4c4c4c; stroke-linecap: round"/>
    <path d="M 223.060044 259.818128 
L 223.484309 261.09092 
L 222.211516 260.666656 
" clip-path="url(#p55d8f240da)" style="fill: none; stroke: #4c4c4c; stroke-linecap: round"/>
   </g>
   <g id="patch_13">
    <path d="M 239.061222 172.8 
Q 278.003742 172.8 315.828228 172.8 
" clip-path="url(#p55d8f240da)" style="fill: none; stroke: #4c4c4c; stroke-linecap: round"/>
    <path d="M 314.628228 172.2 
L 315.828228 172.8 
L 314.628228 173.4 
" clip-path="url(#p55d8f240da)" style="fill: none; stroke: #4c4c4c; stroke-linecap: round"/>
   </g>
   <g id="patch_14">
    <path d="M 334.267833 172.8 
Q 373.210353 172.8 411.03484 172.8 
" clip-path="url(#p55d8f240da)" style="fill: none; stroke: #4c4c4c; stroke-linecap: round"/>
    <path d="M 409.83484 172.2 
L 411.03484 172.8 
L 409.83484 173.4 
" clip-path="url(#p55d8f240da)" style="fill: none; stroke: #4c4c4c; stroke-linecap: round"/>
   </g>
   <g id="PathCollection_1">
    <path d="M 39.986777 324.270171 
C 42.283503 324.270171 44.486471 323.357672 46.110501 321.733642 
C 47.734532 320.109611 48.647031 317.906644 48.647031 315.609917 
C 48.647031 313.313191 47.734532 311.110224 46.110501 309.486193 
C 44.486471 307.862162 42.283503 306.949663 39.986777 306.949663 
C 37.690051 306.949663 35.487083 307.862162 33.863053 309.486193 
C 32.239022 311.110224 31.326523 313.313191 31.326523 315.609917 
C 31.326523 317.906644 32.239022 320.109611 33.863053 321.733642 
C 35.487083 323.357672 37.690051 324.270171 39.986777 324.270171 
z
" clip-path="url(#p55d8f240da)" style="fill: #ffff00; stroke: #000000"/>
    <path d="M 39.986777 229.06356 
C 42.283503 229.06356 44.486471 228.151061 46.110501 226.52703 
C 47.734532 224.902999 48.647031 222.700032 48.647031 220.403306 
C 48.647031 218.10658 47.734532 215.903612 46.110501 214.279581 
C 44.486471 212.655551 42.283503 211.743052 39.986777 211.743052 
C 37.690051 211.743052 35.487083 212.655551 33.863053 214.279581 
C 32.239022 215.903612 31.326523 218.10658 31.326523 220.403306 
C 31.326523 222.700032 32.239022 224.902999 33.863053 226.52703 
C 35.487083 228.151061 37.690051 229.06356 39.986777 229.06356 
z
" clip-path="url(#p55d8f240da)" style="fill: #ffff00; stroke: #000000"/>
    <path d="M 39.986777 133.856948 
C 42.283503 133.856948 44.486471 132.944449 46.110501 131.320419 
C 47.734532 129.696388 48.647031 127.49342 48.647031 125.196694 
C 48.647031 122.899968 47.734532 120.697001 46.110501 119.07297 
C 44.486471 117.448939 42.283503 116.53644 39.986777 116.53644 
C 37.690051 116.53644 35.487083 117.448939 33.863053 119.07297 
C 32.239022 120.697001 31.326523 122.899968 31.326523 125.196694 
C 31.326523 127.49342 32.239022 129.696388 33.863053 131.320419 
C 35.487083 132.944449 37.690051 133.856948 39.986777 133.856948 
z
" clip-path="url(#p55d8f240da)" style="fill: #ffff00; stroke: #000000"/>
    <path d="M 39.986777 38.650337 
C 42.283503 38.650337 44.486471 37.737838 46.110501 36.113807 
C 47.734532 34.489776 48.647031 32.286809 48.647031 29.990083 
C 48.647031 27.693356 47.734532 25.490389 46.110501 23.866358 
C 44.486471 22.242328 42.283503 21.329829 39.986777 21.329829 
C 37.690051 21.329829 35.487083 22.242328 33.863053 23.866358 
C 32.239022 25.490389 31.326523 27.693356 31.326523 29.990083 
C 31.326523 32.286809 32.239022 34.489776 33.863053 36.113807 
C 35.487083 37.737838 37.690051 38.650337 39.986777 38.650337 
z
" clip-path="url(#p55d8f240da)" style="fill: #ffffff; stroke: #000000"/>
    <path d="M 135.193388 86.253642 
C 137.490115 86.253642 139.693082 85.341143 141.317113 83.717113 
C 142.941143 82.093082 143.853642 79.890115 143.853642 77.593388 
C 143.853642 75.296662 142.941143 73.093695 141.317113 71.469664 
C 139.693082 69.845633 137.490115 68.933134 135.193388 68.933134 
C 132.896662 68.933134 130.693695 69.845633 129.069664 71.469664 
C 127.445633 73.093695 126.533134 75.296662 126.533134 77.593388 
C 126.533134 79.890115 127.445633 82.093082 129.069664 83.717113 
C 130.693695 85.341143 132.896662 86.253642 135.193388 86.253642 
z
" clip-path="url(#p55d8f240da)" style="fill: #ffffff; stroke: #000000"/>
    <path d="M 135.193388 276.666866 
C 137.490115 276.666866 139.693082 275.754367 141.317113 274.130336 
C 142.941143 272.506305 143.853642 270.303338 143.853642 268.006612 
C 143.853642 265.709885 142.941143 263.506918 141.317113 261.882887 
C 139.693082 260.258857 137.490115 259.346358 135.193388 259.346358 
C 132.896662 259.346358 130.693695 260.258857 129.069664 261.882887 
C 127.445633 263.506918 126.533134 265.709885 126.533134 268.006612 
C 126.533134 270.303338 127.445633 272.506305 129.069664 274.130336 
C 130.693695 275.754367 132.896662 276.666866 135.193388 276.666866 
z
" clip-path="url(#p55d8f240da)" style="fill: #ffffff; stroke: #000000"/>
    <path d="M 135.193388 181.460254 
C 137.490115 181.460254 139.693082 180.547755 141.317113 178.923724 
C 142.941143 177.299694 143.853642 175.096726 143.853642 172.8 
C 143.853642 170.503274 142.941143 168.300306 141.317113 166.676276 
C 139.693082 165.052245 137.490115 164.139746 135.193388 164.139746 
C 132.896662 164.139746 130.693695 165.052245 129.069664 166.676276 
C 127.445633 168.300306 126.533134 170.503274 126.533134 172.8 
C 126.533134 175.096726 127.445633 177.299694 129.069664 178.923724 
C 130.693695 180.547755 132.896662 181.460254 135.193388 181.460254 
z
" clip-path="url(#p55d8f240da)" style="fill: #ffffff; stroke: #000000"/>
    <path d="M 230.4 181.460254 
C 232.696726 181.460254 234.899694 180.547755 236.523724 178.923724 
C 238.147755 177.299694 239.060254 175.096726 239.060254 172.8 
C 239.060254 170.503274 238.147755 168.300306 236.523724 166.676276 
C 234.899694 165.052245 232.696726 164.139746 230.4 164.139746 
C 228.103274 164.139746 225.900306 165.052245 224.276276 166.676276 
C 222.652245 168.300306 221.739746 170.503274 221.739746 172.8 
C 221.739746 175.096726 222.652245 177.299694 224.276276 178.923724 
C 225.900306 180.547755 228.103274 181.460254 230.4 181.460254 
z
" clip-path="url(#p55d8f240da)" style="fill: #ffffff; stroke: #000000"/>
    <path d="M 230.4 86.253642 
C 232.696726 86.253642 234.899694 85.341143 236.523724 83.717113 
C 238.147755 82.093082 239.060254 79.890115 239.060254 77.593388 
C 239.060254 75.296662 238.147755 73.093695 236.523724 71.469664 
C 234.899694 69.845633 232.696726 68.933134 230.4 68.933134 
C 228.103274 68.933134 225.900306 69.845633 224.276276 71.469664 
C 222.652245 73.093695 221.739746 75.296662 221.739746 77.593388 
C 221.739746 79.890115 222.652245 82.093082 224.276276 83.717113 
C 225.900306 85.341143 228.103274 86.253642 230.4 86.253642 
z
" clip-path="url(#p55d8f240da)" style="fill: #ffffff; stroke: #000000"/>
    <path d="M 230.4 276.666866 
C 232.696726 276.666866 234.899694 275.754367 236.523724 274.130336 
C 238.147755 272.506305 239.060254 270.303338 239.060254 268.006612 
C 239.060254 265.709885 238.147755 263.506918 236.523724 261.882887 
C 234.899694 260.258857 232.696726 259.346358 230.4 259.346358 
C 228.103274 259.346358 225.900306 260.258857 224.276276 261.882887 
C 222.652245 263.506918 221.739746 265.709885 221.739746 268.006612 
C 221.739746 270.303338 222.652245 272.506305 224.276276 274.130336 
C 225.900306 275.754367 228.103274 276.666866 230.4 276.666866 
z
" clip-path="url(#p55d8f240da)" style="fill: #ffffff; stroke: #000000"/>
    <path d="M 325.606612 181.460254 
C 327.903338 181.460254 330.106305 180.547755 331.730336 178.923724 
C 333.354367 177.299694 334.266866 175.096726 334.266866 172.8 
C 334.266866 170.503274 333.354367 168.300306 331.730336 166.676276 
C 330.106305 165.052245 327.903338 164.139746 325.606612 164.139746 
C 323.309885 164.139746 321.106918 165.052245 319.482887 166.676276 
C 317.858857 168.300306 316.946358 170.503274 316.946358 172.8 
C 316.946358 175.096726 317.858857 177.299694 319.482887 178.923724 
C 321.106918 180.547755 323.309885 181.460254 325.606612 181.460254 
z
" clip-path="url(#p55d8f240da)" style="fill: #ffffff; stroke: #000000"/>
    <path d="M 420.813223 181.460254 
C 423.109949 181.460254 425.312917 180.547755 426.936947 178.923724 
C 428.560978 177.299694 429.473477 175.096726 429.473477 172.8 
C 429.473477 170.503274 428.560978 168.300306 426.936947 166.676276 
C 425.312917 165.052245 423.109949 164.139746 420.813223 164.139746 
C 418.516497 164.139746 416.313529 165.052245 414.689499 166.676276 
C 413.065468 168.300306 412.152969 170.503274 412.152969 172.8 
C 412.152969 175.096726 413.065468 177.299694 414.689499 178.923724 
C 416.313529 180.547755 418.516497 181.460254 420.813223 181.460254 
z
" clip-path="url(#p55d8f240da)" style="fill: #0000ff; stroke: #000000"/>
   </g>
  </g>
 </g>
 <defs>
  <clipPath id="p55d8f240da">
   <rect x="0" y="0" width="460.8" height="345.6"/>
  </clipPath>
 </defs>
</svg>
